M48
; DRILL file {KiCad 8.0.4} date 2024-09-02T08:35:16-0400
; FORMAT={-:-/ absolute / inch / decimal}
; #@! TF.CreationDate,2024-09-02T08:35:16-04:00
; #@! TF.GenerationSoftware,Kicad,Pcbnew,8.0.4
; #@! TF.FileFunction,Plated,1,2,PTH
FMAT,2
INCH
; #@! TA.AperFunction,Plated,PTH,ComponentDrill
T1C0.0315
; #@! TA.AperFunction,Plated,PTH,ComponentDrill
T2C0.0472
; #@! TA.AperFunction,Plated,PTH,ComponentDrill
T3C0.0630
; #@! TA.AperFunction,Plated,PTH,ComponentDrill
T4C0.1260
%
G90
G05
T1
X4.7816Y-2.74
X4.7816Y-4.02
X4.9784Y-2.74
X4.9784Y-4.02
T2
X2.4724Y-3.2422
X2.4724Y-3.38
X2.4724Y-3.5178
X4.28Y-2.8447
X4.28Y-3.14
X4.28Y-3.6447
X4.28Y-3.94
X5.1124Y-3.2422
X5.1124Y-3.38
X5.1124Y-3.5178
T3
X2.92Y-2.75
X2.92Y-3.25
X2.92Y-3.55
X2.92Y-4.05
X3.5Y-2.75
X3.5Y-3.25
X3.5Y-3.55
X3.5Y-4.05
T4
X2.4Y-2.6108
X2.4Y-4.12
X5.2Y-2.6
X5.2Y-4.12
M30
