%TF.GenerationSoftware,KiCad,Pcbnew,8.0.4*%
%TF.CreationDate,2024-09-25T20:52:30-04:00*%
%TF.ProjectId,power_supply,706f7765-725f-4737-9570-706c792e6b69,rev?*%
%TF.SameCoordinates,Original*%
%TF.FileFunction,Copper,L2,Bot*%
%TF.FilePolarity,Positive*%
%FSLAX46Y46*%
G04 Gerber Fmt 4.6, Leading zero omitted, Abs format (unit mm)*
G04 Created by KiCad (PCBNEW 8.0.4) date 2024-09-25 20:52:30*
%MOMM*%
%LPD*%
G01*
G04 APERTURE LIST*
%TA.AperFunction,ComponentPad*%
%ADD10C,1.600000*%
%TD*%
%TA.AperFunction,ComponentPad*%
%ADD11C,5.600000*%
%TD*%
%TA.AperFunction,ComponentPad*%
%ADD12R,2.400000X2.400000*%
%TD*%
%TA.AperFunction,ComponentPad*%
%ADD13C,2.400000*%
%TD*%
%TA.AperFunction,ComponentPad*%
%ADD14R,3.200000X3.200000*%
%TD*%
%TA.AperFunction,ComponentPad*%
%ADD15O,3.200000X3.200000*%
%TD*%
G04 APERTURE END LIST*
D10*
%TO.P,C4,1*%
%TO.N,GND*%
X149504000Y-102164000D03*
%TO.P,C4,2*%
%TO.N,/V-*%
X144504000Y-102164000D03*
%TD*%
D11*
%TO.P,REF\u002A\u002A,1*%
%TO.N,GND*%
X155132000Y-104704000D03*
%TD*%
D12*
%TO.P,C2,1*%
%TO.N,GND*%
X108712000Y-92576000D03*
D13*
%TO.P,C2,2*%
%TO.N,/V-*%
X108712000Y-100076000D03*
%TD*%
D14*
%TO.P,D4,1,K*%
%TO.N,/AC1*%
X88900000Y-90170000D03*
D15*
%TO.P,D4,2,A*%
%TO.N,/V-*%
X88900000Y-102870000D03*
%TD*%
D11*
%TO.P,REF\u002A\u002A,1*%
%TO.N,GND*%
X60960000Y-66315000D03*
%TD*%
D12*
%TO.P,C5,1*%
%TO.N,/V+*%
X130048000Y-72256000D03*
D13*
%TO.P,C5,2*%
%TO.N,GND*%
X130048000Y-79756000D03*
%TD*%
D14*
%TO.P,D3,1,K*%
%TO.N,/V+*%
X74168000Y-69850000D03*
D15*
%TO.P,D3,2,A*%
%TO.N,/AC2*%
X74168000Y-82550000D03*
%TD*%
D11*
%TO.P,REF\u002A\u002A,1*%
%TO.N,GND*%
X60960000Y-104648000D03*
%TD*%
D12*
%TO.P,J2,1,Pin_1*%
%TO.N,/V-*%
X154748000Y-89408000D03*
D13*
%TO.P,J2,2,Pin_2*%
%TO.N,GND*%
X154748000Y-85908000D03*
%TO.P,J2,3,Pin_3*%
%TO.N,/V+*%
X154748000Y-82408000D03*
%TD*%
D12*
%TO.P,J1,1,Pin_1*%
%TO.N,/AC2*%
X62800000Y-82352000D03*
D13*
%TO.P,J1,2,Pin_2*%
%TO.N,GND*%
X62800000Y-85852000D03*
%TO.P,J1,3,Pin_3*%
%TO.N,/AC1*%
X62800000Y-89352000D03*
%TD*%
D12*
%TO.P,C1,1*%
%TO.N,/V+*%
X108712000Y-72256000D03*
D13*
%TO.P,C1,2*%
%TO.N,GND*%
X108712000Y-79756000D03*
%TD*%
D11*
%TO.P,REF\u002A\u002A,1*%
%TO.N,GND*%
X155132000Y-66096000D03*
%TD*%
D10*
%TO.P,C3,1*%
%TO.N,/V+*%
X144504000Y-69652000D03*
%TO.P,C3,2*%
%TO.N,GND*%
X149504000Y-69652000D03*
%TD*%
D12*
%TO.P,C6,1*%
%TO.N,GND*%
X130048000Y-92964000D03*
D13*
%TO.P,C6,2*%
%TO.N,/V-*%
X130048000Y-100464000D03*
%TD*%
D14*
%TO.P,D1,1,K*%
%TO.N,/V+*%
X88900000Y-69850000D03*
D15*
%TO.P,D1,2,A*%
%TO.N,/AC1*%
X88900000Y-82550000D03*
%TD*%
D14*
%TO.P,D2,1,K*%
%TO.N,/AC2*%
X74168000Y-90170000D03*
D15*
%TO.P,D2,2,A*%
%TO.N,/V-*%
X74168000Y-102870000D03*
%TD*%
%TA.AperFunction,Conductor*%
%TO.N,GND*%
G36*
X157531471Y-62230195D02*
G01*
X157572136Y-62232478D01*
X157856949Y-62248473D01*
X157870748Y-62250027D01*
X158188695Y-62304049D01*
X158202252Y-62307143D01*
X158512148Y-62396423D01*
X158525272Y-62401016D01*
X158823215Y-62524427D01*
X158835737Y-62530456D01*
X159118006Y-62686461D01*
X159129779Y-62693859D01*
X159392789Y-62880475D01*
X159403649Y-62889135D01*
X159587784Y-63053688D01*
X159644127Y-63104039D01*
X159653960Y-63113872D01*
X159868859Y-63354344D01*
X159877528Y-63365216D01*
X160064139Y-63628219D01*
X160071538Y-63639993D01*
X160227539Y-63922255D01*
X160233572Y-63934784D01*
X160356983Y-64232727D01*
X160361576Y-64245851D01*
X160450856Y-64555747D01*
X160453950Y-64569304D01*
X160507970Y-64887240D01*
X160509527Y-64901058D01*
X160527805Y-65226527D01*
X160528000Y-65233480D01*
X160528000Y-105454519D01*
X160527805Y-105461472D01*
X160509527Y-105786941D01*
X160507970Y-105800759D01*
X160453950Y-106118695D01*
X160450856Y-106132252D01*
X160361576Y-106442148D01*
X160356983Y-106455272D01*
X160233572Y-106753215D01*
X160227539Y-106765744D01*
X160071538Y-107048006D01*
X160064139Y-107059780D01*
X159877528Y-107322783D01*
X159868859Y-107333655D01*
X159653960Y-107574127D01*
X159644127Y-107583960D01*
X159403655Y-107798859D01*
X159392783Y-107807528D01*
X159129780Y-107994139D01*
X159118006Y-108001538D01*
X158835744Y-108157539D01*
X158823215Y-108163572D01*
X158525272Y-108286983D01*
X158512148Y-108291576D01*
X158202252Y-108380856D01*
X158188695Y-108383950D01*
X157870759Y-108437970D01*
X157856941Y-108439527D01*
X157531472Y-108457805D01*
X157524519Y-108458000D01*
X59899481Y-108458000D01*
X59892528Y-108457805D01*
X59567058Y-108439527D01*
X59553240Y-108437970D01*
X59235304Y-108383950D01*
X59221747Y-108380856D01*
X58911851Y-108291576D01*
X58898727Y-108286983D01*
X58600784Y-108163572D01*
X58588255Y-108157539D01*
X58305993Y-108001538D01*
X58294219Y-107994139D01*
X58031216Y-107807528D01*
X58020344Y-107798859D01*
X57992664Y-107774123D01*
X57779870Y-107583958D01*
X57770039Y-107574127D01*
X57599586Y-107383390D01*
X57555135Y-107333649D01*
X57546475Y-107322789D01*
X57359859Y-107059779D01*
X57352461Y-107048006D01*
X57245239Y-106854002D01*
X57196456Y-106765737D01*
X57190427Y-106753215D01*
X57067016Y-106455272D01*
X57062423Y-106442148D01*
X56973143Y-106132252D01*
X56970049Y-106118695D01*
X56916027Y-105800748D01*
X56914473Y-105786949D01*
X56896195Y-105461471D01*
X56896000Y-105454519D01*
X56896000Y-104647997D01*
X57655153Y-104647997D01*
X57655153Y-104648002D01*
X57674526Y-105005314D01*
X57674527Y-105005331D01*
X57732415Y-105358431D01*
X57732421Y-105358457D01*
X57828147Y-105703232D01*
X57828149Y-105703239D01*
X57960597Y-106035659D01*
X57960606Y-106035677D01*
X58128218Y-106351827D01*
X58329024Y-106647994D01*
X58329035Y-106648008D01*
X58456441Y-106798002D01*
X58456442Y-106798002D01*
X59665747Y-105588697D01*
X59739588Y-105690330D01*
X59917670Y-105868412D01*
X60019300Y-105942251D01*
X58807257Y-107154294D01*
X58820495Y-107166836D01*
X59105367Y-107383388D01*
X59105370Y-107383390D01*
X59411990Y-107567876D01*
X59736739Y-107718122D01*
X59736744Y-107718123D01*
X60075855Y-107832383D01*
X60425339Y-107909311D01*
X60781075Y-107947999D01*
X60781085Y-107948000D01*
X61138915Y-107948000D01*
X61138924Y-107947999D01*
X61494660Y-107909311D01*
X61844144Y-107832383D01*
X62183255Y-107718123D01*
X62183260Y-107718122D01*
X62508009Y-107567876D01*
X62814629Y-107383390D01*
X62814632Y-107383388D01*
X63099509Y-107166831D01*
X63112742Y-107154295D01*
X63112742Y-107154294D01*
X61900699Y-105942251D01*
X62002330Y-105868412D01*
X62180412Y-105690330D01*
X62254251Y-105588698D01*
X63463556Y-106798002D01*
X63590972Y-106647998D01*
X63590975Y-106647994D01*
X63791781Y-106351827D01*
X63959393Y-106035677D01*
X63959402Y-106035659D01*
X64091850Y-105703239D01*
X64091852Y-105703232D01*
X64187578Y-105358457D01*
X64187584Y-105358431D01*
X64245472Y-105005331D01*
X64245473Y-105005314D01*
X64264847Y-104648002D01*
X64264847Y-104647997D01*
X64245473Y-104290685D01*
X64245472Y-104290668D01*
X64187584Y-103937568D01*
X64187578Y-103937542D01*
X64091852Y-103592767D01*
X64091850Y-103592760D01*
X63959402Y-103260340D01*
X63959393Y-103260322D01*
X63791781Y-102944172D01*
X63741491Y-102870000D01*
X72062592Y-102870000D01*
X72082201Y-103156680D01*
X72082201Y-103156684D01*
X72082202Y-103156686D01*
X72100143Y-103243024D01*
X72140666Y-103438034D01*
X72140667Y-103438037D01*
X72236894Y-103708793D01*
X72236893Y-103708793D01*
X72369098Y-103963935D01*
X72534812Y-104198700D01*
X72604514Y-104273332D01*
X72730947Y-104408708D01*
X72953853Y-104590055D01*
X73049137Y-104647999D01*
X73199382Y-104739365D01*
X73386237Y-104820526D01*
X73462942Y-104853844D01*
X73739642Y-104931371D01*
X73989920Y-104965771D01*
X74024321Y-104970500D01*
X74024322Y-104970500D01*
X74311679Y-104970500D01*
X74342370Y-104966281D01*
X74596358Y-104931371D01*
X74873058Y-104853844D01*
X74986015Y-104804779D01*
X75136617Y-104739365D01*
X75136620Y-104739363D01*
X75136625Y-104739361D01*
X75382147Y-104590055D01*
X75605053Y-104408708D01*
X75801189Y-104198698D01*
X75966901Y-103963936D01*
X76099104Y-103708797D01*
X76195334Y-103438032D01*
X76253798Y-103156686D01*
X76273408Y-102870000D01*
X86794592Y-102870000D01*
X86814201Y-103156680D01*
X86814201Y-103156684D01*
X86814202Y-103156686D01*
X86832143Y-103243024D01*
X86872666Y-103438034D01*
X86872667Y-103438037D01*
X86968894Y-103708793D01*
X86968893Y-103708793D01*
X87101098Y-103963935D01*
X87266812Y-104198700D01*
X87336514Y-104273332D01*
X87462947Y-104408708D01*
X87685853Y-104590055D01*
X87781137Y-104647999D01*
X87931382Y-104739365D01*
X88118237Y-104820526D01*
X88194942Y-104853844D01*
X88471642Y-104931371D01*
X88721920Y-104965771D01*
X88756321Y-104970500D01*
X88756322Y-104970500D01*
X89043679Y-104970500D01*
X89074370Y-104966281D01*
X89328358Y-104931371D01*
X89605058Y-104853844D01*
X89718015Y-104804779D01*
X89868617Y-104739365D01*
X89868620Y-104739363D01*
X89868625Y-104739361D01*
X89926778Y-104703997D01*
X151827153Y-104703997D01*
X151827153Y-104704002D01*
X151846526Y-105061314D01*
X151846527Y-105061331D01*
X151904415Y-105414431D01*
X151904421Y-105414457D01*
X152000147Y-105759232D01*
X152000149Y-105759239D01*
X152132597Y-106091659D01*
X152132606Y-106091677D01*
X152300218Y-106407827D01*
X152501024Y-106703994D01*
X152501035Y-106704008D01*
X152628441Y-106854002D01*
X152628442Y-106854002D01*
X153837747Y-105644697D01*
X153911588Y-105746330D01*
X154089670Y-105924412D01*
X154191300Y-105998251D01*
X152979257Y-107210294D01*
X152992495Y-107222836D01*
X153277367Y-107439388D01*
X153277370Y-107439390D01*
X153583990Y-107623876D01*
X153908739Y-107774122D01*
X153908744Y-107774123D01*
X154247855Y-107888383D01*
X154597339Y-107965311D01*
X154953075Y-108003999D01*
X154953085Y-108004000D01*
X155310915Y-108004000D01*
X155310924Y-108003999D01*
X155666660Y-107965311D01*
X156016144Y-107888383D01*
X156355255Y-107774123D01*
X156355260Y-107774122D01*
X156680009Y-107623876D01*
X156986629Y-107439390D01*
X156986632Y-107439388D01*
X157271509Y-107222831D01*
X157284742Y-107210295D01*
X157284742Y-107210294D01*
X156072699Y-105998251D01*
X156174330Y-105924412D01*
X156352412Y-105746330D01*
X156426251Y-105644698D01*
X157635556Y-106854002D01*
X157762972Y-106703998D01*
X157762975Y-106703994D01*
X157963781Y-106407827D01*
X158131393Y-106091677D01*
X158131402Y-106091659D01*
X158263850Y-105759239D01*
X158263852Y-105759232D01*
X158359578Y-105414457D01*
X158359584Y-105414431D01*
X158417472Y-105061331D01*
X158417473Y-105061314D01*
X158436847Y-104704002D01*
X158436847Y-104703997D01*
X158417473Y-104346685D01*
X158417472Y-104346668D01*
X158359584Y-103993568D01*
X158359578Y-103993542D01*
X158263852Y-103648767D01*
X158263850Y-103648760D01*
X158131402Y-103316340D01*
X158131393Y-103316322D01*
X157963781Y-103000172D01*
X157762975Y-102704005D01*
X157762964Y-102703991D01*
X157635556Y-102553996D01*
X156426251Y-103763301D01*
X156352412Y-103661670D01*
X156174330Y-103483588D01*
X156072698Y-103409748D01*
X157284742Y-102197704D01*
X157271504Y-102185163D01*
X156986632Y-101968611D01*
X156986629Y-101968609D01*
X156680009Y-101784123D01*
X156355260Y-101633877D01*
X156355255Y-101633876D01*
X156016144Y-101519616D01*
X155666660Y-101442688D01*
X155310924Y-101404000D01*
X154953075Y-101404000D01*
X154597339Y-101442688D01*
X154247855Y-101519616D01*
X153908744Y-101633876D01*
X153908739Y-101633877D01*
X153583990Y-101784123D01*
X153277370Y-101968609D01*
X153277367Y-101968611D01*
X152992486Y-102185170D01*
X152992485Y-102185171D01*
X152979257Y-102197702D01*
X152979256Y-102197703D01*
X154191301Y-103409748D01*
X154089670Y-103483588D01*
X153911588Y-103661670D01*
X153837748Y-103763301D01*
X152628442Y-102553995D01*
X152628441Y-102553996D01*
X152501033Y-102703992D01*
X152300218Y-103000172D01*
X152132606Y-103316322D01*
X152132597Y-103316340D01*
X152000149Y-103648760D01*
X152000147Y-103648767D01*
X151904421Y-103993542D01*
X151904415Y-103993568D01*
X151846527Y-104346668D01*
X151846526Y-104346685D01*
X151827153Y-104703997D01*
X89926778Y-104703997D01*
X90114147Y-104590055D01*
X90337053Y-104408708D01*
X90533189Y-104198698D01*
X90698901Y-103963936D01*
X90831104Y-103708797D01*
X90927334Y-103438032D01*
X90985798Y-103156686D01*
X91005408Y-102870000D01*
X90985798Y-102583314D01*
X90927334Y-102301968D01*
X90831105Y-102031206D01*
X90831106Y-102031206D01*
X90698901Y-101776064D01*
X90533187Y-101541299D01*
X90409843Y-101409231D01*
X90337053Y-101331292D01*
X90208452Y-101226667D01*
X90114146Y-101149944D01*
X89868617Y-101000634D01*
X89605063Y-100886158D01*
X89605061Y-100886157D01*
X89605058Y-100886156D01*
X89475578Y-100849877D01*
X89328364Y-100808630D01*
X89328359Y-100808629D01*
X89328358Y-100808629D01*
X89186018Y-100789064D01*
X89043679Y-100769500D01*
X89043678Y-100769500D01*
X88756322Y-100769500D01*
X88756321Y-100769500D01*
X88471642Y-100808629D01*
X88471635Y-100808630D01*
X88263861Y-100866845D01*
X88194942Y-100886156D01*
X88194939Y-100886156D01*
X88194936Y-100886158D01*
X88194935Y-100886158D01*
X87931382Y-101000634D01*
X87685853Y-101149944D01*
X87462950Y-101331289D01*
X87266812Y-101541299D01*
X87101098Y-101776064D01*
X86968894Y-102031206D01*
X86872667Y-102301962D01*
X86872666Y-102301965D01*
X86814201Y-102583319D01*
X86794592Y-102870000D01*
X76273408Y-102870000D01*
X76253798Y-102583314D01*
X76195334Y-102301968D01*
X76099105Y-102031206D01*
X76099106Y-102031206D01*
X75966901Y-101776064D01*
X75801187Y-101541299D01*
X75677843Y-101409231D01*
X75605053Y-101331292D01*
X75476452Y-101226667D01*
X75382146Y-101149944D01*
X75136617Y-101000634D01*
X74873063Y-100886158D01*
X74873061Y-100886157D01*
X74873058Y-100886156D01*
X74743578Y-100849877D01*
X74596364Y-100808630D01*
X74596359Y-100808629D01*
X74596358Y-100808629D01*
X74454018Y-100789064D01*
X74311679Y-100769500D01*
X74311678Y-100769500D01*
X74024322Y-100769500D01*
X74024321Y-100769500D01*
X73739642Y-100808629D01*
X73739635Y-100808630D01*
X73531861Y-100866845D01*
X73462942Y-100886156D01*
X73462939Y-100886156D01*
X73462936Y-100886158D01*
X73462935Y-100886158D01*
X73199382Y-101000634D01*
X72953853Y-101149944D01*
X72730950Y-101331289D01*
X72534812Y-101541299D01*
X72369098Y-101776064D01*
X72236894Y-102031206D01*
X72140667Y-102301962D01*
X72140666Y-102301965D01*
X72082201Y-102583319D01*
X72062592Y-102870000D01*
X63741491Y-102870000D01*
X63590975Y-102648005D01*
X63590964Y-102647991D01*
X63463556Y-102497996D01*
X62254251Y-103707301D01*
X62180412Y-103605670D01*
X62002330Y-103427588D01*
X61900698Y-103353748D01*
X63112742Y-102141704D01*
X63099504Y-102129163D01*
X62814632Y-101912611D01*
X62814629Y-101912609D01*
X62508009Y-101728123D01*
X62183260Y-101577877D01*
X62183255Y-101577876D01*
X61844144Y-101463616D01*
X61494660Y-101386688D01*
X61138924Y-101348000D01*
X60781075Y-101348000D01*
X60425339Y-101386688D01*
X60075855Y-101463616D01*
X59736744Y-101577876D01*
X59736739Y-101577877D01*
X59411990Y-101728123D01*
X59105370Y-101912609D01*
X59105367Y-101912611D01*
X58820486Y-102129170D01*
X58820485Y-102129171D01*
X58807257Y-102141702D01*
X58807256Y-102141703D01*
X60019301Y-103353748D01*
X59917670Y-103427588D01*
X59739588Y-103605670D01*
X59665748Y-103707301D01*
X58456442Y-102497995D01*
X58456441Y-102497996D01*
X58329033Y-102647992D01*
X58128218Y-102944172D01*
X57960606Y-103260322D01*
X57960597Y-103260340D01*
X57828149Y-103592760D01*
X57828147Y-103592767D01*
X57732421Y-103937542D01*
X57732415Y-103937568D01*
X57674527Y-104290668D01*
X57674526Y-104290685D01*
X57655153Y-104647997D01*
X56896000Y-104647997D01*
X56896000Y-100075995D01*
X107006732Y-100075995D01*
X107006732Y-100076004D01*
X107025777Y-100330154D01*
X107056327Y-100464004D01*
X107082492Y-100578637D01*
X107175607Y-100815888D01*
X107303041Y-101036612D01*
X107461950Y-101235877D01*
X107648783Y-101409232D01*
X107859366Y-101552805D01*
X107859371Y-101552807D01*
X107859372Y-101552808D01*
X107859373Y-101552809D01*
X107981328Y-101611538D01*
X108088992Y-101663387D01*
X108088993Y-101663387D01*
X108088996Y-101663389D01*
X108332542Y-101738513D01*
X108584565Y-101776500D01*
X108839435Y-101776500D01*
X109091458Y-101738513D01*
X109335004Y-101663389D01*
X109564634Y-101552805D01*
X109775217Y-101409232D01*
X109962050Y-101235877D01*
X110120959Y-101036612D01*
X110248393Y-100815888D01*
X110341508Y-100578637D01*
X110367674Y-100463995D01*
X128342732Y-100463995D01*
X128342732Y-100464004D01*
X128361777Y-100718154D01*
X128400122Y-100886156D01*
X128418492Y-100966637D01*
X128511607Y-101203888D01*
X128639041Y-101424612D01*
X128797950Y-101623877D01*
X128984783Y-101797232D01*
X129195366Y-101940805D01*
X129195371Y-101940807D01*
X129195372Y-101940808D01*
X129195373Y-101940809D01*
X129317328Y-101999538D01*
X129424992Y-102051387D01*
X129424993Y-102051387D01*
X129424996Y-102051389D01*
X129668542Y-102126513D01*
X129920565Y-102164500D01*
X130175435Y-102164500D01*
X130178765Y-102163998D01*
X143198532Y-102163998D01*
X143198532Y-102164001D01*
X143218364Y-102390686D01*
X143218366Y-102390697D01*
X143277258Y-102610488D01*
X143277261Y-102610497D01*
X143373431Y-102816732D01*
X143373432Y-102816734D01*
X143503954Y-103003141D01*
X143664858Y-103164045D01*
X143664861Y-103164047D01*
X143851266Y-103294568D01*
X144057504Y-103390739D01*
X144277308Y-103449635D01*
X144439230Y-103463801D01*
X144503998Y-103469468D01*
X144504000Y-103469468D01*
X144504002Y-103469468D01*
X144560673Y-103464509D01*
X144730692Y-103449635D01*
X144950496Y-103390739D01*
X145156734Y-103294568D01*
X145343139Y-103164047D01*
X145504047Y-103003139D01*
X145634568Y-102816734D01*
X145730739Y-102610496D01*
X145789635Y-102390692D01*
X145807616Y-102185170D01*
X145809468Y-102164001D01*
X145809468Y-102163998D01*
X145809468Y-102163997D01*
X148199034Y-102163997D01*
X148199034Y-102164002D01*
X148218858Y-102390599D01*
X148218860Y-102390610D01*
X148277730Y-102610317D01*
X148277735Y-102610331D01*
X148373863Y-102816478D01*
X148424974Y-102889472D01*
X149104000Y-102210446D01*
X149104000Y-102216661D01*
X149131259Y-102318394D01*
X149183920Y-102409606D01*
X149258394Y-102484080D01*
X149349606Y-102536741D01*
X149451339Y-102564000D01*
X149457553Y-102564000D01*
X148778526Y-103243025D01*
X148851513Y-103294132D01*
X148851521Y-103294136D01*
X149057668Y-103390264D01*
X149057682Y-103390269D01*
X149277389Y-103449139D01*
X149277400Y-103449141D01*
X149503998Y-103468966D01*
X149504002Y-103468966D01*
X149730599Y-103449141D01*
X149730610Y-103449139D01*
X149950317Y-103390269D01*
X149950331Y-103390264D01*
X150156478Y-103294136D01*
X150229471Y-103243024D01*
X149550447Y-102564000D01*
X149556661Y-102564000D01*
X149658394Y-102536741D01*
X149749606Y-102484080D01*
X149824080Y-102409606D01*
X149876741Y-102318394D01*
X149904000Y-102216661D01*
X149904000Y-102210447D01*
X150583024Y-102889471D01*
X150634136Y-102816478D01*
X150730264Y-102610331D01*
X150730269Y-102610317D01*
X150789139Y-102390610D01*
X150789141Y-102390599D01*
X150808966Y-102164002D01*
X150808966Y-102163997D01*
X150789141Y-101937400D01*
X150789139Y-101937389D01*
X150730269Y-101717682D01*
X150730264Y-101717668D01*
X150634136Y-101511521D01*
X150634132Y-101511513D01*
X150583025Y-101438526D01*
X149904000Y-102117551D01*
X149904000Y-102111339D01*
X149876741Y-102009606D01*
X149824080Y-101918394D01*
X149749606Y-101843920D01*
X149658394Y-101791259D01*
X149556661Y-101764000D01*
X149550448Y-101764000D01*
X150229472Y-101084974D01*
X150156478Y-101033863D01*
X149950331Y-100937735D01*
X149950317Y-100937730D01*
X149730610Y-100878860D01*
X149730599Y-100878858D01*
X149504002Y-100859034D01*
X149503998Y-100859034D01*
X149277400Y-100878858D01*
X149277389Y-100878860D01*
X149057682Y-100937730D01*
X149057673Y-100937734D01*
X148851516Y-101033866D01*
X148851512Y-101033868D01*
X148778526Y-101084973D01*
X148778526Y-101084974D01*
X149457553Y-101764000D01*
X149451339Y-101764000D01*
X149349606Y-101791259D01*
X149258394Y-101843920D01*
X149183920Y-101918394D01*
X149131259Y-102009606D01*
X149104000Y-102111339D01*
X149104000Y-102117552D01*
X148424974Y-101438526D01*
X148424973Y-101438526D01*
X148373868Y-101511512D01*
X148373866Y-101511516D01*
X148277734Y-101717673D01*
X148277730Y-101717682D01*
X148218860Y-101937389D01*
X148218858Y-101937400D01*
X148199034Y-102163997D01*
X145809468Y-102163997D01*
X145799616Y-102051389D01*
X145789635Y-101937308D01*
X145730739Y-101717504D01*
X145634568Y-101511266D01*
X145504047Y-101324861D01*
X145504045Y-101324858D01*
X145343141Y-101163954D01*
X145156734Y-101033432D01*
X145156732Y-101033431D01*
X144950497Y-100937261D01*
X144950488Y-100937258D01*
X144730697Y-100878366D01*
X144730693Y-100878365D01*
X144730692Y-100878365D01*
X144730691Y-100878364D01*
X144730686Y-100878364D01*
X144504002Y-100858532D01*
X144503998Y-100858532D01*
X144277313Y-100878364D01*
X144277302Y-100878366D01*
X144057511Y-100937258D01*
X144057502Y-100937261D01*
X143851267Y-101033431D01*
X143851265Y-101033432D01*
X143664858Y-101163954D01*
X143503954Y-101324858D01*
X143373432Y-101511265D01*
X143373431Y-101511267D01*
X143277261Y-101717502D01*
X143277258Y-101717511D01*
X143218366Y-101937302D01*
X143218364Y-101937313D01*
X143198532Y-102163998D01*
X130178765Y-102163998D01*
X130427458Y-102126513D01*
X130671004Y-102051389D01*
X130900634Y-101940805D01*
X131111217Y-101797232D01*
X131298050Y-101623877D01*
X131456959Y-101424612D01*
X131584393Y-101203888D01*
X131677508Y-100966637D01*
X131734222Y-100718157D01*
X131753268Y-100464000D01*
X131734222Y-100209843D01*
X131677508Y-99961363D01*
X131584393Y-99724112D01*
X131456959Y-99503388D01*
X131298050Y-99304123D01*
X131111217Y-99130768D01*
X130900634Y-98987195D01*
X130900630Y-98987193D01*
X130900627Y-98987191D01*
X130900626Y-98987190D01*
X130671006Y-98876612D01*
X130671008Y-98876612D01*
X130427466Y-98801489D01*
X130427462Y-98801488D01*
X130427458Y-98801487D01*
X130306231Y-98783214D01*
X130175440Y-98763500D01*
X130175435Y-98763500D01*
X129920565Y-98763500D01*
X129920559Y-98763500D01*
X129763609Y-98787157D01*
X129668542Y-98801487D01*
X129668539Y-98801488D01*
X129668533Y-98801489D01*
X129424992Y-98876612D01*
X129195373Y-98987190D01*
X129195372Y-98987191D01*
X128984782Y-99130768D01*
X128797952Y-99304121D01*
X128797950Y-99304123D01*
X128639041Y-99503388D01*
X128511608Y-99724109D01*
X128418492Y-99961362D01*
X128418490Y-99961369D01*
X128361777Y-100209845D01*
X128342732Y-100463995D01*
X110367674Y-100463995D01*
X110398222Y-100330157D01*
X110417268Y-100076000D01*
X110398222Y-99821843D01*
X110341508Y-99573363D01*
X110248393Y-99336112D01*
X110120959Y-99115388D01*
X109962050Y-98916123D01*
X109775217Y-98742768D01*
X109564634Y-98599195D01*
X109564630Y-98599193D01*
X109564627Y-98599191D01*
X109564626Y-98599190D01*
X109335006Y-98488612D01*
X109335008Y-98488612D01*
X109091466Y-98413489D01*
X109091462Y-98413488D01*
X109091458Y-98413487D01*
X108970231Y-98395214D01*
X108839440Y-98375500D01*
X108839435Y-98375500D01*
X108584565Y-98375500D01*
X108584559Y-98375500D01*
X108427609Y-98399157D01*
X108332542Y-98413487D01*
X108332539Y-98413488D01*
X108332533Y-98413489D01*
X108088992Y-98488612D01*
X107859373Y-98599190D01*
X107859372Y-98599191D01*
X107648782Y-98742768D01*
X107461952Y-98916121D01*
X107461950Y-98916123D01*
X107303041Y-99115388D01*
X107175608Y-99336109D01*
X107082492Y-99573362D01*
X107082490Y-99573369D01*
X107025777Y-99821845D01*
X107006732Y-100075995D01*
X56896000Y-100075995D01*
X56896000Y-89351995D01*
X61094732Y-89351995D01*
X61094732Y-89352004D01*
X61113777Y-89606154D01*
X61113778Y-89606157D01*
X61170492Y-89854637D01*
X61263607Y-90091888D01*
X61391041Y-90312612D01*
X61549950Y-90511877D01*
X61736783Y-90685232D01*
X61947366Y-90828805D01*
X61947371Y-90828807D01*
X61947372Y-90828808D01*
X61947373Y-90828809D01*
X61992073Y-90850335D01*
X62176992Y-90939387D01*
X62176993Y-90939387D01*
X62176996Y-90939389D01*
X62420542Y-91014513D01*
X62672565Y-91052500D01*
X62927435Y-91052500D01*
X63179458Y-91014513D01*
X63423004Y-90939389D01*
X63652634Y-90828805D01*
X63863217Y-90685232D01*
X64050050Y-90511877D01*
X64208959Y-90312612D01*
X64336393Y-90091888D01*
X64429508Y-89854637D01*
X64486222Y-89606157D01*
X64505268Y-89352000D01*
X64486222Y-89097843D01*
X64429508Y-88849363D01*
X64336393Y-88612112D01*
X64284445Y-88522135D01*
X72067500Y-88522135D01*
X72067500Y-91817870D01*
X72067501Y-91817876D01*
X72073908Y-91877483D01*
X72124202Y-92012328D01*
X72124206Y-92012335D01*
X72210452Y-92127544D01*
X72210455Y-92127547D01*
X72325664Y-92213793D01*
X72325671Y-92213797D01*
X72460517Y-92264091D01*
X72460516Y-92264091D01*
X72467444Y-92264835D01*
X72520127Y-92270500D01*
X75815872Y-92270499D01*
X75875483Y-92264091D01*
X76010331Y-92213796D01*
X76125546Y-92127546D01*
X76211796Y-92012331D01*
X76262091Y-91877483D01*
X76268500Y-91817873D01*
X76268499Y-88522135D01*
X86799500Y-88522135D01*
X86799500Y-91817870D01*
X86799501Y-91817876D01*
X86805908Y-91877483D01*
X86856202Y-92012328D01*
X86856206Y-92012335D01*
X86942452Y-92127544D01*
X86942455Y-92127547D01*
X87057664Y-92213793D01*
X87057671Y-92213797D01*
X87192517Y-92264091D01*
X87192516Y-92264091D01*
X87199444Y-92264835D01*
X87252127Y-92270500D01*
X90547872Y-92270499D01*
X90607483Y-92264091D01*
X90742331Y-92213796D01*
X90857546Y-92127546D01*
X90943796Y-92012331D01*
X90994091Y-91877483D01*
X91000500Y-91817873D01*
X91000500Y-91328155D01*
X107012000Y-91328155D01*
X107012000Y-92326000D01*
X108163518Y-92326000D01*
X108152889Y-92344409D01*
X108112000Y-92497009D01*
X108112000Y-92654991D01*
X108152889Y-92807591D01*
X108163518Y-92826000D01*
X107012000Y-92826000D01*
X107012000Y-93823844D01*
X107018401Y-93883372D01*
X107018403Y-93883379D01*
X107068645Y-94018086D01*
X107068649Y-94018093D01*
X107154809Y-94133187D01*
X107154812Y-94133190D01*
X107269906Y-94219350D01*
X107269913Y-94219354D01*
X107404620Y-94269596D01*
X107404627Y-94269598D01*
X107464155Y-94275999D01*
X107464172Y-94276000D01*
X108462000Y-94276000D01*
X108462000Y-93124482D01*
X108480409Y-93135111D01*
X108633009Y-93176000D01*
X108790991Y-93176000D01*
X108943591Y-93135111D01*
X108962000Y-93124482D01*
X108962000Y-94276000D01*
X109959828Y-94276000D01*
X109959844Y-94275999D01*
X110019372Y-94269598D01*
X110019379Y-94269596D01*
X110154086Y-94219354D01*
X110154093Y-94219350D01*
X110269187Y-94133190D01*
X110269190Y-94133187D01*
X110355350Y-94018093D01*
X110355354Y-94018086D01*
X110405596Y-93883379D01*
X110405598Y-93883372D01*
X110411999Y-93823844D01*
X110412000Y-93823827D01*
X110412000Y-92826000D01*
X109260482Y-92826000D01*
X109271111Y-92807591D01*
X109312000Y-92654991D01*
X109312000Y-92497009D01*
X109271111Y-92344409D01*
X109260482Y-92326000D01*
X110412000Y-92326000D01*
X110412000Y-91716155D01*
X128348000Y-91716155D01*
X128348000Y-92714000D01*
X129499518Y-92714000D01*
X129488889Y-92732409D01*
X129448000Y-92885009D01*
X129448000Y-93042991D01*
X129488889Y-93195591D01*
X129499518Y-93214000D01*
X128348000Y-93214000D01*
X128348000Y-94211844D01*
X128354401Y-94271372D01*
X128354403Y-94271379D01*
X128404645Y-94406086D01*
X128404649Y-94406093D01*
X128490809Y-94521187D01*
X128490812Y-94521190D01*
X128605906Y-94607350D01*
X128605913Y-94607354D01*
X128740620Y-94657596D01*
X128740627Y-94657598D01*
X128800155Y-94663999D01*
X128800172Y-94664000D01*
X129798000Y-94664000D01*
X129798000Y-93512482D01*
X129816409Y-93523111D01*
X129969009Y-93564000D01*
X130126991Y-93564000D01*
X130279591Y-93523111D01*
X130298000Y-93512482D01*
X130298000Y-94664000D01*
X131295828Y-94664000D01*
X131295844Y-94663999D01*
X131355372Y-94657598D01*
X131355379Y-94657596D01*
X131490086Y-94607354D01*
X131490093Y-94607350D01*
X131605187Y-94521190D01*
X131605190Y-94521187D01*
X131691350Y-94406093D01*
X131691354Y-94406086D01*
X131741596Y-94271379D01*
X131741598Y-94271372D01*
X131747999Y-94211844D01*
X131748000Y-94211827D01*
X131748000Y-93214000D01*
X130596482Y-93214000D01*
X130607111Y-93195591D01*
X130648000Y-93042991D01*
X130648000Y-92885009D01*
X130607111Y-92732409D01*
X130596482Y-92714000D01*
X131748000Y-92714000D01*
X131748000Y-91716172D01*
X131747999Y-91716155D01*
X131741598Y-91656627D01*
X131741596Y-91656620D01*
X131691354Y-91521913D01*
X131691350Y-91521906D01*
X131605190Y-91406812D01*
X131605187Y-91406809D01*
X131490093Y-91320649D01*
X131490086Y-91320645D01*
X131355379Y-91270403D01*
X131355372Y-91270401D01*
X131295844Y-91264000D01*
X130298000Y-91264000D01*
X130298000Y-92415517D01*
X130279591Y-92404889D01*
X130126991Y-92364000D01*
X129969009Y-92364000D01*
X129816409Y-92404889D01*
X129798000Y-92415517D01*
X129798000Y-91264000D01*
X128800155Y-91264000D01*
X128740627Y-91270401D01*
X128740620Y-91270403D01*
X128605913Y-91320645D01*
X128605906Y-91320649D01*
X128490812Y-91406809D01*
X128490809Y-91406812D01*
X128404649Y-91521906D01*
X128404645Y-91521913D01*
X128354403Y-91656620D01*
X128354401Y-91656627D01*
X128348000Y-91716155D01*
X110412000Y-91716155D01*
X110412000Y-91328172D01*
X110411999Y-91328155D01*
X110405598Y-91268627D01*
X110405596Y-91268620D01*
X110355354Y-91133913D01*
X110355350Y-91133906D01*
X110269190Y-91018812D01*
X110269187Y-91018809D01*
X110154093Y-90932649D01*
X110154086Y-90932645D01*
X110019379Y-90882403D01*
X110019372Y-90882401D01*
X109959844Y-90876000D01*
X108962000Y-90876000D01*
X108962000Y-92027517D01*
X108943591Y-92016889D01*
X108790991Y-91976000D01*
X108633009Y-91976000D01*
X108480409Y-92016889D01*
X108462000Y-92027517D01*
X108462000Y-90876000D01*
X107464155Y-90876000D01*
X107404627Y-90882401D01*
X107404620Y-90882403D01*
X107269913Y-90932645D01*
X107269906Y-90932649D01*
X107154812Y-91018809D01*
X107154809Y-91018812D01*
X107068649Y-91133906D01*
X107068645Y-91133913D01*
X107018403Y-91268620D01*
X107018401Y-91268627D01*
X107012000Y-91328155D01*
X91000500Y-91328155D01*
X91000499Y-88522128D01*
X90994091Y-88462517D01*
X90943796Y-88327669D01*
X90943795Y-88327668D01*
X90943793Y-88327664D01*
X90857547Y-88212455D01*
X90857544Y-88212452D01*
X90742335Y-88126206D01*
X90742328Y-88126202D01*
X90607482Y-88075908D01*
X90607483Y-88075908D01*
X90547883Y-88069501D01*
X90547881Y-88069500D01*
X90547873Y-88069500D01*
X90547864Y-88069500D01*
X87252129Y-88069500D01*
X87252123Y-88069501D01*
X87192516Y-88075908D01*
X87057671Y-88126202D01*
X87057664Y-88126206D01*
X86942455Y-88212452D01*
X86942452Y-88212455D01*
X86856206Y-88327664D01*
X86856202Y-88327671D01*
X86805908Y-88462517D01*
X86799501Y-88522116D01*
X86799501Y-88522123D01*
X86799500Y-88522135D01*
X76268499Y-88522135D01*
X76268499Y-88522128D01*
X76262091Y-88462517D01*
X76211796Y-88327669D01*
X76211795Y-88327668D01*
X76211793Y-88327664D01*
X76125547Y-88212455D01*
X76125544Y-88212452D01*
X76010335Y-88126206D01*
X76010328Y-88126202D01*
X75875482Y-88075908D01*
X75875483Y-88075908D01*
X75815883Y-88069501D01*
X75815881Y-88069500D01*
X75815873Y-88069500D01*
X75815864Y-88069500D01*
X72520129Y-88069500D01*
X72520123Y-88069501D01*
X72460516Y-88075908D01*
X72325671Y-88126202D01*
X72325664Y-88126206D01*
X72210455Y-88212452D01*
X72210452Y-88212455D01*
X72124206Y-88327664D01*
X72124202Y-88327671D01*
X72073908Y-88462517D01*
X72067501Y-88522116D01*
X72067501Y-88522123D01*
X72067500Y-88522135D01*
X64284445Y-88522135D01*
X64208959Y-88391388D01*
X64050050Y-88192123D01*
X63863217Y-88018768D01*
X63652634Y-87875195D01*
X63652630Y-87875193D01*
X63652627Y-87875191D01*
X63652626Y-87875190D01*
X63423009Y-87764613D01*
X63423006Y-87764612D01*
X63423004Y-87764611D01*
X63333241Y-87736922D01*
X63279122Y-87720229D01*
X63220864Y-87681658D01*
X63192706Y-87617713D01*
X63203590Y-87548697D01*
X63250059Y-87496520D01*
X63279124Y-87483247D01*
X63422822Y-87438922D01*
X63422823Y-87438921D01*
X63652376Y-87328376D01*
X63652377Y-87328375D01*
X63813185Y-87218738D01*
X63011060Y-86416612D01*
X63031591Y-86411111D01*
X63168408Y-86332119D01*
X63280119Y-86220408D01*
X63359111Y-86083591D01*
X63364612Y-86063059D01*
X64166544Y-86864992D01*
X64166546Y-86864991D01*
X64208544Y-86812330D01*
X64335941Y-86591671D01*
X64429026Y-86354494D01*
X64429031Y-86354477D01*
X64485726Y-86106079D01*
X64504767Y-85852004D01*
X64504767Y-85851995D01*
X64485726Y-85597920D01*
X64429031Y-85349522D01*
X64429026Y-85349505D01*
X64335941Y-85112328D01*
X64335942Y-85112328D01*
X64208545Y-84891672D01*
X64166545Y-84839006D01*
X63364612Y-85640939D01*
X63359111Y-85620409D01*
X63280119Y-85483592D01*
X63168408Y-85371881D01*
X63031591Y-85292889D01*
X63011059Y-85287387D01*
X63813185Y-84485260D01*
X63652384Y-84375628D01*
X63652376Y-84375623D01*
X63470876Y-84288219D01*
X63419016Y-84241397D01*
X63400703Y-84173970D01*
X63421750Y-84107346D01*
X63475477Y-84062678D01*
X63524675Y-84052499D01*
X64047872Y-84052499D01*
X64107483Y-84046091D01*
X64242331Y-83995796D01*
X64357546Y-83909546D01*
X64443796Y-83794331D01*
X64494091Y-83659483D01*
X64500500Y-83599873D01*
X64500500Y-82550000D01*
X72062592Y-82550000D01*
X72082201Y-82836680D01*
X72140666Y-83118034D01*
X72140667Y-83118037D01*
X72236894Y-83388793D01*
X72236893Y-83388793D01*
X72369098Y-83643935D01*
X72534812Y-83878700D01*
X72619923Y-83969831D01*
X72730947Y-84088708D01*
X72953853Y-84270055D01*
X73127451Y-84375623D01*
X73199382Y-84419365D01*
X73351090Y-84485260D01*
X73462942Y-84533844D01*
X73739642Y-84611371D01*
X73989920Y-84645771D01*
X74024321Y-84650500D01*
X74024322Y-84650500D01*
X74311679Y-84650500D01*
X74342370Y-84646281D01*
X74596358Y-84611371D01*
X74873058Y-84533844D01*
X74986015Y-84484779D01*
X75136617Y-84419365D01*
X75136620Y-84419363D01*
X75136625Y-84419361D01*
X75382147Y-84270055D01*
X75605053Y-84088708D01*
X75801189Y-83878698D01*
X75966901Y-83643936D01*
X76099104Y-83388797D01*
X76195334Y-83118032D01*
X76253798Y-82836686D01*
X76273408Y-82550000D01*
X86794592Y-82550000D01*
X86814201Y-82836680D01*
X86872666Y-83118034D01*
X86872667Y-83118037D01*
X86968894Y-83388793D01*
X86968893Y-83388793D01*
X87101098Y-83643935D01*
X87266812Y-83878700D01*
X87351923Y-83969831D01*
X87462947Y-84088708D01*
X87685853Y-84270055D01*
X87859451Y-84375623D01*
X87931382Y-84419365D01*
X88083090Y-84485260D01*
X88194942Y-84533844D01*
X88471642Y-84611371D01*
X88721920Y-84645771D01*
X88756321Y-84650500D01*
X88756322Y-84650500D01*
X89043679Y-84650500D01*
X89074370Y-84646281D01*
X89328358Y-84611371D01*
X89605058Y-84533844D01*
X89718015Y-84484779D01*
X89868617Y-84419365D01*
X89868620Y-84419363D01*
X89868625Y-84419361D01*
X90114147Y-84270055D01*
X90337053Y-84088708D01*
X90533189Y-83878698D01*
X90698901Y-83643936D01*
X90831104Y-83388797D01*
X90927334Y-83118032D01*
X90985798Y-82836686D01*
X91005408Y-82550000D01*
X90995695Y-82407995D01*
X153042732Y-82407995D01*
X153042732Y-82408004D01*
X153061777Y-82662154D01*
X153101611Y-82836680D01*
X153118492Y-82910637D01*
X153211607Y-83147888D01*
X153339041Y-83368612D01*
X153497950Y-83567877D01*
X153684783Y-83741232D01*
X153895366Y-83884805D01*
X153895371Y-83884807D01*
X153895372Y-83884808D01*
X153895373Y-83884809D01*
X153946743Y-83909547D01*
X154124992Y-83995387D01*
X154124993Y-83995387D01*
X154124996Y-83995389D01*
X154268876Y-84039770D01*
X154327135Y-84078341D01*
X154355293Y-84142285D01*
X154344409Y-84211302D01*
X154297940Y-84263479D01*
X154268876Y-84276752D01*
X154125175Y-84321078D01*
X153895622Y-84431625D01*
X153895609Y-84431632D01*
X153734813Y-84541259D01*
X154536941Y-85343387D01*
X154516409Y-85348889D01*
X154379592Y-85427881D01*
X154267881Y-85539592D01*
X154188889Y-85676409D01*
X154183387Y-85696941D01*
X153381452Y-84895006D01*
X153339457Y-84947667D01*
X153212058Y-85168328D01*
X153118973Y-85405505D01*
X153118968Y-85405522D01*
X153062273Y-85653920D01*
X153043233Y-85907995D01*
X153043233Y-85908004D01*
X153062273Y-86162079D01*
X153118968Y-86410477D01*
X153118973Y-86410494D01*
X153212058Y-86647671D01*
X153212057Y-86647671D01*
X153339454Y-86868327D01*
X153339461Y-86868338D01*
X153381452Y-86920991D01*
X153381453Y-86920992D01*
X154183387Y-86119058D01*
X154188889Y-86139591D01*
X154267881Y-86276408D01*
X154379592Y-86388119D01*
X154516409Y-86467111D01*
X154536940Y-86472612D01*
X153734813Y-87274738D01*
X153895616Y-87384371D01*
X153895624Y-87384376D01*
X154077123Y-87471780D01*
X154128983Y-87518602D01*
X154147296Y-87586029D01*
X154126249Y-87652653D01*
X154072522Y-87697321D01*
X154023322Y-87707500D01*
X153500129Y-87707500D01*
X153500123Y-87707501D01*
X153440516Y-87713908D01*
X153305671Y-87764202D01*
X153305664Y-87764206D01*
X153190455Y-87850452D01*
X153190452Y-87850455D01*
X153104206Y-87965664D01*
X153104202Y-87965671D01*
X153053908Y-88100517D01*
X153047501Y-88160116D01*
X153047501Y-88160123D01*
X153047500Y-88160135D01*
X153047500Y-90655870D01*
X153047501Y-90655876D01*
X153053908Y-90715483D01*
X153104202Y-90850328D01*
X153104206Y-90850335D01*
X153190452Y-90965544D01*
X153190455Y-90965547D01*
X153305664Y-91051793D01*
X153305671Y-91051797D01*
X153440517Y-91102091D01*
X153440516Y-91102091D01*
X153447444Y-91102835D01*
X153500127Y-91108500D01*
X155995872Y-91108499D01*
X156055483Y-91102091D01*
X156190331Y-91051796D01*
X156305546Y-90965546D01*
X156391796Y-90850331D01*
X156442091Y-90715483D01*
X156448500Y-90655873D01*
X156448499Y-88160128D01*
X156442091Y-88100517D01*
X156432912Y-88075908D01*
X156391797Y-87965671D01*
X156391793Y-87965664D01*
X156305547Y-87850455D01*
X156305544Y-87850452D01*
X156190335Y-87764206D01*
X156190328Y-87764202D01*
X156055482Y-87713908D01*
X156055483Y-87713908D01*
X155995883Y-87707501D01*
X155995881Y-87707500D01*
X155995873Y-87707500D01*
X155995865Y-87707500D01*
X155472679Y-87707500D01*
X155405640Y-87687815D01*
X155359885Y-87635011D01*
X155349941Y-87565853D01*
X155378966Y-87502297D01*
X155418878Y-87471780D01*
X155600376Y-87384376D01*
X155600377Y-87384375D01*
X155761185Y-87274738D01*
X154959060Y-86472612D01*
X154979591Y-86467111D01*
X155116408Y-86388119D01*
X155228119Y-86276408D01*
X155307111Y-86139591D01*
X155312612Y-86119059D01*
X156114544Y-86920992D01*
X156114546Y-86920991D01*
X156156544Y-86868330D01*
X156283941Y-86647671D01*
X156377026Y-86410494D01*
X156377031Y-86410477D01*
X156433726Y-86162079D01*
X156452767Y-85908004D01*
X156452767Y-85907995D01*
X156433726Y-85653920D01*
X156377031Y-85405522D01*
X156377026Y-85405505D01*
X156283941Y-85168328D01*
X156283942Y-85168328D01*
X156156545Y-84947672D01*
X156114545Y-84895006D01*
X155312612Y-85696939D01*
X155307111Y-85676409D01*
X155228119Y-85539592D01*
X155116408Y-85427881D01*
X154979591Y-85348889D01*
X154959059Y-85343387D01*
X155761185Y-84541260D01*
X155600384Y-84431628D01*
X155600376Y-84431623D01*
X155370823Y-84321078D01*
X155370825Y-84321078D01*
X155227123Y-84276752D01*
X155168864Y-84238181D01*
X155140706Y-84174237D01*
X155151590Y-84105220D01*
X155198059Y-84053043D01*
X155227120Y-84039771D01*
X155371004Y-83995389D01*
X155600634Y-83884805D01*
X155811217Y-83741232D01*
X155998050Y-83567877D01*
X156156959Y-83368612D01*
X156284393Y-83147888D01*
X156377508Y-82910637D01*
X156434222Y-82662157D01*
X156453268Y-82408000D01*
X156434222Y-82153843D01*
X156377508Y-81905363D01*
X156284393Y-81668112D01*
X156156959Y-81447388D01*
X155998050Y-81248123D01*
X155811217Y-81074768D01*
X155600634Y-80931195D01*
X155600630Y-80931193D01*
X155600627Y-80931191D01*
X155600626Y-80931190D01*
X155371006Y-80820612D01*
X155371008Y-80820612D01*
X155127466Y-80745489D01*
X155127462Y-80745488D01*
X155127458Y-80745487D01*
X155006231Y-80727214D01*
X154875440Y-80707500D01*
X154875435Y-80707500D01*
X154620565Y-80707500D01*
X154620559Y-80707500D01*
X154463609Y-80731157D01*
X154368542Y-80745487D01*
X154368539Y-80745488D01*
X154368533Y-80745489D01*
X154124992Y-80820612D01*
X153895373Y-80931190D01*
X153895372Y-80931191D01*
X153684782Y-81074768D01*
X153497952Y-81248121D01*
X153497950Y-81248123D01*
X153339041Y-81447388D01*
X153211608Y-81668109D01*
X153118492Y-81905362D01*
X153118490Y-81905369D01*
X153061777Y-82153845D01*
X153042732Y-82407995D01*
X90995695Y-82407995D01*
X90985798Y-82263314D01*
X90927334Y-81981968D01*
X90831105Y-81711206D01*
X90831106Y-81711206D01*
X90698901Y-81456064D01*
X90533187Y-81221299D01*
X90423751Y-81104123D01*
X90337053Y-81011292D01*
X90114147Y-80829945D01*
X90114146Y-80829944D01*
X89868617Y-80680634D01*
X89605063Y-80566158D01*
X89605061Y-80566157D01*
X89605058Y-80566156D01*
X89475578Y-80529877D01*
X89328364Y-80488630D01*
X89328359Y-80488629D01*
X89328358Y-80488629D01*
X89186018Y-80469064D01*
X89043679Y-80449500D01*
X89043678Y-80449500D01*
X88756322Y-80449500D01*
X88756321Y-80449500D01*
X88471642Y-80488629D01*
X88471635Y-80488630D01*
X88263861Y-80546845D01*
X88194942Y-80566156D01*
X88194939Y-80566156D01*
X88194936Y-80566158D01*
X88194935Y-80566158D01*
X87931382Y-80680634D01*
X87685853Y-80829944D01*
X87462950Y-81011289D01*
X87266812Y-81221299D01*
X87101098Y-81456064D01*
X86968894Y-81711206D01*
X86872667Y-81981962D01*
X86872666Y-81981965D01*
X86814201Y-82263319D01*
X86794592Y-82550000D01*
X76273408Y-82550000D01*
X76253798Y-82263314D01*
X76195334Y-81981968D01*
X76099105Y-81711206D01*
X76099106Y-81711206D01*
X75966901Y-81456064D01*
X75801187Y-81221299D01*
X75691751Y-81104123D01*
X75605053Y-81011292D01*
X75382147Y-80829945D01*
X75382146Y-80829944D01*
X75136617Y-80680634D01*
X74873063Y-80566158D01*
X74873061Y-80566157D01*
X74873058Y-80566156D01*
X74743578Y-80529877D01*
X74596364Y-80488630D01*
X74596359Y-80488629D01*
X74596358Y-80488629D01*
X74454018Y-80469064D01*
X74311679Y-80449500D01*
X74311678Y-80449500D01*
X74024322Y-80449500D01*
X74024321Y-80449500D01*
X73739642Y-80488629D01*
X73739635Y-80488630D01*
X73531861Y-80546845D01*
X73462942Y-80566156D01*
X73462939Y-80566156D01*
X73462936Y-80566158D01*
X73462935Y-80566158D01*
X73199382Y-80680634D01*
X72953853Y-80829944D01*
X72730950Y-81011289D01*
X72534812Y-81221299D01*
X72369098Y-81456064D01*
X72236894Y-81711206D01*
X72140667Y-81981962D01*
X72140666Y-81981965D01*
X72082201Y-82263319D01*
X72062592Y-82550000D01*
X64500500Y-82550000D01*
X64500499Y-81104128D01*
X64494091Y-81044517D01*
X64443796Y-80909669D01*
X64443795Y-80909668D01*
X64443793Y-80909664D01*
X64357547Y-80794455D01*
X64357544Y-80794452D01*
X64242335Y-80708206D01*
X64242328Y-80708202D01*
X64107482Y-80657908D01*
X64107483Y-80657908D01*
X64047883Y-80651501D01*
X64047881Y-80651500D01*
X64047873Y-80651500D01*
X64047864Y-80651500D01*
X61552129Y-80651500D01*
X61552123Y-80651501D01*
X61492516Y-80657908D01*
X61357671Y-80708202D01*
X61357664Y-80708206D01*
X61242455Y-80794452D01*
X61242452Y-80794455D01*
X61156206Y-80909664D01*
X61156202Y-80909671D01*
X61105908Y-81044517D01*
X61099501Y-81104116D01*
X61099501Y-81104123D01*
X61099500Y-81104135D01*
X61099500Y-83599870D01*
X61099501Y-83599876D01*
X61105908Y-83659483D01*
X61156202Y-83794328D01*
X61156206Y-83794335D01*
X61242452Y-83909544D01*
X61242455Y-83909547D01*
X61357664Y-83995793D01*
X61357671Y-83995797D01*
X61492517Y-84046091D01*
X61492516Y-84046091D01*
X61499444Y-84046835D01*
X61552127Y-84052500D01*
X62075323Y-84052499D01*
X62142360Y-84072183D01*
X62188115Y-84124987D01*
X62198059Y-84194146D01*
X62169034Y-84257702D01*
X62129123Y-84288219D01*
X61947617Y-84375627D01*
X61947609Y-84375632D01*
X61786813Y-84485259D01*
X62588941Y-85287387D01*
X62568409Y-85292889D01*
X62431592Y-85371881D01*
X62319881Y-85483592D01*
X62240889Y-85620409D01*
X62235387Y-85640941D01*
X61433452Y-84839006D01*
X61391457Y-84891667D01*
X61264058Y-85112328D01*
X61170973Y-85349505D01*
X61170968Y-85349522D01*
X61114273Y-85597920D01*
X61095233Y-85851995D01*
X61095233Y-85852004D01*
X61114273Y-86106079D01*
X61170968Y-86354477D01*
X61170973Y-86354494D01*
X61264058Y-86591671D01*
X61264057Y-86591671D01*
X61391454Y-86812327D01*
X61391461Y-86812338D01*
X61433452Y-86864991D01*
X61433453Y-86864992D01*
X62235387Y-86063058D01*
X62240889Y-86083591D01*
X62319881Y-86220408D01*
X62431592Y-86332119D01*
X62568409Y-86411111D01*
X62588940Y-86416612D01*
X61786813Y-87218738D01*
X61947616Y-87328371D01*
X61947624Y-87328376D01*
X62177175Y-87438921D01*
X62320876Y-87483247D01*
X62379135Y-87521817D01*
X62407292Y-87585762D01*
X62396409Y-87654779D01*
X62349941Y-87706955D01*
X62320877Y-87720229D01*
X62206260Y-87755583D01*
X62178316Y-87764204D01*
X62176990Y-87764613D01*
X61947373Y-87875190D01*
X61947372Y-87875191D01*
X61736782Y-88018768D01*
X61549952Y-88192121D01*
X61549950Y-88192123D01*
X61391041Y-88391388D01*
X61263608Y-88612109D01*
X61170492Y-88849362D01*
X61170490Y-88849369D01*
X61113777Y-89097845D01*
X61094732Y-89351995D01*
X56896000Y-89351995D01*
X56896000Y-79755995D01*
X107007233Y-79755995D01*
X107007233Y-79756004D01*
X107026273Y-80010079D01*
X107082968Y-80258477D01*
X107082973Y-80258494D01*
X107176058Y-80495671D01*
X107176057Y-80495671D01*
X107303454Y-80716327D01*
X107303461Y-80716338D01*
X107345452Y-80768991D01*
X107345453Y-80768992D01*
X108147387Y-79967058D01*
X108152889Y-79987591D01*
X108231881Y-80124408D01*
X108343592Y-80236119D01*
X108480409Y-80315111D01*
X108500940Y-80320612D01*
X107698813Y-81122738D01*
X107859616Y-81232371D01*
X107859624Y-81232376D01*
X108089176Y-81342921D01*
X108089174Y-81342921D01*
X108332652Y-81418024D01*
X108332658Y-81418026D01*
X108584595Y-81455999D01*
X108584604Y-81456000D01*
X108839396Y-81456000D01*
X108839404Y-81455999D01*
X109091341Y-81418026D01*
X109091347Y-81418024D01*
X109334824Y-81342921D01*
X109564376Y-81232376D01*
X109564377Y-81232375D01*
X109725185Y-81122738D01*
X108923060Y-80320612D01*
X108943591Y-80315111D01*
X109080408Y-80236119D01*
X109192119Y-80124408D01*
X109271111Y-79987591D01*
X109276612Y-79967059D01*
X110078545Y-80768992D01*
X110078546Y-80768991D01*
X110120544Y-80716330D01*
X110247941Y-80495671D01*
X110341026Y-80258494D01*
X110341031Y-80258477D01*
X110397726Y-80010079D01*
X110416767Y-79756004D01*
X110416767Y-79755995D01*
X128343233Y-79755995D01*
X128343233Y-79756004D01*
X128362273Y-80010079D01*
X128418968Y-80258477D01*
X128418973Y-80258494D01*
X128512058Y-80495671D01*
X128512057Y-80495671D01*
X128639454Y-80716327D01*
X128639461Y-80716338D01*
X128681452Y-80768991D01*
X128681453Y-80768992D01*
X129483387Y-79967058D01*
X129488889Y-79987591D01*
X129567881Y-80124408D01*
X129679592Y-80236119D01*
X129816409Y-80315111D01*
X129836940Y-80320612D01*
X129034813Y-81122738D01*
X129195616Y-81232371D01*
X129195624Y-81232376D01*
X129425176Y-81342921D01*
X129425174Y-81342921D01*
X129668652Y-81418024D01*
X129668658Y-81418026D01*
X129920595Y-81455999D01*
X129920604Y-81456000D01*
X130175396Y-81456000D01*
X130175404Y-81455999D01*
X130427341Y-81418026D01*
X130427347Y-81418024D01*
X130670824Y-81342921D01*
X130900376Y-81232376D01*
X130900377Y-81232375D01*
X131061185Y-81122738D01*
X130259060Y-80320612D01*
X130279591Y-80315111D01*
X130416408Y-80236119D01*
X130528119Y-80124408D01*
X130607111Y-79987591D01*
X130612612Y-79967059D01*
X131414545Y-80768992D01*
X131414546Y-80768991D01*
X131456544Y-80716330D01*
X131583941Y-80495671D01*
X131677026Y-80258494D01*
X131677031Y-80258477D01*
X131733726Y-80010079D01*
X131752767Y-79756004D01*
X131752767Y-79755995D01*
X131733726Y-79501920D01*
X131677031Y-79253522D01*
X131677026Y-79253505D01*
X131583941Y-79016328D01*
X131583942Y-79016328D01*
X131456545Y-78795672D01*
X131414545Y-78743006D01*
X130612612Y-79544939D01*
X130607111Y-79524409D01*
X130528119Y-79387592D01*
X130416408Y-79275881D01*
X130279591Y-79196889D01*
X130259059Y-79191387D01*
X131061185Y-78389260D01*
X130900384Y-78279628D01*
X130900376Y-78279623D01*
X130670823Y-78169078D01*
X130670825Y-78169078D01*
X130427347Y-78093975D01*
X130427341Y-78093973D01*
X130175404Y-78056000D01*
X129920595Y-78056000D01*
X129668658Y-78093973D01*
X129668652Y-78093975D01*
X129425175Y-78169078D01*
X129195622Y-78279625D01*
X129195609Y-78279632D01*
X129034813Y-78389259D01*
X129836941Y-79191387D01*
X129816409Y-79196889D01*
X129679592Y-79275881D01*
X129567881Y-79387592D01*
X129488889Y-79524409D01*
X129483387Y-79544940D01*
X128681452Y-78743006D01*
X128639457Y-78795667D01*
X128512058Y-79016328D01*
X128418973Y-79253505D01*
X128418968Y-79253522D01*
X128362273Y-79501920D01*
X128343233Y-79755995D01*
X110416767Y-79755995D01*
X110397726Y-79501920D01*
X110341031Y-79253522D01*
X110341026Y-79253505D01*
X110247941Y-79016328D01*
X110247942Y-79016328D01*
X110120545Y-78795672D01*
X110078545Y-78743006D01*
X109276612Y-79544939D01*
X109271111Y-79524409D01*
X109192119Y-79387592D01*
X109080408Y-79275881D01*
X108943591Y-79196889D01*
X108923059Y-79191387D01*
X109725185Y-78389260D01*
X109564384Y-78279628D01*
X109564376Y-78279623D01*
X109334823Y-78169078D01*
X109334825Y-78169078D01*
X109091347Y-78093975D01*
X109091341Y-78093973D01*
X108839404Y-78056000D01*
X108584595Y-78056000D01*
X108332658Y-78093973D01*
X108332652Y-78093975D01*
X108089175Y-78169078D01*
X107859622Y-78279625D01*
X107859609Y-78279632D01*
X107698813Y-78389259D01*
X108500941Y-79191387D01*
X108480409Y-79196889D01*
X108343592Y-79275881D01*
X108231881Y-79387592D01*
X108152889Y-79524409D01*
X108147387Y-79544940D01*
X107345452Y-78743006D01*
X107303457Y-78795667D01*
X107176058Y-79016328D01*
X107082973Y-79253505D01*
X107082968Y-79253522D01*
X107026273Y-79501920D01*
X107007233Y-79755995D01*
X56896000Y-79755995D01*
X56896000Y-66314997D01*
X57655153Y-66314997D01*
X57655153Y-66315002D01*
X57674526Y-66672314D01*
X57674527Y-66672331D01*
X57732415Y-67025431D01*
X57732421Y-67025457D01*
X57828147Y-67370232D01*
X57828149Y-67370239D01*
X57960597Y-67702659D01*
X57960606Y-67702677D01*
X58128218Y-68018827D01*
X58329024Y-68314994D01*
X58329035Y-68315008D01*
X58456441Y-68465002D01*
X58456442Y-68465002D01*
X59665747Y-67255697D01*
X59739588Y-67357330D01*
X59917670Y-67535412D01*
X60019300Y-67609251D01*
X58807257Y-68821294D01*
X58820495Y-68833836D01*
X59105367Y-69050388D01*
X59105370Y-69050390D01*
X59411990Y-69234876D01*
X59736739Y-69385122D01*
X59736744Y-69385123D01*
X60075855Y-69499383D01*
X60425339Y-69576311D01*
X60781075Y-69614999D01*
X60781085Y-69615000D01*
X61138915Y-69615000D01*
X61138924Y-69614999D01*
X61494660Y-69576311D01*
X61844144Y-69499383D01*
X62183255Y-69385123D01*
X62183260Y-69385122D01*
X62508009Y-69234876D01*
X62814629Y-69050390D01*
X62814632Y-69050388D01*
X63099509Y-68833831D01*
X63112742Y-68821295D01*
X63112742Y-68821294D01*
X61900699Y-67609251D01*
X62002330Y-67535412D01*
X62180412Y-67357330D01*
X62254251Y-67255698D01*
X63463556Y-68465002D01*
X63590972Y-68314998D01*
X63590975Y-68314994D01*
X63667495Y-68202135D01*
X72067500Y-68202135D01*
X72067500Y-71497870D01*
X72067501Y-71497876D01*
X72073908Y-71557483D01*
X72124202Y-71692328D01*
X72124206Y-71692335D01*
X72210452Y-71807544D01*
X72210455Y-71807547D01*
X72325664Y-71893793D01*
X72325671Y-71893797D01*
X72460517Y-71944091D01*
X72460516Y-71944091D01*
X72467444Y-71944835D01*
X72520127Y-71950500D01*
X75815872Y-71950499D01*
X75875483Y-71944091D01*
X76010331Y-71893796D01*
X76125546Y-71807546D01*
X76211796Y-71692331D01*
X76262091Y-71557483D01*
X76268500Y-71497873D01*
X76268499Y-68202135D01*
X86799500Y-68202135D01*
X86799500Y-71497870D01*
X86799501Y-71497876D01*
X86805908Y-71557483D01*
X86856202Y-71692328D01*
X86856206Y-71692335D01*
X86942452Y-71807544D01*
X86942455Y-71807547D01*
X87057664Y-71893793D01*
X87057671Y-71893797D01*
X87192517Y-71944091D01*
X87192516Y-71944091D01*
X87199444Y-71944835D01*
X87252127Y-71950500D01*
X90547872Y-71950499D01*
X90607483Y-71944091D01*
X90742331Y-71893796D01*
X90857546Y-71807546D01*
X90943796Y-71692331D01*
X90994091Y-71557483D01*
X91000500Y-71497873D01*
X91000500Y-71008135D01*
X107011500Y-71008135D01*
X107011500Y-73503870D01*
X107011501Y-73503876D01*
X107017908Y-73563483D01*
X107068202Y-73698328D01*
X107068206Y-73698335D01*
X107154452Y-73813544D01*
X107154455Y-73813547D01*
X107269664Y-73899793D01*
X107269671Y-73899797D01*
X107404517Y-73950091D01*
X107404516Y-73950091D01*
X107411444Y-73950835D01*
X107464127Y-73956500D01*
X109959872Y-73956499D01*
X110019483Y-73950091D01*
X110154331Y-73899796D01*
X110269546Y-73813546D01*
X110355796Y-73698331D01*
X110406091Y-73563483D01*
X110412500Y-73503873D01*
X110412499Y-71008135D01*
X128347500Y-71008135D01*
X128347500Y-73503870D01*
X128347501Y-73503876D01*
X128353908Y-73563483D01*
X128404202Y-73698328D01*
X128404206Y-73698335D01*
X128490452Y-73813544D01*
X128490455Y-73813547D01*
X128605664Y-73899793D01*
X128605671Y-73899797D01*
X128740517Y-73950091D01*
X128740516Y-73950091D01*
X128747444Y-73950835D01*
X128800127Y-73956500D01*
X131295872Y-73956499D01*
X131355483Y-73950091D01*
X131490331Y-73899796D01*
X131605546Y-73813546D01*
X131691796Y-73698331D01*
X131742091Y-73563483D01*
X131748500Y-73503873D01*
X131748499Y-71008128D01*
X131742091Y-70948517D01*
X131738032Y-70937635D01*
X131691797Y-70813671D01*
X131691793Y-70813664D01*
X131605547Y-70698455D01*
X131605544Y-70698452D01*
X131490335Y-70612206D01*
X131490328Y-70612202D01*
X131355482Y-70561908D01*
X131355483Y-70561908D01*
X131295883Y-70555501D01*
X131295881Y-70555500D01*
X131295873Y-70555500D01*
X131295864Y-70555500D01*
X128800129Y-70555500D01*
X128800123Y-70555501D01*
X128740516Y-70561908D01*
X128605671Y-70612202D01*
X128605664Y-70612206D01*
X128490455Y-70698452D01*
X128490452Y-70698455D01*
X128404206Y-70813664D01*
X128404202Y-70813671D01*
X128353908Y-70948517D01*
X128347501Y-71008116D01*
X128347501Y-71008123D01*
X128347500Y-71008135D01*
X110412499Y-71008135D01*
X110412499Y-71008128D01*
X110406091Y-70948517D01*
X110402032Y-70937635D01*
X110355797Y-70813671D01*
X110355793Y-70813664D01*
X110269547Y-70698455D01*
X110269544Y-70698452D01*
X110154335Y-70612206D01*
X110154328Y-70612202D01*
X110019482Y-70561908D01*
X110019483Y-70561908D01*
X109959883Y-70555501D01*
X109959881Y-70555500D01*
X109959873Y-70555500D01*
X109959864Y-70555500D01*
X107464129Y-70555500D01*
X107464123Y-70555501D01*
X107404516Y-70561908D01*
X107269671Y-70612202D01*
X107269664Y-70612206D01*
X107154455Y-70698452D01*
X107154452Y-70698455D01*
X107068206Y-70813664D01*
X107068202Y-70813671D01*
X107017908Y-70948517D01*
X107011501Y-71008116D01*
X107011501Y-71008123D01*
X107011500Y-71008135D01*
X91000500Y-71008135D01*
X91000500Y-69651998D01*
X143198532Y-69651998D01*
X143198532Y-69652001D01*
X143218364Y-69878686D01*
X143218366Y-69878697D01*
X143277258Y-70098488D01*
X143277261Y-70098497D01*
X143373431Y-70304732D01*
X143373432Y-70304734D01*
X143503954Y-70491141D01*
X143664858Y-70652045D01*
X143664861Y-70652047D01*
X143851266Y-70782568D01*
X144057504Y-70878739D01*
X144277308Y-70937635D01*
X144439230Y-70951801D01*
X144503998Y-70957468D01*
X144504000Y-70957468D01*
X144504002Y-70957468D01*
X144560673Y-70952509D01*
X144730692Y-70937635D01*
X144950496Y-70878739D01*
X145156734Y-70782568D01*
X145343139Y-70652047D01*
X145504047Y-70491139D01*
X145634568Y-70304734D01*
X145730739Y-70098496D01*
X145789635Y-69878692D01*
X145809468Y-69652000D01*
X145809468Y-69651997D01*
X148199034Y-69651997D01*
X148199034Y-69652002D01*
X148218858Y-69878599D01*
X148218860Y-69878610D01*
X148277730Y-70098317D01*
X148277735Y-70098331D01*
X148373863Y-70304478D01*
X148424974Y-70377472D01*
X149104000Y-69698446D01*
X149104000Y-69704661D01*
X149131259Y-69806394D01*
X149183920Y-69897606D01*
X149258394Y-69972080D01*
X149349606Y-70024741D01*
X149451339Y-70052000D01*
X149457553Y-70052000D01*
X148778526Y-70731025D01*
X148851513Y-70782132D01*
X148851521Y-70782136D01*
X149057668Y-70878264D01*
X149057682Y-70878269D01*
X149277389Y-70937139D01*
X149277400Y-70937141D01*
X149503998Y-70956966D01*
X149504002Y-70956966D01*
X149730599Y-70937141D01*
X149730610Y-70937139D01*
X149950317Y-70878269D01*
X149950331Y-70878264D01*
X150156478Y-70782136D01*
X150229471Y-70731024D01*
X149550447Y-70052000D01*
X149556661Y-70052000D01*
X149658394Y-70024741D01*
X149749606Y-69972080D01*
X149824080Y-69897606D01*
X149876741Y-69806394D01*
X149904000Y-69704661D01*
X149904000Y-69698447D01*
X150583024Y-70377471D01*
X150634136Y-70304478D01*
X150730264Y-70098331D01*
X150730269Y-70098317D01*
X150789139Y-69878610D01*
X150789141Y-69878599D01*
X150808966Y-69652002D01*
X150808966Y-69651997D01*
X150789141Y-69425400D01*
X150789139Y-69425389D01*
X150730269Y-69205682D01*
X150730264Y-69205668D01*
X150634136Y-68999521D01*
X150634132Y-68999513D01*
X150583025Y-68926526D01*
X149904000Y-69605551D01*
X149904000Y-69599339D01*
X149876741Y-69497606D01*
X149824080Y-69406394D01*
X149749606Y-69331920D01*
X149658394Y-69279259D01*
X149556661Y-69252000D01*
X149550448Y-69252000D01*
X150229472Y-68572974D01*
X150156478Y-68521863D01*
X149950331Y-68425735D01*
X149950317Y-68425730D01*
X149730610Y-68366860D01*
X149730599Y-68366858D01*
X149504002Y-68347034D01*
X149503998Y-68347034D01*
X149277400Y-68366858D01*
X149277389Y-68366860D01*
X149057682Y-68425730D01*
X149057673Y-68425734D01*
X148851516Y-68521866D01*
X148851512Y-68521868D01*
X148778526Y-68572973D01*
X148778526Y-68572974D01*
X149457553Y-69252000D01*
X149451339Y-69252000D01*
X149349606Y-69279259D01*
X149258394Y-69331920D01*
X149183920Y-69406394D01*
X149131259Y-69497606D01*
X149104000Y-69599339D01*
X149104000Y-69605552D01*
X148424974Y-68926526D01*
X148424973Y-68926526D01*
X148373868Y-68999512D01*
X148373866Y-68999516D01*
X148277734Y-69205673D01*
X148277730Y-69205682D01*
X148218860Y-69425389D01*
X148218858Y-69425400D01*
X148199034Y-69651997D01*
X145809468Y-69651997D01*
X145789635Y-69425308D01*
X145730739Y-69205504D01*
X145634568Y-68999266D01*
X145517020Y-68831388D01*
X145504045Y-68812858D01*
X145343141Y-68651954D01*
X145156734Y-68521432D01*
X145156732Y-68521431D01*
X144950497Y-68425261D01*
X144950488Y-68425258D01*
X144730697Y-68366366D01*
X144730693Y-68366365D01*
X144730692Y-68366365D01*
X144730691Y-68366364D01*
X144730686Y-68366364D01*
X144504002Y-68346532D01*
X144503998Y-68346532D01*
X144277313Y-68366364D01*
X144277302Y-68366366D01*
X144057511Y-68425258D01*
X144057502Y-68425261D01*
X143851267Y-68521431D01*
X143851265Y-68521432D01*
X143664858Y-68651954D01*
X143503954Y-68812858D01*
X143373432Y-68999265D01*
X143373431Y-68999267D01*
X143277261Y-69205502D01*
X143277258Y-69205511D01*
X143218366Y-69425302D01*
X143218364Y-69425313D01*
X143198532Y-69651998D01*
X91000500Y-69651998D01*
X91000499Y-68202128D01*
X90994091Y-68142517D01*
X90976744Y-68096008D01*
X90943797Y-68007671D01*
X90943793Y-68007664D01*
X90857547Y-67892455D01*
X90857544Y-67892452D01*
X90742335Y-67806206D01*
X90742328Y-67806202D01*
X90607482Y-67755908D01*
X90607483Y-67755908D01*
X90547883Y-67749501D01*
X90547881Y-67749500D01*
X90547873Y-67749500D01*
X90547864Y-67749500D01*
X87252129Y-67749500D01*
X87252123Y-67749501D01*
X87192516Y-67755908D01*
X87057671Y-67806202D01*
X87057664Y-67806206D01*
X86942455Y-67892452D01*
X86942452Y-67892455D01*
X86856206Y-68007664D01*
X86856202Y-68007671D01*
X86805908Y-68142517D01*
X86799501Y-68202116D01*
X86799501Y-68202123D01*
X86799500Y-68202135D01*
X76268499Y-68202135D01*
X76268499Y-68202128D01*
X76262091Y-68142517D01*
X76244744Y-68096008D01*
X76211797Y-68007671D01*
X76211793Y-68007664D01*
X76125547Y-67892455D01*
X76125544Y-67892452D01*
X76010335Y-67806206D01*
X76010328Y-67806202D01*
X75875482Y-67755908D01*
X75875483Y-67755908D01*
X75815883Y-67749501D01*
X75815881Y-67749500D01*
X75815873Y-67749500D01*
X75815864Y-67749500D01*
X72520129Y-67749500D01*
X72520123Y-67749501D01*
X72460516Y-67755908D01*
X72325671Y-67806202D01*
X72325664Y-67806206D01*
X72210455Y-67892452D01*
X72210452Y-67892455D01*
X72124206Y-68007664D01*
X72124202Y-68007671D01*
X72073908Y-68142517D01*
X72067501Y-68202116D01*
X72067501Y-68202123D01*
X72067500Y-68202135D01*
X63667495Y-68202135D01*
X63791781Y-68018827D01*
X63959393Y-67702677D01*
X63959402Y-67702659D01*
X64091850Y-67370239D01*
X64091852Y-67370232D01*
X64187578Y-67025457D01*
X64187584Y-67025431D01*
X64245472Y-66672331D01*
X64245473Y-66672314D01*
X64264847Y-66315002D01*
X64264847Y-66314997D01*
X64252972Y-66095997D01*
X151827153Y-66095997D01*
X151827153Y-66096002D01*
X151846526Y-66453314D01*
X151846527Y-66453331D01*
X151904415Y-66806431D01*
X151904421Y-66806457D01*
X152000147Y-67151232D01*
X152000149Y-67151239D01*
X152132597Y-67483659D01*
X152132606Y-67483677D01*
X152300218Y-67799827D01*
X152501024Y-68095994D01*
X152501035Y-68096008D01*
X152628441Y-68246002D01*
X152628442Y-68246002D01*
X153837747Y-67036697D01*
X153911588Y-67138330D01*
X154089670Y-67316412D01*
X154191300Y-67390251D01*
X152979257Y-68602294D01*
X152992495Y-68614836D01*
X153277367Y-68831388D01*
X153277370Y-68831390D01*
X153583990Y-69015876D01*
X153908739Y-69166122D01*
X153908744Y-69166123D01*
X154247855Y-69280383D01*
X154597339Y-69357311D01*
X154953075Y-69395999D01*
X154953085Y-69396000D01*
X155310915Y-69396000D01*
X155310924Y-69395999D01*
X155666660Y-69357311D01*
X156016144Y-69280383D01*
X156355255Y-69166123D01*
X156355260Y-69166122D01*
X156680009Y-69015876D01*
X156986629Y-68831390D01*
X156986632Y-68831388D01*
X157271509Y-68614831D01*
X157284742Y-68602295D01*
X157284742Y-68602294D01*
X156072699Y-67390251D01*
X156174330Y-67316412D01*
X156352412Y-67138330D01*
X156426251Y-67036698D01*
X157635556Y-68246002D01*
X157762972Y-68095998D01*
X157762975Y-68095994D01*
X157963781Y-67799827D01*
X158131393Y-67483677D01*
X158131402Y-67483659D01*
X158263850Y-67151239D01*
X158263852Y-67151232D01*
X158359578Y-66806457D01*
X158359584Y-66806431D01*
X158417472Y-66453331D01*
X158417473Y-66453314D01*
X158436847Y-66096002D01*
X158436847Y-66095997D01*
X158417473Y-65738685D01*
X158417472Y-65738668D01*
X158359584Y-65385568D01*
X158359578Y-65385542D01*
X158263852Y-65040767D01*
X158263850Y-65040760D01*
X158131402Y-64708340D01*
X158131393Y-64708322D01*
X157963781Y-64392172D01*
X157762975Y-64096005D01*
X157762964Y-64095991D01*
X157635556Y-63945996D01*
X156426251Y-65155301D01*
X156352412Y-65053670D01*
X156174330Y-64875588D01*
X156072698Y-64801748D01*
X157284742Y-63589704D01*
X157271504Y-63577163D01*
X156986632Y-63360611D01*
X156986629Y-63360609D01*
X156680009Y-63176123D01*
X156355260Y-63025877D01*
X156355255Y-63025876D01*
X156016144Y-62911616D01*
X155666660Y-62834688D01*
X155310924Y-62796000D01*
X154953075Y-62796000D01*
X154597339Y-62834688D01*
X154247855Y-62911616D01*
X153908744Y-63025876D01*
X153908739Y-63025877D01*
X153583990Y-63176123D01*
X153277370Y-63360609D01*
X153277367Y-63360611D01*
X152992486Y-63577170D01*
X152992485Y-63577171D01*
X152979257Y-63589702D01*
X152979256Y-63589703D01*
X154191301Y-64801748D01*
X154089670Y-64875588D01*
X153911588Y-65053670D01*
X153837748Y-65155301D01*
X152628442Y-63945995D01*
X152628441Y-63945996D01*
X152501033Y-64095992D01*
X152300218Y-64392172D01*
X152132606Y-64708322D01*
X152132597Y-64708340D01*
X152000149Y-65040760D01*
X152000147Y-65040767D01*
X151904421Y-65385542D01*
X151904415Y-65385568D01*
X151846527Y-65738668D01*
X151846526Y-65738685D01*
X151827153Y-66095997D01*
X64252972Y-66095997D01*
X64245473Y-65957685D01*
X64245472Y-65957668D01*
X64187584Y-65604568D01*
X64187578Y-65604542D01*
X64091852Y-65259767D01*
X64091850Y-65259760D01*
X63959402Y-64927340D01*
X63959393Y-64927322D01*
X63791781Y-64611172D01*
X63590975Y-64315005D01*
X63590964Y-64314991D01*
X63463556Y-64164996D01*
X62254251Y-65374301D01*
X62180412Y-65272670D01*
X62002330Y-65094588D01*
X61900698Y-65020748D01*
X63112742Y-63808704D01*
X63099504Y-63796163D01*
X62814632Y-63579611D01*
X62814629Y-63579609D01*
X62508009Y-63395123D01*
X62183260Y-63244877D01*
X62183255Y-63244876D01*
X61844144Y-63130616D01*
X61494660Y-63053688D01*
X61138924Y-63015000D01*
X60781075Y-63015000D01*
X60425339Y-63053688D01*
X60075855Y-63130616D01*
X59736744Y-63244876D01*
X59736739Y-63244877D01*
X59411990Y-63395123D01*
X59105370Y-63579609D01*
X59105367Y-63579611D01*
X58820486Y-63796170D01*
X58820485Y-63796171D01*
X58807257Y-63808702D01*
X58807256Y-63808703D01*
X60019301Y-65020748D01*
X59917670Y-65094588D01*
X59739588Y-65272670D01*
X59665748Y-65374301D01*
X58456442Y-64164995D01*
X58456441Y-64164996D01*
X58329033Y-64314992D01*
X58128218Y-64611172D01*
X57960606Y-64927322D01*
X57960597Y-64927340D01*
X57828149Y-65259760D01*
X57828147Y-65259767D01*
X57732421Y-65604542D01*
X57732415Y-65604568D01*
X57674527Y-65957668D01*
X57674526Y-65957685D01*
X57655153Y-66314997D01*
X56896000Y-66314997D01*
X56896000Y-65233480D01*
X56896195Y-65226528D01*
X56906627Y-65040760D01*
X56914473Y-64901048D01*
X56916027Y-64887253D01*
X56970049Y-64569299D01*
X56973143Y-64555747D01*
X57020269Y-64392172D01*
X57062424Y-64245847D01*
X57067016Y-64232727D01*
X57123653Y-64095992D01*
X57190430Y-63934775D01*
X57196452Y-63922269D01*
X57352467Y-63639983D01*
X57359854Y-63628228D01*
X57546482Y-63365201D01*
X57555128Y-63354358D01*
X57770049Y-63113861D01*
X57779861Y-63104049D01*
X58020358Y-62889128D01*
X58031201Y-62880482D01*
X58294228Y-62693854D01*
X58305983Y-62686467D01*
X58588269Y-62530452D01*
X58600775Y-62524430D01*
X58898727Y-62401016D01*
X58911847Y-62396424D01*
X59221753Y-62307141D01*
X59235299Y-62304049D01*
X59553253Y-62250027D01*
X59567048Y-62248473D01*
X59855283Y-62232286D01*
X59892529Y-62230195D01*
X59899481Y-62230000D01*
X157524519Y-62230000D01*
X157531471Y-62230195D01*
G37*
%TD.AperFunction*%
%TD*%
M02*
