%TF.GenerationSoftware,KiCad,Pcbnew,8.0.4*%
%TF.CreationDate,2024-09-02T08:35:19-04:00*%
%TF.ProjectId,power_supply,706f7765-725f-4737-9570-706c792e6b69,rev?*%
%TF.SameCoordinates,Original*%
%TF.FileFunction,Copper,L2,Bot*%
%TF.FilePolarity,Positive*%
%FSLAX46Y46*%
G04 Gerber Fmt 4.6, Leading zero omitted, Abs format (unit mm)*
G04 Created by KiCad (PCBNEW 8.0.4) date 2024-09-02 08:35:19*
%MOMM*%
%LPD*%
G01*
G04 APERTURE LIST*
%TA.AperFunction,ComponentPad*%
%ADD10C,1.600000*%
%TD*%
%TA.AperFunction,ComponentPad*%
%ADD11C,5.600000*%
%TD*%
%TA.AperFunction,ComponentPad*%
%ADD12R,2.400000X2.400000*%
%TD*%
%TA.AperFunction,ComponentPad*%
%ADD13C,2.400000*%
%TD*%
%TA.AperFunction,ComponentPad*%
%ADD14R,3.200000X3.200000*%
%TD*%
%TA.AperFunction,ComponentPad*%
%ADD15O,3.200000X3.200000*%
%TD*%
G04 APERTURE END LIST*
D10*
%TO.P,C4,1*%
%TO.N,GND*%
X126452000Y-102108000D03*
%TO.P,C4,2*%
%TO.N,/V-*%
X121452000Y-102108000D03*
%TD*%
D11*
%TO.P,REF\u002A\u002A,1*%
%TO.N,GND*%
X132080000Y-104648000D03*
%TD*%
D12*
%TO.P,C2,1*%
%TO.N,GND*%
X108712000Y-92576000D03*
D13*
%TO.P,C2,2*%
%TO.N,/V-*%
X108712000Y-100076000D03*
%TD*%
D14*
%TO.P,D4,1,K*%
%TO.N,/AC1*%
X88900000Y-90170000D03*
D15*
%TO.P,D4,2,A*%
%TO.N,/V-*%
X88900000Y-102870000D03*
%TD*%
D11*
%TO.P,REF\u002A\u002A,1*%
%TO.N,GND*%
X60960000Y-66315000D03*
%TD*%
D14*
%TO.P,D3,1,K*%
%TO.N,/V+*%
X74168000Y-69850000D03*
D15*
%TO.P,D3,2,A*%
%TO.N,/AC2*%
X74168000Y-82550000D03*
%TD*%
D11*
%TO.P,REF\u002A\u002A,1*%
%TO.N,GND*%
X60960000Y-104648000D03*
%TD*%
D12*
%TO.P,J2,1,Pin_1*%
%TO.N,/V-*%
X129856000Y-89352000D03*
D13*
%TO.P,J2,2,Pin_2*%
%TO.N,GND*%
X129856000Y-85852000D03*
%TO.P,J2,3,Pin_3*%
%TO.N,/V+*%
X129856000Y-82352000D03*
%TD*%
D12*
%TO.P,J1,1,Pin_1*%
%TO.N,/AC2*%
X62800000Y-82352000D03*
D13*
%TO.P,J1,2,Pin_2*%
%TO.N,GND*%
X62800000Y-85852000D03*
%TO.P,J1,3,Pin_3*%
%TO.N,/AC1*%
X62800000Y-89352000D03*
%TD*%
D12*
%TO.P,C1,1*%
%TO.N,/V+*%
X108712000Y-72256000D03*
D13*
%TO.P,C1,2*%
%TO.N,GND*%
X108712000Y-79756000D03*
%TD*%
D11*
%TO.P,REF\u002A\u002A,1*%
%TO.N,GND*%
X132080000Y-66040000D03*
%TD*%
D10*
%TO.P,C3,1*%
%TO.N,/V+*%
X121452000Y-69596000D03*
%TO.P,C3,2*%
%TO.N,GND*%
X126452000Y-69596000D03*
%TD*%
D14*
%TO.P,D1,1,K*%
%TO.N,/V+*%
X88900000Y-69850000D03*
D15*
%TO.P,D1,2,A*%
%TO.N,/AC1*%
X88900000Y-82550000D03*
%TD*%
D14*
%TO.P,D2,1,K*%
%TO.N,/AC2*%
X74168000Y-90170000D03*
D15*
%TO.P,D2,2,A*%
%TO.N,/V-*%
X74168000Y-102870000D03*
%TD*%
%TA.AperFunction,Conductor*%
%TO.N,GND*%
G36*
X133147471Y-62230195D02*
G01*
X133188136Y-62232478D01*
X133472949Y-62248473D01*
X133486748Y-62250027D01*
X133804695Y-62304049D01*
X133818252Y-62307143D01*
X134128148Y-62396423D01*
X134141272Y-62401016D01*
X134439215Y-62524427D01*
X134451737Y-62530456D01*
X134734006Y-62686461D01*
X134745779Y-62693859D01*
X135008789Y-62880475D01*
X135019649Y-62889135D01*
X135160492Y-63015000D01*
X135260127Y-63104039D01*
X135269960Y-63113872D01*
X135484859Y-63354344D01*
X135493528Y-63365216D01*
X135680139Y-63628219D01*
X135687538Y-63639993D01*
X135843539Y-63922255D01*
X135849572Y-63934784D01*
X135972983Y-64232727D01*
X135977576Y-64245851D01*
X136066856Y-64555747D01*
X136069950Y-64569304D01*
X136123970Y-64887240D01*
X136125527Y-64901058D01*
X136143805Y-65226527D01*
X136144000Y-65233480D01*
X136144000Y-105454519D01*
X136143805Y-105461472D01*
X136125527Y-105786941D01*
X136123970Y-105800759D01*
X136069950Y-106118695D01*
X136066856Y-106132252D01*
X135977576Y-106442148D01*
X135972983Y-106455272D01*
X135849572Y-106753215D01*
X135843539Y-106765744D01*
X135687538Y-107048006D01*
X135680139Y-107059780D01*
X135493528Y-107322783D01*
X135484859Y-107333655D01*
X135269960Y-107574127D01*
X135260127Y-107583960D01*
X135019655Y-107798859D01*
X135008783Y-107807528D01*
X134745780Y-107994139D01*
X134734006Y-108001538D01*
X134451744Y-108157539D01*
X134439215Y-108163572D01*
X134141272Y-108286983D01*
X134128148Y-108291576D01*
X133818252Y-108380856D01*
X133804695Y-108383950D01*
X133486759Y-108437970D01*
X133472941Y-108439527D01*
X133147472Y-108457805D01*
X133140519Y-108458000D01*
X59899481Y-108458000D01*
X59892528Y-108457805D01*
X59567058Y-108439527D01*
X59553240Y-108437970D01*
X59235304Y-108383950D01*
X59221747Y-108380856D01*
X58911851Y-108291576D01*
X58898727Y-108286983D01*
X58600784Y-108163572D01*
X58588255Y-108157539D01*
X58305993Y-108001538D01*
X58294219Y-107994139D01*
X58031216Y-107807528D01*
X58020344Y-107798859D01*
X57930000Y-107718123D01*
X57779870Y-107583958D01*
X57770039Y-107574127D01*
X57599586Y-107383390D01*
X57555135Y-107333649D01*
X57546475Y-107322789D01*
X57359859Y-107059779D01*
X57352461Y-107048006D01*
X57196456Y-106765737D01*
X57190427Y-106753215D01*
X57067016Y-106455272D01*
X57062423Y-106442148D01*
X56973143Y-106132252D01*
X56970049Y-106118695D01*
X56955944Y-106035677D01*
X56916027Y-105800748D01*
X56914473Y-105786949D01*
X56896195Y-105461471D01*
X56896000Y-105454519D01*
X56896000Y-104647997D01*
X57655153Y-104647997D01*
X57655153Y-104648002D01*
X57674526Y-105005314D01*
X57674527Y-105005331D01*
X57732415Y-105358431D01*
X57732421Y-105358457D01*
X57828147Y-105703232D01*
X57828149Y-105703239D01*
X57960597Y-106035659D01*
X57960606Y-106035677D01*
X58128218Y-106351827D01*
X58329024Y-106647994D01*
X58329035Y-106648008D01*
X58456441Y-106798002D01*
X58456442Y-106798002D01*
X59665747Y-105588697D01*
X59739588Y-105690330D01*
X59917670Y-105868412D01*
X60019300Y-105942251D01*
X58807257Y-107154294D01*
X58820495Y-107166836D01*
X59105367Y-107383388D01*
X59105370Y-107383390D01*
X59411990Y-107567876D01*
X59736739Y-107718122D01*
X59736744Y-107718123D01*
X60075855Y-107832383D01*
X60425339Y-107909311D01*
X60781075Y-107947999D01*
X60781085Y-107948000D01*
X61138915Y-107948000D01*
X61138924Y-107947999D01*
X61494660Y-107909311D01*
X61844144Y-107832383D01*
X62183255Y-107718123D01*
X62183260Y-107718122D01*
X62508009Y-107567876D01*
X62814629Y-107383390D01*
X62814632Y-107383388D01*
X63099509Y-107166831D01*
X63112742Y-107154295D01*
X63112742Y-107154294D01*
X61900699Y-105942251D01*
X62002330Y-105868412D01*
X62180412Y-105690330D01*
X62254251Y-105588698D01*
X63463556Y-106798002D01*
X63590972Y-106647998D01*
X63590975Y-106647994D01*
X63791781Y-106351827D01*
X63959393Y-106035677D01*
X63959402Y-106035659D01*
X64091850Y-105703239D01*
X64091852Y-105703232D01*
X64187578Y-105358457D01*
X64187584Y-105358431D01*
X64245472Y-105005331D01*
X64245473Y-105005314D01*
X64264847Y-104648002D01*
X64264847Y-104647997D01*
X64245473Y-104290685D01*
X64245472Y-104290668D01*
X64187584Y-103937568D01*
X64187578Y-103937542D01*
X64091852Y-103592767D01*
X64091850Y-103592760D01*
X63959402Y-103260340D01*
X63959393Y-103260322D01*
X63791781Y-102944172D01*
X63741491Y-102870000D01*
X72062592Y-102870000D01*
X72082201Y-103156680D01*
X72082201Y-103156684D01*
X72082202Y-103156686D01*
X72099127Y-103238132D01*
X72140666Y-103438034D01*
X72140667Y-103438037D01*
X72236894Y-103708793D01*
X72236893Y-103708793D01*
X72369098Y-103963935D01*
X72534812Y-104198700D01*
X72604514Y-104273332D01*
X72730947Y-104408708D01*
X72953853Y-104590055D01*
X73049137Y-104647999D01*
X73199382Y-104739365D01*
X73386237Y-104820526D01*
X73462942Y-104853844D01*
X73739642Y-104931371D01*
X73989920Y-104965771D01*
X74024321Y-104970500D01*
X74024322Y-104970500D01*
X74311679Y-104970500D01*
X74342370Y-104966281D01*
X74596358Y-104931371D01*
X74873058Y-104853844D01*
X74986015Y-104804779D01*
X75136617Y-104739365D01*
X75136620Y-104739363D01*
X75136625Y-104739361D01*
X75382147Y-104590055D01*
X75605053Y-104408708D01*
X75801189Y-104198698D01*
X75966901Y-103963936D01*
X76099104Y-103708797D01*
X76195334Y-103438032D01*
X76253798Y-103156686D01*
X76273408Y-102870000D01*
X86794592Y-102870000D01*
X86814201Y-103156680D01*
X86814201Y-103156684D01*
X86814202Y-103156686D01*
X86831127Y-103238132D01*
X86872666Y-103438034D01*
X86872667Y-103438037D01*
X86968894Y-103708793D01*
X86968893Y-103708793D01*
X87101098Y-103963935D01*
X87266812Y-104198700D01*
X87336514Y-104273332D01*
X87462947Y-104408708D01*
X87685853Y-104590055D01*
X87781137Y-104647999D01*
X87931382Y-104739365D01*
X88118237Y-104820526D01*
X88194942Y-104853844D01*
X88471642Y-104931371D01*
X88721920Y-104965771D01*
X88756321Y-104970500D01*
X88756322Y-104970500D01*
X89043679Y-104970500D01*
X89074370Y-104966281D01*
X89328358Y-104931371D01*
X89605058Y-104853844D01*
X89718015Y-104804779D01*
X89868617Y-104739365D01*
X89868620Y-104739363D01*
X89868625Y-104739361D01*
X90018866Y-104647997D01*
X128775153Y-104647997D01*
X128775153Y-104648002D01*
X128794526Y-105005314D01*
X128794527Y-105005331D01*
X128852415Y-105358431D01*
X128852421Y-105358457D01*
X128948147Y-105703232D01*
X128948149Y-105703239D01*
X129080597Y-106035659D01*
X129080606Y-106035677D01*
X129248218Y-106351827D01*
X129449024Y-106647994D01*
X129449035Y-106648008D01*
X129576441Y-106798002D01*
X129576442Y-106798002D01*
X130785747Y-105588697D01*
X130859588Y-105690330D01*
X131037670Y-105868412D01*
X131139300Y-105942251D01*
X129927257Y-107154294D01*
X129940495Y-107166836D01*
X130225367Y-107383388D01*
X130225370Y-107383390D01*
X130531990Y-107567876D01*
X130856739Y-107718122D01*
X130856744Y-107718123D01*
X131195855Y-107832383D01*
X131545339Y-107909311D01*
X131901075Y-107947999D01*
X131901085Y-107948000D01*
X132258915Y-107948000D01*
X132258924Y-107947999D01*
X132614660Y-107909311D01*
X132964144Y-107832383D01*
X133303255Y-107718123D01*
X133303260Y-107718122D01*
X133628009Y-107567876D01*
X133934629Y-107383390D01*
X133934632Y-107383388D01*
X134219509Y-107166831D01*
X134232742Y-107154295D01*
X134232742Y-107154294D01*
X133020699Y-105942251D01*
X133122330Y-105868412D01*
X133300412Y-105690330D01*
X133374251Y-105588698D01*
X134583556Y-106798002D01*
X134710972Y-106647998D01*
X134710975Y-106647994D01*
X134911781Y-106351827D01*
X135079393Y-106035677D01*
X135079402Y-106035659D01*
X135211850Y-105703239D01*
X135211852Y-105703232D01*
X135307578Y-105358457D01*
X135307584Y-105358431D01*
X135365472Y-105005331D01*
X135365473Y-105005314D01*
X135384847Y-104648002D01*
X135384847Y-104647997D01*
X135365473Y-104290685D01*
X135365472Y-104290668D01*
X135307584Y-103937568D01*
X135307578Y-103937542D01*
X135211852Y-103592767D01*
X135211850Y-103592760D01*
X135079402Y-103260340D01*
X135079393Y-103260322D01*
X134911781Y-102944172D01*
X134710975Y-102648005D01*
X134710964Y-102647991D01*
X134583556Y-102497996D01*
X133374251Y-103707301D01*
X133300412Y-103605670D01*
X133122330Y-103427588D01*
X133020698Y-103353748D01*
X134232742Y-102141704D01*
X134219504Y-102129163D01*
X133934632Y-101912611D01*
X133934629Y-101912609D01*
X133628009Y-101728123D01*
X133303260Y-101577877D01*
X133303255Y-101577876D01*
X132964144Y-101463616D01*
X132614660Y-101386688D01*
X132258924Y-101348000D01*
X131901075Y-101348000D01*
X131545339Y-101386688D01*
X131195855Y-101463616D01*
X130856744Y-101577876D01*
X130856739Y-101577877D01*
X130531990Y-101728123D01*
X130225370Y-101912609D01*
X130225367Y-101912611D01*
X129940486Y-102129170D01*
X129940485Y-102129171D01*
X129927257Y-102141702D01*
X129927256Y-102141703D01*
X131139301Y-103353748D01*
X131037670Y-103427588D01*
X130859588Y-103605670D01*
X130785748Y-103707301D01*
X129576442Y-102497995D01*
X129576441Y-102497996D01*
X129449033Y-102647992D01*
X129248218Y-102944172D01*
X129080606Y-103260322D01*
X129080597Y-103260340D01*
X128948149Y-103592760D01*
X128948147Y-103592767D01*
X128852421Y-103937542D01*
X128852415Y-103937568D01*
X128794527Y-104290668D01*
X128794526Y-104290685D01*
X128775153Y-104647997D01*
X90018866Y-104647997D01*
X90114147Y-104590055D01*
X90337053Y-104408708D01*
X90533189Y-104198698D01*
X90698901Y-103963936D01*
X90831104Y-103708797D01*
X90927334Y-103438032D01*
X90985798Y-103156686D01*
X91005408Y-102870000D01*
X90985798Y-102583314D01*
X90927334Y-102301968D01*
X90858397Y-102107998D01*
X120146532Y-102107998D01*
X120146532Y-102108001D01*
X120166364Y-102334686D01*
X120166366Y-102334697D01*
X120225258Y-102554488D01*
X120225261Y-102554497D01*
X120321431Y-102760732D01*
X120321432Y-102760734D01*
X120451954Y-102947141D01*
X120612858Y-103108045D01*
X120612861Y-103108047D01*
X120799266Y-103238568D01*
X121005504Y-103334739D01*
X121225308Y-103393635D01*
X121387230Y-103407801D01*
X121451998Y-103413468D01*
X121452000Y-103413468D01*
X121452002Y-103413468D01*
X121508673Y-103408509D01*
X121678692Y-103393635D01*
X121898496Y-103334739D01*
X122104734Y-103238568D01*
X122291139Y-103108047D01*
X122452047Y-102947139D01*
X122582568Y-102760734D01*
X122678739Y-102554496D01*
X122737635Y-102334692D01*
X122755616Y-102129170D01*
X122757468Y-102108001D01*
X122757468Y-102107998D01*
X122757468Y-102107997D01*
X125147034Y-102107997D01*
X125147034Y-102108002D01*
X125166858Y-102334599D01*
X125166860Y-102334610D01*
X125225730Y-102554317D01*
X125225735Y-102554331D01*
X125321863Y-102760478D01*
X125372974Y-102833472D01*
X126052000Y-102154446D01*
X126052000Y-102160661D01*
X126079259Y-102262394D01*
X126131920Y-102353606D01*
X126206394Y-102428080D01*
X126297606Y-102480741D01*
X126399339Y-102508000D01*
X126405553Y-102508000D01*
X125726526Y-103187025D01*
X125799513Y-103238132D01*
X125799521Y-103238136D01*
X126005668Y-103334264D01*
X126005682Y-103334269D01*
X126225389Y-103393139D01*
X126225400Y-103393141D01*
X126451998Y-103412966D01*
X126452002Y-103412966D01*
X126678599Y-103393141D01*
X126678610Y-103393139D01*
X126898317Y-103334269D01*
X126898331Y-103334264D01*
X127104478Y-103238136D01*
X127177471Y-103187024D01*
X126498447Y-102508000D01*
X126504661Y-102508000D01*
X126606394Y-102480741D01*
X126697606Y-102428080D01*
X126772080Y-102353606D01*
X126824741Y-102262394D01*
X126852000Y-102160661D01*
X126852000Y-102154447D01*
X127531024Y-102833471D01*
X127582136Y-102760478D01*
X127678264Y-102554331D01*
X127678269Y-102554317D01*
X127737139Y-102334610D01*
X127737141Y-102334599D01*
X127756966Y-102108002D01*
X127756966Y-102107997D01*
X127737141Y-101881400D01*
X127737139Y-101881389D01*
X127678269Y-101661682D01*
X127678264Y-101661668D01*
X127582136Y-101455521D01*
X127582132Y-101455513D01*
X127531025Y-101382526D01*
X126852000Y-102061551D01*
X126852000Y-102055339D01*
X126824741Y-101953606D01*
X126772080Y-101862394D01*
X126697606Y-101787920D01*
X126606394Y-101735259D01*
X126504661Y-101708000D01*
X126498448Y-101708000D01*
X127177472Y-101028974D01*
X127104478Y-100977863D01*
X126898331Y-100881735D01*
X126898317Y-100881730D01*
X126678610Y-100822860D01*
X126678599Y-100822858D01*
X126452002Y-100803034D01*
X126451998Y-100803034D01*
X126225400Y-100822858D01*
X126225389Y-100822860D01*
X126005682Y-100881730D01*
X126005673Y-100881734D01*
X125799516Y-100977866D01*
X125799512Y-100977868D01*
X125726526Y-101028973D01*
X125726526Y-101028974D01*
X126405553Y-101708000D01*
X126399339Y-101708000D01*
X126297606Y-101735259D01*
X126206394Y-101787920D01*
X126131920Y-101862394D01*
X126079259Y-101953606D01*
X126052000Y-102055339D01*
X126052000Y-102061552D01*
X125372974Y-101382526D01*
X125372973Y-101382526D01*
X125321868Y-101455512D01*
X125321866Y-101455516D01*
X125225734Y-101661673D01*
X125225730Y-101661682D01*
X125166860Y-101881389D01*
X125166858Y-101881400D01*
X125147034Y-102107997D01*
X122757468Y-102107997D01*
X122743960Y-101953606D01*
X122737635Y-101881308D01*
X122678739Y-101661504D01*
X122582568Y-101455266D01*
X122452047Y-101268861D01*
X122452045Y-101268858D01*
X122291141Y-101107954D01*
X122104734Y-100977432D01*
X122104732Y-100977431D01*
X121898497Y-100881261D01*
X121898488Y-100881258D01*
X121678697Y-100822366D01*
X121678693Y-100822365D01*
X121678692Y-100822365D01*
X121678691Y-100822364D01*
X121678686Y-100822364D01*
X121452002Y-100802532D01*
X121451998Y-100802532D01*
X121225313Y-100822364D01*
X121225302Y-100822366D01*
X121005511Y-100881258D01*
X121005502Y-100881261D01*
X120799267Y-100977431D01*
X120799265Y-100977432D01*
X120612858Y-101107954D01*
X120451954Y-101268858D01*
X120321432Y-101455265D01*
X120321431Y-101455267D01*
X120225261Y-101661502D01*
X120225258Y-101661511D01*
X120166366Y-101881302D01*
X120166364Y-101881313D01*
X120146532Y-102107998D01*
X90858397Y-102107998D01*
X90831105Y-102031206D01*
X90831106Y-102031206D01*
X90698901Y-101776064D01*
X90533187Y-101541299D01*
X90384902Y-101382526D01*
X90337053Y-101331292D01*
X90114147Y-101149945D01*
X90114146Y-101149944D01*
X89868617Y-101000634D01*
X89605063Y-100886158D01*
X89605061Y-100886157D01*
X89605058Y-100886156D01*
X89475578Y-100849877D01*
X89328364Y-100808630D01*
X89328359Y-100808629D01*
X89328358Y-100808629D01*
X89186018Y-100789064D01*
X89043679Y-100769500D01*
X89043678Y-100769500D01*
X88756322Y-100769500D01*
X88756321Y-100769500D01*
X88471642Y-100808629D01*
X88471635Y-100808630D01*
X88263861Y-100866845D01*
X88194942Y-100886156D01*
X88194939Y-100886156D01*
X88194936Y-100886158D01*
X88194935Y-100886158D01*
X87931382Y-101000634D01*
X87685853Y-101149944D01*
X87462950Y-101331289D01*
X87266812Y-101541299D01*
X87101098Y-101776064D01*
X86968894Y-102031206D01*
X86872667Y-102301962D01*
X86872666Y-102301965D01*
X86814201Y-102583319D01*
X86794592Y-102870000D01*
X76273408Y-102870000D01*
X76253798Y-102583314D01*
X76195334Y-102301968D01*
X76099105Y-102031206D01*
X76099106Y-102031206D01*
X75966901Y-101776064D01*
X75801187Y-101541299D01*
X75652902Y-101382526D01*
X75605053Y-101331292D01*
X75382147Y-101149945D01*
X75382146Y-101149944D01*
X75136617Y-101000634D01*
X74873063Y-100886158D01*
X74873061Y-100886157D01*
X74873058Y-100886156D01*
X74743578Y-100849877D01*
X74596364Y-100808630D01*
X74596359Y-100808629D01*
X74596358Y-100808629D01*
X74454018Y-100789064D01*
X74311679Y-100769500D01*
X74311678Y-100769500D01*
X74024322Y-100769500D01*
X74024321Y-100769500D01*
X73739642Y-100808629D01*
X73739635Y-100808630D01*
X73531861Y-100866845D01*
X73462942Y-100886156D01*
X73462939Y-100886156D01*
X73462936Y-100886158D01*
X73462935Y-100886158D01*
X73199382Y-101000634D01*
X72953853Y-101149944D01*
X72730950Y-101331289D01*
X72534812Y-101541299D01*
X72369098Y-101776064D01*
X72236894Y-102031206D01*
X72140667Y-102301962D01*
X72140666Y-102301965D01*
X72082201Y-102583319D01*
X72062592Y-102870000D01*
X63741491Y-102870000D01*
X63590975Y-102648005D01*
X63590964Y-102647991D01*
X63463556Y-102497996D01*
X62254251Y-103707301D01*
X62180412Y-103605670D01*
X62002330Y-103427588D01*
X61900698Y-103353748D01*
X63112742Y-102141704D01*
X63099504Y-102129163D01*
X62814632Y-101912611D01*
X62814629Y-101912609D01*
X62508009Y-101728123D01*
X62183260Y-101577877D01*
X62183255Y-101577876D01*
X61844144Y-101463616D01*
X61494660Y-101386688D01*
X61138924Y-101348000D01*
X60781075Y-101348000D01*
X60425339Y-101386688D01*
X60075855Y-101463616D01*
X59736744Y-101577876D01*
X59736739Y-101577877D01*
X59411990Y-101728123D01*
X59105370Y-101912609D01*
X59105367Y-101912611D01*
X58820486Y-102129170D01*
X58820485Y-102129171D01*
X58807257Y-102141702D01*
X58807256Y-102141703D01*
X60019301Y-103353748D01*
X59917670Y-103427588D01*
X59739588Y-103605670D01*
X59665748Y-103707301D01*
X58456442Y-102497995D01*
X58456441Y-102497996D01*
X58329033Y-102647992D01*
X58128218Y-102944172D01*
X57960606Y-103260322D01*
X57960597Y-103260340D01*
X57828149Y-103592760D01*
X57828147Y-103592767D01*
X57732421Y-103937542D01*
X57732415Y-103937568D01*
X57674527Y-104290668D01*
X57674526Y-104290685D01*
X57655153Y-104647997D01*
X56896000Y-104647997D01*
X56896000Y-100075995D01*
X107006732Y-100075995D01*
X107006732Y-100076004D01*
X107025777Y-100330154D01*
X107025778Y-100330157D01*
X107082492Y-100578637D01*
X107175607Y-100815888D01*
X107303041Y-101036612D01*
X107461950Y-101235877D01*
X107648783Y-101409232D01*
X107859366Y-101552805D01*
X107859371Y-101552807D01*
X107859372Y-101552808D01*
X107859373Y-101552809D01*
X107981328Y-101611538D01*
X108088992Y-101663387D01*
X108088993Y-101663387D01*
X108088996Y-101663389D01*
X108332542Y-101738513D01*
X108584565Y-101776500D01*
X108839435Y-101776500D01*
X109091458Y-101738513D01*
X109335004Y-101663389D01*
X109564634Y-101552805D01*
X109775217Y-101409232D01*
X109962050Y-101235877D01*
X110120959Y-101036612D01*
X110248393Y-100815888D01*
X110341508Y-100578637D01*
X110398222Y-100330157D01*
X110417268Y-100076000D01*
X110398222Y-99821843D01*
X110341508Y-99573363D01*
X110248393Y-99336112D01*
X110120959Y-99115388D01*
X109962050Y-98916123D01*
X109775217Y-98742768D01*
X109564634Y-98599195D01*
X109564630Y-98599193D01*
X109564627Y-98599191D01*
X109564626Y-98599190D01*
X109335006Y-98488612D01*
X109335008Y-98488612D01*
X109091466Y-98413489D01*
X109091462Y-98413488D01*
X109091458Y-98413487D01*
X108970231Y-98395214D01*
X108839440Y-98375500D01*
X108839435Y-98375500D01*
X108584565Y-98375500D01*
X108584559Y-98375500D01*
X108427609Y-98399157D01*
X108332542Y-98413487D01*
X108332539Y-98413488D01*
X108332533Y-98413489D01*
X108088992Y-98488612D01*
X107859373Y-98599190D01*
X107859372Y-98599191D01*
X107648782Y-98742768D01*
X107461952Y-98916121D01*
X107461950Y-98916123D01*
X107303041Y-99115388D01*
X107175608Y-99336109D01*
X107082492Y-99573362D01*
X107082490Y-99573369D01*
X107025777Y-99821845D01*
X107006732Y-100075995D01*
X56896000Y-100075995D01*
X56896000Y-89351995D01*
X61094732Y-89351995D01*
X61094732Y-89352004D01*
X61113777Y-89606154D01*
X61113778Y-89606157D01*
X61170492Y-89854637D01*
X61263607Y-90091888D01*
X61391041Y-90312612D01*
X61549950Y-90511877D01*
X61736783Y-90685232D01*
X61947366Y-90828805D01*
X61947371Y-90828807D01*
X61947372Y-90828808D01*
X61947373Y-90828809D01*
X62045367Y-90876000D01*
X62176992Y-90939387D01*
X62176993Y-90939387D01*
X62176996Y-90939389D01*
X62420542Y-91014513D01*
X62672565Y-91052500D01*
X62927435Y-91052500D01*
X63179458Y-91014513D01*
X63423004Y-90939389D01*
X63652634Y-90828805D01*
X63863217Y-90685232D01*
X64050050Y-90511877D01*
X64208959Y-90312612D01*
X64336393Y-90091888D01*
X64429508Y-89854637D01*
X64486222Y-89606157D01*
X64505268Y-89352000D01*
X64486222Y-89097843D01*
X64429508Y-88849363D01*
X64336393Y-88612112D01*
X64284445Y-88522135D01*
X72067500Y-88522135D01*
X72067500Y-91817870D01*
X72067501Y-91817876D01*
X72073908Y-91877483D01*
X72124202Y-92012328D01*
X72124206Y-92012335D01*
X72210452Y-92127544D01*
X72210455Y-92127547D01*
X72325664Y-92213793D01*
X72325671Y-92213797D01*
X72460517Y-92264091D01*
X72460516Y-92264091D01*
X72467444Y-92264835D01*
X72520127Y-92270500D01*
X75815872Y-92270499D01*
X75875483Y-92264091D01*
X76010331Y-92213796D01*
X76125546Y-92127546D01*
X76211796Y-92012331D01*
X76262091Y-91877483D01*
X76268500Y-91817873D01*
X76268499Y-88522135D01*
X86799500Y-88522135D01*
X86799500Y-91817870D01*
X86799501Y-91817876D01*
X86805908Y-91877483D01*
X86856202Y-92012328D01*
X86856206Y-92012335D01*
X86942452Y-92127544D01*
X86942455Y-92127547D01*
X87057664Y-92213793D01*
X87057671Y-92213797D01*
X87192517Y-92264091D01*
X87192516Y-92264091D01*
X87199444Y-92264835D01*
X87252127Y-92270500D01*
X90547872Y-92270499D01*
X90607483Y-92264091D01*
X90742331Y-92213796D01*
X90857546Y-92127546D01*
X90943796Y-92012331D01*
X90994091Y-91877483D01*
X91000500Y-91817873D01*
X91000500Y-91328155D01*
X107012000Y-91328155D01*
X107012000Y-92326000D01*
X108163518Y-92326000D01*
X108152889Y-92344409D01*
X108112000Y-92497009D01*
X108112000Y-92654991D01*
X108152889Y-92807591D01*
X108163518Y-92826000D01*
X107012000Y-92826000D01*
X107012000Y-93823844D01*
X107018401Y-93883372D01*
X107018403Y-93883379D01*
X107068645Y-94018086D01*
X107068649Y-94018093D01*
X107154809Y-94133187D01*
X107154812Y-94133190D01*
X107269906Y-94219350D01*
X107269913Y-94219354D01*
X107404620Y-94269596D01*
X107404627Y-94269598D01*
X107464155Y-94275999D01*
X107464172Y-94276000D01*
X108462000Y-94276000D01*
X108462000Y-93124482D01*
X108480409Y-93135111D01*
X108633009Y-93176000D01*
X108790991Y-93176000D01*
X108943591Y-93135111D01*
X108962000Y-93124482D01*
X108962000Y-94276000D01*
X109959828Y-94276000D01*
X109959844Y-94275999D01*
X110019372Y-94269598D01*
X110019379Y-94269596D01*
X110154086Y-94219354D01*
X110154093Y-94219350D01*
X110269187Y-94133190D01*
X110269190Y-94133187D01*
X110355350Y-94018093D01*
X110355354Y-94018086D01*
X110405596Y-93883379D01*
X110405598Y-93883372D01*
X110411999Y-93823844D01*
X110412000Y-93823827D01*
X110412000Y-92826000D01*
X109260482Y-92826000D01*
X109271111Y-92807591D01*
X109312000Y-92654991D01*
X109312000Y-92497009D01*
X109271111Y-92344409D01*
X109260482Y-92326000D01*
X110412000Y-92326000D01*
X110412000Y-91328172D01*
X110411999Y-91328155D01*
X110405598Y-91268627D01*
X110405596Y-91268620D01*
X110355354Y-91133913D01*
X110355350Y-91133906D01*
X110269190Y-91018812D01*
X110269187Y-91018809D01*
X110154093Y-90932649D01*
X110154086Y-90932645D01*
X110019379Y-90882403D01*
X110019372Y-90882401D01*
X109959844Y-90876000D01*
X108962000Y-90876000D01*
X108962000Y-92027517D01*
X108943591Y-92016889D01*
X108790991Y-91976000D01*
X108633009Y-91976000D01*
X108480409Y-92016889D01*
X108462000Y-92027517D01*
X108462000Y-90876000D01*
X107464155Y-90876000D01*
X107404627Y-90882401D01*
X107404620Y-90882403D01*
X107269913Y-90932645D01*
X107269906Y-90932649D01*
X107154812Y-91018809D01*
X107154809Y-91018812D01*
X107068649Y-91133906D01*
X107068645Y-91133913D01*
X107018403Y-91268620D01*
X107018401Y-91268627D01*
X107012000Y-91328155D01*
X91000500Y-91328155D01*
X91000499Y-88522128D01*
X90994091Y-88462517D01*
X90943796Y-88327669D01*
X90943795Y-88327668D01*
X90943793Y-88327664D01*
X90857547Y-88212455D01*
X90857544Y-88212452D01*
X90742335Y-88126206D01*
X90742328Y-88126202D01*
X90607482Y-88075908D01*
X90607483Y-88075908D01*
X90547883Y-88069501D01*
X90547881Y-88069500D01*
X90547873Y-88069500D01*
X90547864Y-88069500D01*
X87252129Y-88069500D01*
X87252123Y-88069501D01*
X87192516Y-88075908D01*
X87057671Y-88126202D01*
X87057664Y-88126206D01*
X86942455Y-88212452D01*
X86942452Y-88212455D01*
X86856206Y-88327664D01*
X86856202Y-88327671D01*
X86805908Y-88462517D01*
X86799501Y-88522116D01*
X86799501Y-88522123D01*
X86799500Y-88522135D01*
X76268499Y-88522135D01*
X76268499Y-88522128D01*
X76262091Y-88462517D01*
X76211796Y-88327669D01*
X76211795Y-88327668D01*
X76211793Y-88327664D01*
X76125547Y-88212455D01*
X76125544Y-88212452D01*
X76010335Y-88126206D01*
X76010328Y-88126202D01*
X75875482Y-88075908D01*
X75875483Y-88075908D01*
X75815883Y-88069501D01*
X75815881Y-88069500D01*
X75815873Y-88069500D01*
X75815864Y-88069500D01*
X72520129Y-88069500D01*
X72520123Y-88069501D01*
X72460516Y-88075908D01*
X72325671Y-88126202D01*
X72325664Y-88126206D01*
X72210455Y-88212452D01*
X72210452Y-88212455D01*
X72124206Y-88327664D01*
X72124202Y-88327671D01*
X72073908Y-88462517D01*
X72067501Y-88522116D01*
X72067501Y-88522123D01*
X72067500Y-88522135D01*
X64284445Y-88522135D01*
X64208959Y-88391388D01*
X64050050Y-88192123D01*
X63863217Y-88018768D01*
X63652634Y-87875195D01*
X63652630Y-87875193D01*
X63652627Y-87875191D01*
X63652626Y-87875190D01*
X63423009Y-87764613D01*
X63423006Y-87764612D01*
X63423004Y-87764611D01*
X63333241Y-87736922D01*
X63279122Y-87720229D01*
X63220864Y-87681658D01*
X63192706Y-87617713D01*
X63203590Y-87548697D01*
X63250059Y-87496520D01*
X63279124Y-87483247D01*
X63422822Y-87438922D01*
X63422823Y-87438921D01*
X63652376Y-87328376D01*
X63652377Y-87328375D01*
X63813185Y-87218738D01*
X63011060Y-86416612D01*
X63031591Y-86411111D01*
X63168408Y-86332119D01*
X63280119Y-86220408D01*
X63359111Y-86083591D01*
X63364612Y-86063059D01*
X64166544Y-86864992D01*
X64166546Y-86864991D01*
X64208544Y-86812330D01*
X64335941Y-86591671D01*
X64429026Y-86354494D01*
X64429031Y-86354477D01*
X64485726Y-86106079D01*
X64504767Y-85852004D01*
X64504767Y-85851995D01*
X64485726Y-85597920D01*
X64429031Y-85349522D01*
X64429026Y-85349505D01*
X64335941Y-85112328D01*
X64335942Y-85112328D01*
X64208545Y-84891672D01*
X64166545Y-84839006D01*
X63364612Y-85640939D01*
X63359111Y-85620409D01*
X63280119Y-85483592D01*
X63168408Y-85371881D01*
X63031591Y-85292889D01*
X63011059Y-85287387D01*
X63813185Y-84485260D01*
X63652384Y-84375628D01*
X63652376Y-84375623D01*
X63470876Y-84288219D01*
X63419016Y-84241397D01*
X63400703Y-84173970D01*
X63421750Y-84107346D01*
X63475477Y-84062678D01*
X63524675Y-84052499D01*
X64047872Y-84052499D01*
X64107483Y-84046091D01*
X64242331Y-83995796D01*
X64357546Y-83909546D01*
X64443796Y-83794331D01*
X64494091Y-83659483D01*
X64500500Y-83599873D01*
X64500500Y-82550000D01*
X72062592Y-82550000D01*
X72082201Y-82836680D01*
X72140666Y-83118034D01*
X72140667Y-83118037D01*
X72236894Y-83388793D01*
X72236893Y-83388793D01*
X72369098Y-83643935D01*
X72534812Y-83878700D01*
X72619923Y-83969831D01*
X72730947Y-84088708D01*
X72953853Y-84270055D01*
X73127451Y-84375623D01*
X73199382Y-84419365D01*
X73351090Y-84485260D01*
X73462942Y-84533844D01*
X73739642Y-84611371D01*
X73989920Y-84645771D01*
X74024321Y-84650500D01*
X74024322Y-84650500D01*
X74311679Y-84650500D01*
X74342370Y-84646281D01*
X74596358Y-84611371D01*
X74873058Y-84533844D01*
X74986015Y-84484779D01*
X75136617Y-84419365D01*
X75136620Y-84419363D01*
X75136625Y-84419361D01*
X75382147Y-84270055D01*
X75605053Y-84088708D01*
X75801189Y-83878698D01*
X75966901Y-83643936D01*
X76099104Y-83388797D01*
X76195334Y-83118032D01*
X76253798Y-82836686D01*
X76273408Y-82550000D01*
X86794592Y-82550000D01*
X86814201Y-82836680D01*
X86872666Y-83118034D01*
X86872667Y-83118037D01*
X86968894Y-83388793D01*
X86968893Y-83388793D01*
X87101098Y-83643935D01*
X87266812Y-83878700D01*
X87351923Y-83969831D01*
X87462947Y-84088708D01*
X87685853Y-84270055D01*
X87859451Y-84375623D01*
X87931382Y-84419365D01*
X88083090Y-84485260D01*
X88194942Y-84533844D01*
X88471642Y-84611371D01*
X88721920Y-84645771D01*
X88756321Y-84650500D01*
X88756322Y-84650500D01*
X89043679Y-84650500D01*
X89074370Y-84646281D01*
X89328358Y-84611371D01*
X89605058Y-84533844D01*
X89718015Y-84484779D01*
X89868617Y-84419365D01*
X89868620Y-84419363D01*
X89868625Y-84419361D01*
X90114147Y-84270055D01*
X90337053Y-84088708D01*
X90533189Y-83878698D01*
X90698901Y-83643936D01*
X90831104Y-83388797D01*
X90927334Y-83118032D01*
X90985798Y-82836686D01*
X91005408Y-82550000D01*
X90991864Y-82351995D01*
X128150732Y-82351995D01*
X128150732Y-82352004D01*
X128169777Y-82606154D01*
X128222394Y-82836686D01*
X128226492Y-82854637D01*
X128319607Y-83091888D01*
X128447041Y-83312612D01*
X128605950Y-83511877D01*
X128792783Y-83685232D01*
X129003366Y-83828805D01*
X129003371Y-83828807D01*
X129003372Y-83828808D01*
X129003373Y-83828809D01*
X129106970Y-83878698D01*
X129232992Y-83939387D01*
X129232993Y-83939387D01*
X129232996Y-83939389D01*
X129376876Y-83983770D01*
X129435135Y-84022341D01*
X129463293Y-84086285D01*
X129452409Y-84155302D01*
X129405940Y-84207479D01*
X129376876Y-84220752D01*
X129233175Y-84265078D01*
X129003622Y-84375625D01*
X129003609Y-84375632D01*
X128842813Y-84485259D01*
X129644941Y-85287387D01*
X129624409Y-85292889D01*
X129487592Y-85371881D01*
X129375881Y-85483592D01*
X129296889Y-85620409D01*
X129291387Y-85640940D01*
X128489452Y-84839006D01*
X128447457Y-84891667D01*
X128320058Y-85112328D01*
X128226973Y-85349505D01*
X128226968Y-85349522D01*
X128170273Y-85597920D01*
X128151233Y-85851995D01*
X128151233Y-85852004D01*
X128170273Y-86106079D01*
X128226968Y-86354477D01*
X128226973Y-86354494D01*
X128320058Y-86591671D01*
X128320057Y-86591671D01*
X128447454Y-86812327D01*
X128447461Y-86812338D01*
X128489452Y-86864991D01*
X128489453Y-86864992D01*
X129291387Y-86063058D01*
X129296889Y-86083591D01*
X129375881Y-86220408D01*
X129487592Y-86332119D01*
X129624409Y-86411111D01*
X129644940Y-86416612D01*
X128842813Y-87218738D01*
X129003616Y-87328371D01*
X129003624Y-87328376D01*
X129185123Y-87415780D01*
X129236983Y-87462602D01*
X129255296Y-87530029D01*
X129234249Y-87596653D01*
X129180522Y-87641321D01*
X129131322Y-87651500D01*
X128608129Y-87651500D01*
X128608123Y-87651501D01*
X128548516Y-87657908D01*
X128413671Y-87708202D01*
X128413664Y-87708206D01*
X128298455Y-87794452D01*
X128298452Y-87794455D01*
X128212206Y-87909664D01*
X128212202Y-87909671D01*
X128161908Y-88044517D01*
X128155501Y-88104116D01*
X128155501Y-88104123D01*
X128155500Y-88104135D01*
X128155500Y-90599870D01*
X128155501Y-90599876D01*
X128161908Y-90659483D01*
X128212202Y-90794328D01*
X128212206Y-90794335D01*
X128298452Y-90909544D01*
X128298455Y-90909547D01*
X128413664Y-90995793D01*
X128413671Y-90995797D01*
X128548517Y-91046091D01*
X128548516Y-91046091D01*
X128555444Y-91046835D01*
X128608127Y-91052500D01*
X131103872Y-91052499D01*
X131163483Y-91046091D01*
X131298331Y-90995796D01*
X131413546Y-90909546D01*
X131499796Y-90794331D01*
X131550091Y-90659483D01*
X131556500Y-90599873D01*
X131556499Y-88104128D01*
X131550091Y-88044517D01*
X131540487Y-88018768D01*
X131499797Y-87909671D01*
X131499793Y-87909664D01*
X131413547Y-87794455D01*
X131413544Y-87794452D01*
X131298335Y-87708206D01*
X131298328Y-87708202D01*
X131163482Y-87657908D01*
X131163483Y-87657908D01*
X131103883Y-87651501D01*
X131103881Y-87651500D01*
X131103873Y-87651500D01*
X131103865Y-87651500D01*
X130580679Y-87651500D01*
X130513640Y-87631815D01*
X130467885Y-87579011D01*
X130457941Y-87509853D01*
X130486966Y-87446297D01*
X130526878Y-87415780D01*
X130708376Y-87328376D01*
X130708377Y-87328375D01*
X130869185Y-87218738D01*
X130067060Y-86416612D01*
X130087591Y-86411111D01*
X130224408Y-86332119D01*
X130336119Y-86220408D01*
X130415111Y-86083591D01*
X130420612Y-86063059D01*
X131222544Y-86864992D01*
X131222546Y-86864991D01*
X131264544Y-86812330D01*
X131391941Y-86591671D01*
X131485026Y-86354494D01*
X131485031Y-86354477D01*
X131541726Y-86106079D01*
X131560767Y-85852004D01*
X131560767Y-85851995D01*
X131541726Y-85597920D01*
X131485031Y-85349522D01*
X131485026Y-85349505D01*
X131391941Y-85112328D01*
X131391942Y-85112328D01*
X131264545Y-84891672D01*
X131222545Y-84839006D01*
X130420612Y-85640939D01*
X130415111Y-85620409D01*
X130336119Y-85483592D01*
X130224408Y-85371881D01*
X130087591Y-85292889D01*
X130067059Y-85287387D01*
X130869185Y-84485260D01*
X130708384Y-84375628D01*
X130708376Y-84375623D01*
X130478823Y-84265078D01*
X130478825Y-84265078D01*
X130335123Y-84220752D01*
X130276864Y-84182181D01*
X130248706Y-84118237D01*
X130259590Y-84049220D01*
X130306059Y-83997043D01*
X130335120Y-83983771D01*
X130479004Y-83939389D01*
X130708634Y-83828805D01*
X130919217Y-83685232D01*
X131106050Y-83511877D01*
X131264959Y-83312612D01*
X131392393Y-83091888D01*
X131485508Y-82854637D01*
X131542222Y-82606157D01*
X131561268Y-82352000D01*
X131554622Y-82263319D01*
X131542222Y-82097845D01*
X131515773Y-81981965D01*
X131485508Y-81849363D01*
X131392393Y-81612112D01*
X131264959Y-81391388D01*
X131106050Y-81192123D01*
X130919217Y-81018768D01*
X130708634Y-80875195D01*
X130708630Y-80875193D01*
X130708627Y-80875191D01*
X130708626Y-80875190D01*
X130479006Y-80764612D01*
X130479008Y-80764612D01*
X130235466Y-80689489D01*
X130235462Y-80689488D01*
X130235458Y-80689487D01*
X130114231Y-80671214D01*
X129983440Y-80651500D01*
X129983435Y-80651500D01*
X129728565Y-80651500D01*
X129728559Y-80651500D01*
X129571609Y-80675157D01*
X129476542Y-80689487D01*
X129476539Y-80689488D01*
X129476533Y-80689489D01*
X129232992Y-80764612D01*
X129003373Y-80875190D01*
X129003372Y-80875191D01*
X128792782Y-81018768D01*
X128605952Y-81192121D01*
X128605950Y-81192123D01*
X128447041Y-81391388D01*
X128319608Y-81612109D01*
X128226492Y-81849362D01*
X128226490Y-81849369D01*
X128169777Y-82097845D01*
X128150732Y-82351995D01*
X90991864Y-82351995D01*
X90985798Y-82263314D01*
X90927334Y-81981968D01*
X90831105Y-81711206D01*
X90831106Y-81711206D01*
X90698901Y-81456064D01*
X90533187Y-81221299D01*
X90423751Y-81104123D01*
X90337053Y-81011292D01*
X90114147Y-80829945D01*
X90114146Y-80829944D01*
X89868617Y-80680634D01*
X89605063Y-80566158D01*
X89605061Y-80566157D01*
X89605058Y-80566156D01*
X89475578Y-80529877D01*
X89328364Y-80488630D01*
X89328359Y-80488629D01*
X89328358Y-80488629D01*
X89186018Y-80469064D01*
X89043679Y-80449500D01*
X89043678Y-80449500D01*
X88756322Y-80449500D01*
X88756321Y-80449500D01*
X88471642Y-80488629D01*
X88471635Y-80488630D01*
X88263861Y-80546845D01*
X88194942Y-80566156D01*
X88194939Y-80566156D01*
X88194936Y-80566158D01*
X88194935Y-80566158D01*
X87931382Y-80680634D01*
X87685853Y-80829944D01*
X87462950Y-81011289D01*
X87266812Y-81221299D01*
X87101098Y-81456064D01*
X86968894Y-81711206D01*
X86872667Y-81981962D01*
X86872666Y-81981965D01*
X86814201Y-82263319D01*
X86794592Y-82550000D01*
X76273408Y-82550000D01*
X76253798Y-82263314D01*
X76195334Y-81981968D01*
X76099105Y-81711206D01*
X76099106Y-81711206D01*
X75966901Y-81456064D01*
X75801187Y-81221299D01*
X75691751Y-81104123D01*
X75605053Y-81011292D01*
X75382147Y-80829945D01*
X75382146Y-80829944D01*
X75136617Y-80680634D01*
X74873063Y-80566158D01*
X74873061Y-80566157D01*
X74873058Y-80566156D01*
X74743578Y-80529877D01*
X74596364Y-80488630D01*
X74596359Y-80488629D01*
X74596358Y-80488629D01*
X74454018Y-80469064D01*
X74311679Y-80449500D01*
X74311678Y-80449500D01*
X74024322Y-80449500D01*
X74024321Y-80449500D01*
X73739642Y-80488629D01*
X73739635Y-80488630D01*
X73531861Y-80546845D01*
X73462942Y-80566156D01*
X73462939Y-80566156D01*
X73462936Y-80566158D01*
X73462935Y-80566158D01*
X73199382Y-80680634D01*
X72953853Y-80829944D01*
X72730950Y-81011289D01*
X72534812Y-81221299D01*
X72369098Y-81456064D01*
X72236894Y-81711206D01*
X72140667Y-81981962D01*
X72140666Y-81981965D01*
X72082201Y-82263319D01*
X72062592Y-82550000D01*
X64500500Y-82550000D01*
X64500499Y-81104128D01*
X64494091Y-81044517D01*
X64484487Y-81018768D01*
X64443797Y-80909671D01*
X64443793Y-80909664D01*
X64357547Y-80794455D01*
X64357544Y-80794452D01*
X64242335Y-80708206D01*
X64242328Y-80708202D01*
X64107482Y-80657908D01*
X64107483Y-80657908D01*
X64047883Y-80651501D01*
X64047881Y-80651500D01*
X64047873Y-80651500D01*
X64047864Y-80651500D01*
X61552129Y-80651500D01*
X61552123Y-80651501D01*
X61492516Y-80657908D01*
X61357671Y-80708202D01*
X61357664Y-80708206D01*
X61242455Y-80794452D01*
X61242452Y-80794455D01*
X61156206Y-80909664D01*
X61156202Y-80909671D01*
X61105908Y-81044517D01*
X61099501Y-81104116D01*
X61099501Y-81104123D01*
X61099500Y-81104135D01*
X61099500Y-83599870D01*
X61099501Y-83599876D01*
X61105908Y-83659483D01*
X61156202Y-83794328D01*
X61156206Y-83794335D01*
X61242452Y-83909544D01*
X61242455Y-83909547D01*
X61357664Y-83995793D01*
X61357671Y-83995797D01*
X61492517Y-84046091D01*
X61492516Y-84046091D01*
X61499444Y-84046835D01*
X61552127Y-84052500D01*
X62075323Y-84052499D01*
X62142360Y-84072183D01*
X62188115Y-84124987D01*
X62198059Y-84194146D01*
X62169034Y-84257702D01*
X62129123Y-84288219D01*
X61947617Y-84375627D01*
X61947609Y-84375632D01*
X61786813Y-84485259D01*
X62588941Y-85287387D01*
X62568409Y-85292889D01*
X62431592Y-85371881D01*
X62319881Y-85483592D01*
X62240889Y-85620409D01*
X62235387Y-85640941D01*
X61433452Y-84839006D01*
X61391457Y-84891667D01*
X61264058Y-85112328D01*
X61170973Y-85349505D01*
X61170968Y-85349522D01*
X61114273Y-85597920D01*
X61095233Y-85851995D01*
X61095233Y-85852004D01*
X61114273Y-86106079D01*
X61170968Y-86354477D01*
X61170973Y-86354494D01*
X61264058Y-86591671D01*
X61264057Y-86591671D01*
X61391454Y-86812327D01*
X61391461Y-86812338D01*
X61433452Y-86864991D01*
X61433453Y-86864992D01*
X62235387Y-86063058D01*
X62240889Y-86083591D01*
X62319881Y-86220408D01*
X62431592Y-86332119D01*
X62568409Y-86411111D01*
X62588940Y-86416612D01*
X61786813Y-87218738D01*
X61947616Y-87328371D01*
X61947624Y-87328376D01*
X62177175Y-87438921D01*
X62320876Y-87483247D01*
X62379135Y-87521817D01*
X62407292Y-87585762D01*
X62396409Y-87654779D01*
X62349941Y-87706955D01*
X62320877Y-87720229D01*
X62176990Y-87764613D01*
X61947373Y-87875190D01*
X61947372Y-87875191D01*
X61736782Y-88018768D01*
X61549952Y-88192121D01*
X61549950Y-88192123D01*
X61391041Y-88391388D01*
X61263608Y-88612109D01*
X61170492Y-88849362D01*
X61170490Y-88849369D01*
X61113777Y-89097845D01*
X61094732Y-89351995D01*
X56896000Y-89351995D01*
X56896000Y-79755995D01*
X107007233Y-79755995D01*
X107007233Y-79756004D01*
X107026273Y-80010079D01*
X107082968Y-80258477D01*
X107082973Y-80258494D01*
X107176058Y-80495671D01*
X107176057Y-80495671D01*
X107303454Y-80716327D01*
X107303461Y-80716338D01*
X107345452Y-80768991D01*
X107345453Y-80768992D01*
X108147387Y-79967058D01*
X108152889Y-79987591D01*
X108231881Y-80124408D01*
X108343592Y-80236119D01*
X108480409Y-80315111D01*
X108500940Y-80320612D01*
X107698813Y-81122738D01*
X107859616Y-81232371D01*
X107859624Y-81232376D01*
X108089176Y-81342921D01*
X108089174Y-81342921D01*
X108332652Y-81418024D01*
X108332658Y-81418026D01*
X108584595Y-81455999D01*
X108584604Y-81456000D01*
X108839396Y-81456000D01*
X108839404Y-81455999D01*
X109091341Y-81418026D01*
X109091347Y-81418024D01*
X109334824Y-81342921D01*
X109564376Y-81232376D01*
X109564377Y-81232375D01*
X109725185Y-81122738D01*
X108923060Y-80320612D01*
X108943591Y-80315111D01*
X109080408Y-80236119D01*
X109192119Y-80124408D01*
X109271111Y-79987591D01*
X109276612Y-79967059D01*
X110078545Y-80768992D01*
X110078546Y-80768991D01*
X110120544Y-80716330D01*
X110247941Y-80495671D01*
X110341026Y-80258494D01*
X110341031Y-80258477D01*
X110397726Y-80010079D01*
X110416767Y-79756004D01*
X110416767Y-79755995D01*
X110397726Y-79501920D01*
X110341031Y-79253522D01*
X110341026Y-79253505D01*
X110247941Y-79016328D01*
X110247942Y-79016328D01*
X110120545Y-78795672D01*
X110078545Y-78743006D01*
X109276612Y-79544939D01*
X109271111Y-79524409D01*
X109192119Y-79387592D01*
X109080408Y-79275881D01*
X108943591Y-79196889D01*
X108923059Y-79191387D01*
X109725185Y-78389260D01*
X109564384Y-78279628D01*
X109564376Y-78279623D01*
X109334823Y-78169078D01*
X109334825Y-78169078D01*
X109091347Y-78093975D01*
X109091341Y-78093973D01*
X108839404Y-78056000D01*
X108584595Y-78056000D01*
X108332658Y-78093973D01*
X108332652Y-78093975D01*
X108089175Y-78169078D01*
X107859622Y-78279625D01*
X107859609Y-78279632D01*
X107698813Y-78389259D01*
X108500941Y-79191387D01*
X108480409Y-79196889D01*
X108343592Y-79275881D01*
X108231881Y-79387592D01*
X108152889Y-79524409D01*
X108147387Y-79544940D01*
X107345452Y-78743006D01*
X107303457Y-78795667D01*
X107176058Y-79016328D01*
X107082973Y-79253505D01*
X107082968Y-79253522D01*
X107026273Y-79501920D01*
X107007233Y-79755995D01*
X56896000Y-79755995D01*
X56896000Y-66314997D01*
X57655153Y-66314997D01*
X57655153Y-66315002D01*
X57674526Y-66672314D01*
X57674527Y-66672331D01*
X57732415Y-67025431D01*
X57732421Y-67025457D01*
X57828147Y-67370232D01*
X57828149Y-67370239D01*
X57960597Y-67702659D01*
X57960606Y-67702677D01*
X58128218Y-68018827D01*
X58329024Y-68314994D01*
X58329035Y-68315008D01*
X58456441Y-68465002D01*
X58456442Y-68465002D01*
X59665747Y-67255697D01*
X59739588Y-67357330D01*
X59917670Y-67535412D01*
X60019300Y-67609251D01*
X58807257Y-68821294D01*
X58820495Y-68833836D01*
X59105367Y-69050388D01*
X59105370Y-69050390D01*
X59411990Y-69234876D01*
X59736739Y-69385122D01*
X59736744Y-69385123D01*
X60075855Y-69499383D01*
X60425339Y-69576311D01*
X60781075Y-69614999D01*
X60781085Y-69615000D01*
X61138915Y-69615000D01*
X61138924Y-69614999D01*
X61494660Y-69576311D01*
X61844144Y-69499383D01*
X62183255Y-69385123D01*
X62183260Y-69385122D01*
X62508009Y-69234876D01*
X62814629Y-69050390D01*
X62814632Y-69050388D01*
X63099509Y-68833831D01*
X63112742Y-68821295D01*
X63112742Y-68821294D01*
X61900699Y-67609251D01*
X62002330Y-67535412D01*
X62180412Y-67357330D01*
X62254251Y-67255698D01*
X63463556Y-68465002D01*
X63590972Y-68314998D01*
X63590975Y-68314994D01*
X63667495Y-68202135D01*
X72067500Y-68202135D01*
X72067500Y-71497870D01*
X72067501Y-71497876D01*
X72073908Y-71557483D01*
X72124202Y-71692328D01*
X72124206Y-71692335D01*
X72210452Y-71807544D01*
X72210455Y-71807547D01*
X72325664Y-71893793D01*
X72325671Y-71893797D01*
X72460517Y-71944091D01*
X72460516Y-71944091D01*
X72467444Y-71944835D01*
X72520127Y-71950500D01*
X75815872Y-71950499D01*
X75875483Y-71944091D01*
X76010331Y-71893796D01*
X76125546Y-71807546D01*
X76211796Y-71692331D01*
X76262091Y-71557483D01*
X76268500Y-71497873D01*
X76268499Y-68202135D01*
X86799500Y-68202135D01*
X86799500Y-71497870D01*
X86799501Y-71497876D01*
X86805908Y-71557483D01*
X86856202Y-71692328D01*
X86856206Y-71692335D01*
X86942452Y-71807544D01*
X86942455Y-71807547D01*
X87057664Y-71893793D01*
X87057671Y-71893797D01*
X87192517Y-71944091D01*
X87192516Y-71944091D01*
X87199444Y-71944835D01*
X87252127Y-71950500D01*
X90547872Y-71950499D01*
X90607483Y-71944091D01*
X90742331Y-71893796D01*
X90857546Y-71807546D01*
X90943796Y-71692331D01*
X90994091Y-71557483D01*
X91000500Y-71497873D01*
X91000500Y-71008135D01*
X107011500Y-71008135D01*
X107011500Y-73503870D01*
X107011501Y-73503876D01*
X107017908Y-73563483D01*
X107068202Y-73698328D01*
X107068206Y-73698335D01*
X107154452Y-73813544D01*
X107154455Y-73813547D01*
X107269664Y-73899793D01*
X107269671Y-73899797D01*
X107404517Y-73950091D01*
X107404516Y-73950091D01*
X107411444Y-73950835D01*
X107464127Y-73956500D01*
X109959872Y-73956499D01*
X110019483Y-73950091D01*
X110154331Y-73899796D01*
X110269546Y-73813546D01*
X110355796Y-73698331D01*
X110406091Y-73563483D01*
X110412500Y-73503873D01*
X110412499Y-71008128D01*
X110406091Y-70948517D01*
X110380961Y-70881141D01*
X110355797Y-70813671D01*
X110355793Y-70813664D01*
X110269547Y-70698455D01*
X110269544Y-70698452D01*
X110154335Y-70612206D01*
X110154328Y-70612202D01*
X110019482Y-70561908D01*
X110019483Y-70561908D01*
X109959883Y-70555501D01*
X109959881Y-70555500D01*
X109959873Y-70555500D01*
X109959864Y-70555500D01*
X107464129Y-70555500D01*
X107464123Y-70555501D01*
X107404516Y-70561908D01*
X107269671Y-70612202D01*
X107269664Y-70612206D01*
X107154455Y-70698452D01*
X107154452Y-70698455D01*
X107068206Y-70813664D01*
X107068202Y-70813671D01*
X107017908Y-70948517D01*
X107011501Y-71008116D01*
X107011501Y-71008123D01*
X107011500Y-71008135D01*
X91000500Y-71008135D01*
X91000499Y-69595998D01*
X120146532Y-69595998D01*
X120146532Y-69596001D01*
X120166364Y-69822686D01*
X120166366Y-69822697D01*
X120225258Y-70042488D01*
X120225261Y-70042497D01*
X120321431Y-70248732D01*
X120321432Y-70248734D01*
X120451954Y-70435141D01*
X120612858Y-70596045D01*
X120612861Y-70596047D01*
X120799266Y-70726568D01*
X121005504Y-70822739D01*
X121225308Y-70881635D01*
X121387230Y-70895801D01*
X121451998Y-70901468D01*
X121452000Y-70901468D01*
X121452002Y-70901468D01*
X121508673Y-70896509D01*
X121678692Y-70881635D01*
X121898496Y-70822739D01*
X122104734Y-70726568D01*
X122291139Y-70596047D01*
X122452047Y-70435139D01*
X122582568Y-70248734D01*
X122678739Y-70042496D01*
X122737635Y-69822692D01*
X122757468Y-69596000D01*
X122757468Y-69595997D01*
X125147034Y-69595997D01*
X125147034Y-69596002D01*
X125166858Y-69822599D01*
X125166860Y-69822610D01*
X125225730Y-70042317D01*
X125225735Y-70042331D01*
X125321863Y-70248478D01*
X125372974Y-70321472D01*
X126052000Y-69642446D01*
X126052000Y-69648661D01*
X126079259Y-69750394D01*
X126131920Y-69841606D01*
X126206394Y-69916080D01*
X126297606Y-69968741D01*
X126399339Y-69996000D01*
X126405553Y-69996000D01*
X125726526Y-70675025D01*
X125799513Y-70726132D01*
X125799521Y-70726136D01*
X126005668Y-70822264D01*
X126005682Y-70822269D01*
X126225389Y-70881139D01*
X126225400Y-70881141D01*
X126451998Y-70900966D01*
X126452002Y-70900966D01*
X126678599Y-70881141D01*
X126678610Y-70881139D01*
X126898317Y-70822269D01*
X126898331Y-70822264D01*
X127104478Y-70726136D01*
X127177471Y-70675024D01*
X126498447Y-69996000D01*
X126504661Y-69996000D01*
X126606394Y-69968741D01*
X126697606Y-69916080D01*
X126772080Y-69841606D01*
X126824741Y-69750394D01*
X126852000Y-69648661D01*
X126852000Y-69642447D01*
X127531024Y-70321471D01*
X127582136Y-70248478D01*
X127678264Y-70042331D01*
X127678269Y-70042317D01*
X127737139Y-69822610D01*
X127737141Y-69822599D01*
X127756966Y-69596002D01*
X127756966Y-69595997D01*
X127737141Y-69369400D01*
X127737139Y-69369389D01*
X127678269Y-69149682D01*
X127678264Y-69149668D01*
X127582136Y-68943521D01*
X127582132Y-68943513D01*
X127531025Y-68870526D01*
X126852000Y-69549551D01*
X126852000Y-69543339D01*
X126824741Y-69441606D01*
X126772080Y-69350394D01*
X126697606Y-69275920D01*
X126606394Y-69223259D01*
X126504661Y-69196000D01*
X126498448Y-69196000D01*
X127177472Y-68516974D01*
X127104478Y-68465863D01*
X126898331Y-68369735D01*
X126898317Y-68369730D01*
X126678610Y-68310860D01*
X126678599Y-68310858D01*
X126452002Y-68291034D01*
X126451998Y-68291034D01*
X126225400Y-68310858D01*
X126225389Y-68310860D01*
X126005682Y-68369730D01*
X126005673Y-68369734D01*
X125799516Y-68465866D01*
X125799512Y-68465868D01*
X125726526Y-68516973D01*
X125726526Y-68516974D01*
X126405553Y-69196000D01*
X126399339Y-69196000D01*
X126297606Y-69223259D01*
X126206394Y-69275920D01*
X126131920Y-69350394D01*
X126079259Y-69441606D01*
X126052000Y-69543339D01*
X126052000Y-69549552D01*
X125372974Y-68870526D01*
X125372973Y-68870526D01*
X125321868Y-68943512D01*
X125321866Y-68943516D01*
X125225734Y-69149673D01*
X125225730Y-69149682D01*
X125166860Y-69369389D01*
X125166858Y-69369400D01*
X125147034Y-69595997D01*
X122757468Y-69595997D01*
X122755745Y-69576311D01*
X122743960Y-69441606D01*
X122737635Y-69369308D01*
X122678739Y-69149504D01*
X122582568Y-68943266D01*
X122452047Y-68756861D01*
X122452045Y-68756858D01*
X122291141Y-68595954D01*
X122104734Y-68465432D01*
X122104732Y-68465431D01*
X121898497Y-68369261D01*
X121898488Y-68369258D01*
X121678697Y-68310366D01*
X121678693Y-68310365D01*
X121678692Y-68310365D01*
X121678691Y-68310364D01*
X121678686Y-68310364D01*
X121452002Y-68290532D01*
X121451998Y-68290532D01*
X121225313Y-68310364D01*
X121225302Y-68310366D01*
X121005511Y-68369258D01*
X121005502Y-68369261D01*
X120799267Y-68465431D01*
X120799265Y-68465432D01*
X120612858Y-68595954D01*
X120451954Y-68756858D01*
X120321432Y-68943265D01*
X120321431Y-68943267D01*
X120225261Y-69149502D01*
X120225258Y-69149511D01*
X120166366Y-69369302D01*
X120166364Y-69369313D01*
X120146532Y-69595998D01*
X91000499Y-69595998D01*
X91000499Y-68202128D01*
X90994091Y-68142517D01*
X90955852Y-68039994D01*
X90943797Y-68007671D01*
X90943793Y-68007664D01*
X90857547Y-67892455D01*
X90857544Y-67892452D01*
X90742335Y-67806206D01*
X90742328Y-67806202D01*
X90607482Y-67755908D01*
X90607483Y-67755908D01*
X90547883Y-67749501D01*
X90547881Y-67749500D01*
X90547873Y-67749500D01*
X90547864Y-67749500D01*
X87252129Y-67749500D01*
X87252123Y-67749501D01*
X87192516Y-67755908D01*
X87057671Y-67806202D01*
X87057664Y-67806206D01*
X86942455Y-67892452D01*
X86942452Y-67892455D01*
X86856206Y-68007664D01*
X86856202Y-68007671D01*
X86805908Y-68142517D01*
X86799501Y-68202116D01*
X86799501Y-68202123D01*
X86799500Y-68202135D01*
X76268499Y-68202135D01*
X76268499Y-68202128D01*
X76262091Y-68142517D01*
X76223852Y-68039994D01*
X76211797Y-68007671D01*
X76211793Y-68007664D01*
X76125547Y-67892455D01*
X76125544Y-67892452D01*
X76010335Y-67806206D01*
X76010328Y-67806202D01*
X75875482Y-67755908D01*
X75875483Y-67755908D01*
X75815883Y-67749501D01*
X75815881Y-67749500D01*
X75815873Y-67749500D01*
X75815864Y-67749500D01*
X72520129Y-67749500D01*
X72520123Y-67749501D01*
X72460516Y-67755908D01*
X72325671Y-67806202D01*
X72325664Y-67806206D01*
X72210455Y-67892452D01*
X72210452Y-67892455D01*
X72124206Y-68007664D01*
X72124202Y-68007671D01*
X72073908Y-68142517D01*
X72067501Y-68202116D01*
X72067501Y-68202123D01*
X72067500Y-68202135D01*
X63667495Y-68202135D01*
X63791781Y-68018827D01*
X63959393Y-67702677D01*
X63959402Y-67702659D01*
X64091850Y-67370239D01*
X64091852Y-67370232D01*
X64187578Y-67025457D01*
X64187584Y-67025431D01*
X64245472Y-66672331D01*
X64245473Y-66672314D01*
X64264847Y-66315002D01*
X64264847Y-66314997D01*
X64249936Y-66039997D01*
X128775153Y-66039997D01*
X128775153Y-66040002D01*
X128794526Y-66397314D01*
X128794527Y-66397331D01*
X128852415Y-66750431D01*
X128852421Y-66750457D01*
X128948147Y-67095232D01*
X128948149Y-67095239D01*
X129080597Y-67427659D01*
X129080606Y-67427677D01*
X129248218Y-67743827D01*
X129449024Y-68039994D01*
X129449035Y-68040008D01*
X129576441Y-68190002D01*
X129576442Y-68190002D01*
X130785747Y-66980697D01*
X130859588Y-67082330D01*
X131037670Y-67260412D01*
X131139300Y-67334251D01*
X129927257Y-68546294D01*
X129940495Y-68558836D01*
X130225367Y-68775388D01*
X130225370Y-68775390D01*
X130531990Y-68959876D01*
X130856739Y-69110122D01*
X130856744Y-69110123D01*
X131195855Y-69224383D01*
X131545339Y-69301311D01*
X131901075Y-69339999D01*
X131901085Y-69340000D01*
X132258915Y-69340000D01*
X132258924Y-69339999D01*
X132614660Y-69301311D01*
X132964144Y-69224383D01*
X133303255Y-69110123D01*
X133303260Y-69110122D01*
X133628009Y-68959876D01*
X133934629Y-68775390D01*
X133934632Y-68775388D01*
X134219509Y-68558831D01*
X134232742Y-68546295D01*
X134232742Y-68546294D01*
X133020699Y-67334251D01*
X133122330Y-67260412D01*
X133300412Y-67082330D01*
X133374251Y-66980698D01*
X134583556Y-68190002D01*
X134710972Y-68039998D01*
X134710975Y-68039994D01*
X134911781Y-67743827D01*
X135079393Y-67427677D01*
X135079402Y-67427659D01*
X135211850Y-67095239D01*
X135211852Y-67095232D01*
X135307578Y-66750457D01*
X135307584Y-66750431D01*
X135365472Y-66397331D01*
X135365473Y-66397314D01*
X135384847Y-66040002D01*
X135384847Y-66039997D01*
X135365473Y-65682685D01*
X135365472Y-65682668D01*
X135307584Y-65329568D01*
X135307578Y-65329542D01*
X135211852Y-64984767D01*
X135211850Y-64984760D01*
X135079402Y-64652340D01*
X135079393Y-64652322D01*
X134911781Y-64336172D01*
X134710975Y-64040005D01*
X134710964Y-64039991D01*
X134583556Y-63889996D01*
X133374251Y-65099301D01*
X133300412Y-64997670D01*
X133122330Y-64819588D01*
X133020698Y-64745748D01*
X134232742Y-63533704D01*
X134219504Y-63521163D01*
X133934632Y-63304611D01*
X133934629Y-63304609D01*
X133628009Y-63120123D01*
X133303260Y-62969877D01*
X133303255Y-62969876D01*
X132964144Y-62855616D01*
X132614660Y-62778688D01*
X132258924Y-62740000D01*
X131901075Y-62740000D01*
X131545339Y-62778688D01*
X131195855Y-62855616D01*
X130856744Y-62969876D01*
X130856739Y-62969877D01*
X130531990Y-63120123D01*
X130225370Y-63304609D01*
X130225367Y-63304611D01*
X129940486Y-63521170D01*
X129940485Y-63521171D01*
X129927257Y-63533702D01*
X129927256Y-63533703D01*
X131139301Y-64745748D01*
X131037670Y-64819588D01*
X130859588Y-64997670D01*
X130785748Y-65099301D01*
X129576442Y-63889995D01*
X129576441Y-63889996D01*
X129449033Y-64039992D01*
X129248218Y-64336172D01*
X129080606Y-64652322D01*
X129080597Y-64652340D01*
X128948149Y-64984760D01*
X128948147Y-64984767D01*
X128852421Y-65329542D01*
X128852415Y-65329568D01*
X128794527Y-65682668D01*
X128794526Y-65682685D01*
X128775153Y-66039997D01*
X64249936Y-66039997D01*
X64245473Y-65957685D01*
X64245472Y-65957668D01*
X64187584Y-65604568D01*
X64187578Y-65604542D01*
X64091852Y-65259767D01*
X64091850Y-65259760D01*
X63959402Y-64927340D01*
X63959393Y-64927322D01*
X63791781Y-64611172D01*
X63590975Y-64315005D01*
X63590964Y-64314991D01*
X63463556Y-64164996D01*
X62254251Y-65374301D01*
X62180412Y-65272670D01*
X62002330Y-65094588D01*
X61900698Y-65020748D01*
X63112742Y-63808704D01*
X63099504Y-63796163D01*
X62814632Y-63579611D01*
X62814629Y-63579609D01*
X62508009Y-63395123D01*
X62183260Y-63244877D01*
X62183255Y-63244876D01*
X61844144Y-63130616D01*
X61494660Y-63053688D01*
X61138924Y-63015000D01*
X60781075Y-63015000D01*
X60425339Y-63053688D01*
X60075855Y-63130616D01*
X59736744Y-63244876D01*
X59736739Y-63244877D01*
X59411990Y-63395123D01*
X59105370Y-63579609D01*
X59105367Y-63579611D01*
X58820486Y-63796170D01*
X58820485Y-63796171D01*
X58807257Y-63808702D01*
X58807256Y-63808703D01*
X60019301Y-65020748D01*
X59917670Y-65094588D01*
X59739588Y-65272670D01*
X59665748Y-65374301D01*
X58456442Y-64164995D01*
X58456441Y-64164996D01*
X58329033Y-64314992D01*
X58128218Y-64611172D01*
X57960606Y-64927322D01*
X57960597Y-64927340D01*
X57828149Y-65259760D01*
X57828147Y-65259767D01*
X57732421Y-65604542D01*
X57732415Y-65604568D01*
X57674527Y-65957668D01*
X57674526Y-65957685D01*
X57655153Y-66314997D01*
X56896000Y-66314997D01*
X56896000Y-65233480D01*
X56896195Y-65226528D01*
X56896800Y-65215753D01*
X56914473Y-64901048D01*
X56916027Y-64887253D01*
X56970049Y-64569299D01*
X56973143Y-64555747D01*
X57062423Y-64245851D01*
X57067016Y-64232727D01*
X57095071Y-64164995D01*
X57190430Y-63934775D01*
X57196452Y-63922269D01*
X57352467Y-63639983D01*
X57359854Y-63628228D01*
X57546482Y-63365201D01*
X57555128Y-63354358D01*
X57770049Y-63113861D01*
X57779861Y-63104049D01*
X58020358Y-62889128D01*
X58031201Y-62880482D01*
X58294228Y-62693854D01*
X58305983Y-62686467D01*
X58588269Y-62530452D01*
X58600775Y-62524430D01*
X58898727Y-62401016D01*
X58911847Y-62396424D01*
X59221753Y-62307141D01*
X59235299Y-62304049D01*
X59553253Y-62250027D01*
X59567048Y-62248473D01*
X59855283Y-62232286D01*
X59892529Y-62230195D01*
X59899481Y-62230000D01*
X133140519Y-62230000D01*
X133147471Y-62230195D01*
G37*
%TD.AperFunction*%
%TD*%
M02*
