%TF.GenerationSoftware,KiCad,Pcbnew,8.0.4*%
%TF.CreationDate,2024-09-01T10:08:45-04:00*%
%TF.ProjectId,power_supply,706f7765-725f-4737-9570-706c792e6b69,rev?*%
%TF.SameCoordinates,Original*%
%TF.FileFunction,Legend,Top*%
%TF.FilePolarity,Positive*%
%FSLAX46Y46*%
G04 Gerber Fmt 4.6, Leading zero omitted, Abs format (unit mm)*
G04 Created by KiCad (PCBNEW 8.0.4) date 2024-09-01 10:08:45*
%MOMM*%
%LPD*%
G01*
G04 APERTURE LIST*
%ADD10C,0.100000*%
%ADD11C,0.150000*%
%ADD12C,0.120000*%
G04 APERTURE END LIST*
D10*
X67867884Y-64388419D02*
X67867884Y-63388419D01*
X67867884Y-63388419D02*
X68105979Y-63388419D01*
X68105979Y-63388419D02*
X68248836Y-63436038D01*
X68248836Y-63436038D02*
X68344074Y-63531276D01*
X68344074Y-63531276D02*
X68391693Y-63626514D01*
X68391693Y-63626514D02*
X68439312Y-63816990D01*
X68439312Y-63816990D02*
X68439312Y-63959847D01*
X68439312Y-63959847D02*
X68391693Y-64150323D01*
X68391693Y-64150323D02*
X68344074Y-64245561D01*
X68344074Y-64245561D02*
X68248836Y-64340800D01*
X68248836Y-64340800D02*
X68105979Y-64388419D01*
X68105979Y-64388419D02*
X67867884Y-64388419D01*
X69248836Y-64340800D02*
X69153598Y-64388419D01*
X69153598Y-64388419D02*
X68963122Y-64388419D01*
X68963122Y-64388419D02*
X68867884Y-64340800D01*
X68867884Y-64340800D02*
X68820265Y-64245561D01*
X68820265Y-64245561D02*
X68820265Y-63864609D01*
X68820265Y-63864609D02*
X68867884Y-63769371D01*
X68867884Y-63769371D02*
X68963122Y-63721752D01*
X68963122Y-63721752D02*
X69153598Y-63721752D01*
X69153598Y-63721752D02*
X69248836Y-63769371D01*
X69248836Y-63769371D02*
X69296455Y-63864609D01*
X69296455Y-63864609D02*
X69296455Y-63959847D01*
X69296455Y-63959847D02*
X68820265Y-64055085D01*
X69677408Y-64340800D02*
X69772646Y-64388419D01*
X69772646Y-64388419D02*
X69963122Y-64388419D01*
X69963122Y-64388419D02*
X70058360Y-64340800D01*
X70058360Y-64340800D02*
X70105979Y-64245561D01*
X70105979Y-64245561D02*
X70105979Y-64197942D01*
X70105979Y-64197942D02*
X70058360Y-64102704D01*
X70058360Y-64102704D02*
X69963122Y-64055085D01*
X69963122Y-64055085D02*
X69820265Y-64055085D01*
X69820265Y-64055085D02*
X69725027Y-64007466D01*
X69725027Y-64007466D02*
X69677408Y-63912228D01*
X69677408Y-63912228D02*
X69677408Y-63864609D01*
X69677408Y-63864609D02*
X69725027Y-63769371D01*
X69725027Y-63769371D02*
X69820265Y-63721752D01*
X69820265Y-63721752D02*
X69963122Y-63721752D01*
X69963122Y-63721752D02*
X70058360Y-63769371D01*
X70534551Y-64388419D02*
X70534551Y-63721752D01*
X70534551Y-63388419D02*
X70486932Y-63436038D01*
X70486932Y-63436038D02*
X70534551Y-63483657D01*
X70534551Y-63483657D02*
X70582170Y-63436038D01*
X70582170Y-63436038D02*
X70534551Y-63388419D01*
X70534551Y-63388419D02*
X70534551Y-63483657D01*
X71439312Y-63721752D02*
X71439312Y-64531276D01*
X71439312Y-64531276D02*
X71391693Y-64626514D01*
X71391693Y-64626514D02*
X71344074Y-64674133D01*
X71344074Y-64674133D02*
X71248836Y-64721752D01*
X71248836Y-64721752D02*
X71105979Y-64721752D01*
X71105979Y-64721752D02*
X71010741Y-64674133D01*
X71439312Y-64340800D02*
X71344074Y-64388419D01*
X71344074Y-64388419D02*
X71153598Y-64388419D01*
X71153598Y-64388419D02*
X71058360Y-64340800D01*
X71058360Y-64340800D02*
X71010741Y-64293180D01*
X71010741Y-64293180D02*
X70963122Y-64197942D01*
X70963122Y-64197942D02*
X70963122Y-63912228D01*
X70963122Y-63912228D02*
X71010741Y-63816990D01*
X71010741Y-63816990D02*
X71058360Y-63769371D01*
X71058360Y-63769371D02*
X71153598Y-63721752D01*
X71153598Y-63721752D02*
X71344074Y-63721752D01*
X71344074Y-63721752D02*
X71439312Y-63769371D01*
X71915503Y-63721752D02*
X71915503Y-64388419D01*
X71915503Y-63816990D02*
X71963122Y-63769371D01*
X71963122Y-63769371D02*
X72058360Y-63721752D01*
X72058360Y-63721752D02*
X72201217Y-63721752D01*
X72201217Y-63721752D02*
X72296455Y-63769371D01*
X72296455Y-63769371D02*
X72344074Y-63864609D01*
X72344074Y-63864609D02*
X72344074Y-64388419D01*
X73201217Y-64340800D02*
X73105979Y-64388419D01*
X73105979Y-64388419D02*
X72915503Y-64388419D01*
X72915503Y-64388419D02*
X72820265Y-64340800D01*
X72820265Y-64340800D02*
X72772646Y-64245561D01*
X72772646Y-64245561D02*
X72772646Y-63864609D01*
X72772646Y-63864609D02*
X72820265Y-63769371D01*
X72820265Y-63769371D02*
X72915503Y-63721752D01*
X72915503Y-63721752D02*
X73105979Y-63721752D01*
X73105979Y-63721752D02*
X73201217Y-63769371D01*
X73201217Y-63769371D02*
X73248836Y-63864609D01*
X73248836Y-63864609D02*
X73248836Y-63959847D01*
X73248836Y-63959847D02*
X72772646Y-64055085D01*
X74105979Y-64388419D02*
X74105979Y-63388419D01*
X74105979Y-64340800D02*
X74010741Y-64388419D01*
X74010741Y-64388419D02*
X73820265Y-64388419D01*
X73820265Y-64388419D02*
X73725027Y-64340800D01*
X73725027Y-64340800D02*
X73677408Y-64293180D01*
X73677408Y-64293180D02*
X73629789Y-64197942D01*
X73629789Y-64197942D02*
X73629789Y-63912228D01*
X73629789Y-63912228D02*
X73677408Y-63816990D01*
X73677408Y-63816990D02*
X73725027Y-63769371D01*
X73725027Y-63769371D02*
X73820265Y-63721752D01*
X73820265Y-63721752D02*
X74010741Y-63721752D01*
X74010741Y-63721752D02*
X74105979Y-63769371D01*
X75344075Y-64388419D02*
X75344075Y-63388419D01*
X75344075Y-63769371D02*
X75439313Y-63721752D01*
X75439313Y-63721752D02*
X75629789Y-63721752D01*
X75629789Y-63721752D02*
X75725027Y-63769371D01*
X75725027Y-63769371D02*
X75772646Y-63816990D01*
X75772646Y-63816990D02*
X75820265Y-63912228D01*
X75820265Y-63912228D02*
X75820265Y-64197942D01*
X75820265Y-64197942D02*
X75772646Y-64293180D01*
X75772646Y-64293180D02*
X75725027Y-64340800D01*
X75725027Y-64340800D02*
X75629789Y-64388419D01*
X75629789Y-64388419D02*
X75439313Y-64388419D01*
X75439313Y-64388419D02*
X75344075Y-64340800D01*
X76153599Y-63721752D02*
X76391694Y-64388419D01*
X76629789Y-63721752D02*
X76391694Y-64388419D01*
X76391694Y-64388419D02*
X76296456Y-64626514D01*
X76296456Y-64626514D02*
X76248837Y-64674133D01*
X76248837Y-64674133D02*
X76153599Y-64721752D01*
X77772647Y-64388419D02*
X77772647Y-63388419D01*
X77772647Y-63388419D02*
X78153599Y-63388419D01*
X78153599Y-63388419D02*
X78248837Y-63436038D01*
X78248837Y-63436038D02*
X78296456Y-63483657D01*
X78296456Y-63483657D02*
X78344075Y-63578895D01*
X78344075Y-63578895D02*
X78344075Y-63721752D01*
X78344075Y-63721752D02*
X78296456Y-63816990D01*
X78296456Y-63816990D02*
X78248837Y-63864609D01*
X78248837Y-63864609D02*
X78153599Y-63912228D01*
X78153599Y-63912228D02*
X77772647Y-63912228D01*
X78915504Y-64388419D02*
X78820266Y-64340800D01*
X78820266Y-64340800D02*
X78772647Y-64293180D01*
X78772647Y-64293180D02*
X78725028Y-64197942D01*
X78725028Y-64197942D02*
X78725028Y-63912228D01*
X78725028Y-63912228D02*
X78772647Y-63816990D01*
X78772647Y-63816990D02*
X78820266Y-63769371D01*
X78820266Y-63769371D02*
X78915504Y-63721752D01*
X78915504Y-63721752D02*
X79058361Y-63721752D01*
X79058361Y-63721752D02*
X79153599Y-63769371D01*
X79153599Y-63769371D02*
X79201218Y-63816990D01*
X79201218Y-63816990D02*
X79248837Y-63912228D01*
X79248837Y-63912228D02*
X79248837Y-64197942D01*
X79248837Y-64197942D02*
X79201218Y-64293180D01*
X79201218Y-64293180D02*
X79153599Y-64340800D01*
X79153599Y-64340800D02*
X79058361Y-64388419D01*
X79058361Y-64388419D02*
X78915504Y-64388419D01*
X79677409Y-63721752D02*
X79677409Y-64388419D01*
X79677409Y-63816990D02*
X79725028Y-63769371D01*
X79725028Y-63769371D02*
X79820266Y-63721752D01*
X79820266Y-63721752D02*
X79963123Y-63721752D01*
X79963123Y-63721752D02*
X80058361Y-63769371D01*
X80058361Y-63769371D02*
X80105980Y-63864609D01*
X80105980Y-63864609D02*
X80105980Y-64388419D01*
X80439314Y-63721752D02*
X80820266Y-63721752D01*
X80582171Y-63388419D02*
X80582171Y-64245561D01*
X80582171Y-64245561D02*
X80629790Y-64340800D01*
X80629790Y-64340800D02*
X80725028Y-64388419D01*
X80725028Y-64388419D02*
X80820266Y-64388419D01*
X81582171Y-63721752D02*
X81582171Y-64388419D01*
X81153600Y-63721752D02*
X81153600Y-64245561D01*
X81153600Y-64245561D02*
X81201219Y-64340800D01*
X81201219Y-64340800D02*
X81296457Y-64388419D01*
X81296457Y-64388419D02*
X81439314Y-64388419D01*
X81439314Y-64388419D02*
X81534552Y-64340800D01*
X81534552Y-64340800D02*
X81582171Y-64293180D01*
X82010743Y-64340800D02*
X82105981Y-64388419D01*
X82105981Y-64388419D02*
X82296457Y-64388419D01*
X82296457Y-64388419D02*
X82391695Y-64340800D01*
X82391695Y-64340800D02*
X82439314Y-64245561D01*
X82439314Y-64245561D02*
X82439314Y-64197942D01*
X82439314Y-64197942D02*
X82391695Y-64102704D01*
X82391695Y-64102704D02*
X82296457Y-64055085D01*
X82296457Y-64055085D02*
X82153600Y-64055085D01*
X82153600Y-64055085D02*
X82058362Y-64007466D01*
X82058362Y-64007466D02*
X82010743Y-63912228D01*
X82010743Y-63912228D02*
X82010743Y-63864609D01*
X82010743Y-63864609D02*
X82058362Y-63769371D01*
X82058362Y-63769371D02*
X82153600Y-63721752D01*
X82153600Y-63721752D02*
X82296457Y-63721752D01*
X82296457Y-63721752D02*
X82391695Y-63769371D01*
X84201219Y-64388419D02*
X83867886Y-63912228D01*
X83629791Y-64388419D02*
X83629791Y-63388419D01*
X83629791Y-63388419D02*
X84010743Y-63388419D01*
X84010743Y-63388419D02*
X84105981Y-63436038D01*
X84105981Y-63436038D02*
X84153600Y-63483657D01*
X84153600Y-63483657D02*
X84201219Y-63578895D01*
X84201219Y-63578895D02*
X84201219Y-63721752D01*
X84201219Y-63721752D02*
X84153600Y-63816990D01*
X84153600Y-63816990D02*
X84105981Y-63864609D01*
X84105981Y-63864609D02*
X84010743Y-63912228D01*
X84010743Y-63912228D02*
X83629791Y-63912228D01*
X84534553Y-63721752D02*
X84772648Y-64388419D01*
X85010743Y-63721752D02*
X84772648Y-64388419D01*
X84772648Y-64388419D02*
X84677410Y-64626514D01*
X84677410Y-64626514D02*
X84629791Y-64674133D01*
X84629791Y-64674133D02*
X84534553Y-64721752D01*
X85820267Y-64388419D02*
X85820267Y-63388419D01*
X85820267Y-64340800D02*
X85725029Y-64388419D01*
X85725029Y-64388419D02*
X85534553Y-64388419D01*
X85534553Y-64388419D02*
X85439315Y-64340800D01*
X85439315Y-64340800D02*
X85391696Y-64293180D01*
X85391696Y-64293180D02*
X85344077Y-64197942D01*
X85344077Y-64197942D02*
X85344077Y-63912228D01*
X85344077Y-63912228D02*
X85391696Y-63816990D01*
X85391696Y-63816990D02*
X85439315Y-63769371D01*
X85439315Y-63769371D02*
X85534553Y-63721752D01*
X85534553Y-63721752D02*
X85725029Y-63721752D01*
X85725029Y-63721752D02*
X85820267Y-63769371D01*
X86296458Y-64388419D02*
X86296458Y-63721752D01*
X86296458Y-63388419D02*
X86248839Y-63436038D01*
X86248839Y-63436038D02*
X86296458Y-63483657D01*
X86296458Y-63483657D02*
X86344077Y-63436038D01*
X86344077Y-63436038D02*
X86296458Y-63388419D01*
X86296458Y-63388419D02*
X86296458Y-63483657D01*
X86772648Y-63721752D02*
X86772648Y-64388419D01*
X86772648Y-63816990D02*
X86820267Y-63769371D01*
X86820267Y-63769371D02*
X86915505Y-63721752D01*
X86915505Y-63721752D02*
X87058362Y-63721752D01*
X87058362Y-63721752D02*
X87153600Y-63769371D01*
X87153600Y-63769371D02*
X87201219Y-63864609D01*
X87201219Y-63864609D02*
X87201219Y-64388419D01*
X87677410Y-64293180D02*
X87725029Y-64340800D01*
X87725029Y-64340800D02*
X87677410Y-64388419D01*
X87677410Y-64388419D02*
X87629791Y-64340800D01*
X87629791Y-64340800D02*
X87677410Y-64293180D01*
X87677410Y-64293180D02*
X87677410Y-64388419D01*
X88915505Y-64388419D02*
X88915505Y-63388419D01*
X89344076Y-64388419D02*
X89344076Y-63864609D01*
X89344076Y-63864609D02*
X89296457Y-63769371D01*
X89296457Y-63769371D02*
X89201219Y-63721752D01*
X89201219Y-63721752D02*
X89058362Y-63721752D01*
X89058362Y-63721752D02*
X88963124Y-63769371D01*
X88963124Y-63769371D02*
X88915505Y-63816990D01*
X89677410Y-63721752D02*
X90058362Y-63721752D01*
X89820267Y-63388419D02*
X89820267Y-64245561D01*
X89820267Y-64245561D02*
X89867886Y-64340800D01*
X89867886Y-64340800D02*
X89963124Y-64388419D01*
X89963124Y-64388419D02*
X90058362Y-64388419D01*
X90248839Y-63721752D02*
X90629791Y-63721752D01*
X90391696Y-63388419D02*
X90391696Y-64245561D01*
X90391696Y-64245561D02*
X90439315Y-64340800D01*
X90439315Y-64340800D02*
X90534553Y-64388419D01*
X90534553Y-64388419D02*
X90629791Y-64388419D01*
X90963125Y-63721752D02*
X90963125Y-64721752D01*
X90963125Y-63769371D02*
X91058363Y-63721752D01*
X91058363Y-63721752D02*
X91248839Y-63721752D01*
X91248839Y-63721752D02*
X91344077Y-63769371D01*
X91344077Y-63769371D02*
X91391696Y-63816990D01*
X91391696Y-63816990D02*
X91439315Y-63912228D01*
X91439315Y-63912228D02*
X91439315Y-64197942D01*
X91439315Y-64197942D02*
X91391696Y-64293180D01*
X91391696Y-64293180D02*
X91344077Y-64340800D01*
X91344077Y-64340800D02*
X91248839Y-64388419D01*
X91248839Y-64388419D02*
X91058363Y-64388419D01*
X91058363Y-64388419D02*
X90963125Y-64340800D01*
X91820268Y-64340800D02*
X91915506Y-64388419D01*
X91915506Y-64388419D02*
X92105982Y-64388419D01*
X92105982Y-64388419D02*
X92201220Y-64340800D01*
X92201220Y-64340800D02*
X92248839Y-64245561D01*
X92248839Y-64245561D02*
X92248839Y-64197942D01*
X92248839Y-64197942D02*
X92201220Y-64102704D01*
X92201220Y-64102704D02*
X92105982Y-64055085D01*
X92105982Y-64055085D02*
X91963125Y-64055085D01*
X91963125Y-64055085D02*
X91867887Y-64007466D01*
X91867887Y-64007466D02*
X91820268Y-63912228D01*
X91820268Y-63912228D02*
X91820268Y-63864609D01*
X91820268Y-63864609D02*
X91867887Y-63769371D01*
X91867887Y-63769371D02*
X91963125Y-63721752D01*
X91963125Y-63721752D02*
X92105982Y-63721752D01*
X92105982Y-63721752D02*
X92201220Y-63769371D01*
X92677411Y-64293180D02*
X92725030Y-64340800D01*
X92725030Y-64340800D02*
X92677411Y-64388419D01*
X92677411Y-64388419D02*
X92629792Y-64340800D01*
X92629792Y-64340800D02*
X92677411Y-64293180D01*
X92677411Y-64293180D02*
X92677411Y-64388419D01*
X92677411Y-63769371D02*
X92725030Y-63816990D01*
X92725030Y-63816990D02*
X92677411Y-63864609D01*
X92677411Y-63864609D02*
X92629792Y-63816990D01*
X92629792Y-63816990D02*
X92677411Y-63769371D01*
X92677411Y-63769371D02*
X92677411Y-63864609D01*
X93867886Y-63340800D02*
X93010744Y-64626514D01*
X94915505Y-63340800D02*
X94058363Y-64626514D01*
X95677410Y-63721752D02*
X95677410Y-64531276D01*
X95677410Y-64531276D02*
X95629791Y-64626514D01*
X95629791Y-64626514D02*
X95582172Y-64674133D01*
X95582172Y-64674133D02*
X95486934Y-64721752D01*
X95486934Y-64721752D02*
X95344077Y-64721752D01*
X95344077Y-64721752D02*
X95248839Y-64674133D01*
X95677410Y-64340800D02*
X95582172Y-64388419D01*
X95582172Y-64388419D02*
X95391696Y-64388419D01*
X95391696Y-64388419D02*
X95296458Y-64340800D01*
X95296458Y-64340800D02*
X95248839Y-64293180D01*
X95248839Y-64293180D02*
X95201220Y-64197942D01*
X95201220Y-64197942D02*
X95201220Y-63912228D01*
X95201220Y-63912228D02*
X95248839Y-63816990D01*
X95248839Y-63816990D02*
X95296458Y-63769371D01*
X95296458Y-63769371D02*
X95391696Y-63721752D01*
X95391696Y-63721752D02*
X95582172Y-63721752D01*
X95582172Y-63721752D02*
X95677410Y-63769371D01*
X96153601Y-64388419D02*
X96153601Y-63721752D01*
X96153601Y-63388419D02*
X96105982Y-63436038D01*
X96105982Y-63436038D02*
X96153601Y-63483657D01*
X96153601Y-63483657D02*
X96201220Y-63436038D01*
X96201220Y-63436038D02*
X96153601Y-63388419D01*
X96153601Y-63388419D02*
X96153601Y-63483657D01*
X96486934Y-63721752D02*
X96867886Y-63721752D01*
X96629791Y-63388419D02*
X96629791Y-64245561D01*
X96629791Y-64245561D02*
X96677410Y-64340800D01*
X96677410Y-64340800D02*
X96772648Y-64388419D01*
X96772648Y-64388419D02*
X96867886Y-64388419D01*
X97201220Y-64388419D02*
X97201220Y-63388419D01*
X97629791Y-64388419D02*
X97629791Y-63864609D01*
X97629791Y-63864609D02*
X97582172Y-63769371D01*
X97582172Y-63769371D02*
X97486934Y-63721752D01*
X97486934Y-63721752D02*
X97344077Y-63721752D01*
X97344077Y-63721752D02*
X97248839Y-63769371D01*
X97248839Y-63769371D02*
X97201220Y-63816990D01*
X98534553Y-63721752D02*
X98534553Y-64388419D01*
X98105982Y-63721752D02*
X98105982Y-64245561D01*
X98105982Y-64245561D02*
X98153601Y-64340800D01*
X98153601Y-64340800D02*
X98248839Y-64388419D01*
X98248839Y-64388419D02*
X98391696Y-64388419D01*
X98391696Y-64388419D02*
X98486934Y-64340800D01*
X98486934Y-64340800D02*
X98534553Y-64293180D01*
X99010744Y-64388419D02*
X99010744Y-63388419D01*
X99010744Y-63769371D02*
X99105982Y-63721752D01*
X99105982Y-63721752D02*
X99296458Y-63721752D01*
X99296458Y-63721752D02*
X99391696Y-63769371D01*
X99391696Y-63769371D02*
X99439315Y-63816990D01*
X99439315Y-63816990D02*
X99486934Y-63912228D01*
X99486934Y-63912228D02*
X99486934Y-64197942D01*
X99486934Y-64197942D02*
X99439315Y-64293180D01*
X99439315Y-64293180D02*
X99391696Y-64340800D01*
X99391696Y-64340800D02*
X99296458Y-64388419D01*
X99296458Y-64388419D02*
X99105982Y-64388419D01*
X99105982Y-64388419D02*
X99010744Y-64340800D01*
X99915506Y-64293180D02*
X99963125Y-64340800D01*
X99963125Y-64340800D02*
X99915506Y-64388419D01*
X99915506Y-64388419D02*
X99867887Y-64340800D01*
X99867887Y-64340800D02*
X99915506Y-64293180D01*
X99915506Y-64293180D02*
X99915506Y-64388419D01*
X100820267Y-64340800D02*
X100725029Y-64388419D01*
X100725029Y-64388419D02*
X100534553Y-64388419D01*
X100534553Y-64388419D02*
X100439315Y-64340800D01*
X100439315Y-64340800D02*
X100391696Y-64293180D01*
X100391696Y-64293180D02*
X100344077Y-64197942D01*
X100344077Y-64197942D02*
X100344077Y-63912228D01*
X100344077Y-63912228D02*
X100391696Y-63816990D01*
X100391696Y-63816990D02*
X100439315Y-63769371D01*
X100439315Y-63769371D02*
X100534553Y-63721752D01*
X100534553Y-63721752D02*
X100725029Y-63721752D01*
X100725029Y-63721752D02*
X100820267Y-63769371D01*
X101391696Y-64388419D02*
X101296458Y-64340800D01*
X101296458Y-64340800D02*
X101248839Y-64293180D01*
X101248839Y-64293180D02*
X101201220Y-64197942D01*
X101201220Y-64197942D02*
X101201220Y-63912228D01*
X101201220Y-63912228D02*
X101248839Y-63816990D01*
X101248839Y-63816990D02*
X101296458Y-63769371D01*
X101296458Y-63769371D02*
X101391696Y-63721752D01*
X101391696Y-63721752D02*
X101534553Y-63721752D01*
X101534553Y-63721752D02*
X101629791Y-63769371D01*
X101629791Y-63769371D02*
X101677410Y-63816990D01*
X101677410Y-63816990D02*
X101725029Y-63912228D01*
X101725029Y-63912228D02*
X101725029Y-64197942D01*
X101725029Y-64197942D02*
X101677410Y-64293180D01*
X101677410Y-64293180D02*
X101629791Y-64340800D01*
X101629791Y-64340800D02*
X101534553Y-64388419D01*
X101534553Y-64388419D02*
X101391696Y-64388419D01*
X102153601Y-64388419D02*
X102153601Y-63721752D01*
X102153601Y-63816990D02*
X102201220Y-63769371D01*
X102201220Y-63769371D02*
X102296458Y-63721752D01*
X102296458Y-63721752D02*
X102439315Y-63721752D01*
X102439315Y-63721752D02*
X102534553Y-63769371D01*
X102534553Y-63769371D02*
X102582172Y-63864609D01*
X102582172Y-63864609D02*
X102582172Y-64388419D01*
X102582172Y-63864609D02*
X102629791Y-63769371D01*
X102629791Y-63769371D02*
X102725029Y-63721752D01*
X102725029Y-63721752D02*
X102867886Y-63721752D01*
X102867886Y-63721752D02*
X102963125Y-63769371D01*
X102963125Y-63769371D02*
X103010744Y-63864609D01*
X103010744Y-63864609D02*
X103010744Y-64388419D01*
X104201219Y-63340800D02*
X103344077Y-64626514D01*
X104534553Y-63721752D02*
X104534553Y-64721752D01*
X104534553Y-63769371D02*
X104629791Y-63721752D01*
X104629791Y-63721752D02*
X104820267Y-63721752D01*
X104820267Y-63721752D02*
X104915505Y-63769371D01*
X104915505Y-63769371D02*
X104963124Y-63816990D01*
X104963124Y-63816990D02*
X105010743Y-63912228D01*
X105010743Y-63912228D02*
X105010743Y-64197942D01*
X105010743Y-64197942D02*
X104963124Y-64293180D01*
X104963124Y-64293180D02*
X104915505Y-64340800D01*
X104915505Y-64340800D02*
X104820267Y-64388419D01*
X104820267Y-64388419D02*
X104629791Y-64388419D01*
X104629791Y-64388419D02*
X104534553Y-64340800D01*
X105439315Y-64388419D02*
X105439315Y-63721752D01*
X105439315Y-63912228D02*
X105486934Y-63816990D01*
X105486934Y-63816990D02*
X105534553Y-63769371D01*
X105534553Y-63769371D02*
X105629791Y-63721752D01*
X105629791Y-63721752D02*
X105725029Y-63721752D01*
X105963125Y-63721752D02*
X106201220Y-64388419D01*
X106439315Y-63721752D02*
X106201220Y-64388419D01*
X106201220Y-64388419D02*
X106105982Y-64626514D01*
X106105982Y-64626514D02*
X106058363Y-64674133D01*
X106058363Y-64674133D02*
X105963125Y-64721752D01*
X107248839Y-64388419D02*
X107248839Y-63388419D01*
X107248839Y-64340800D02*
X107153601Y-64388419D01*
X107153601Y-64388419D02*
X106963125Y-64388419D01*
X106963125Y-64388419D02*
X106867887Y-64340800D01*
X106867887Y-64340800D02*
X106820268Y-64293180D01*
X106820268Y-64293180D02*
X106772649Y-64197942D01*
X106772649Y-64197942D02*
X106772649Y-63912228D01*
X106772649Y-63912228D02*
X106820268Y-63816990D01*
X106820268Y-63816990D02*
X106867887Y-63769371D01*
X106867887Y-63769371D02*
X106963125Y-63721752D01*
X106963125Y-63721752D02*
X107153601Y-63721752D01*
X107153601Y-63721752D02*
X107248839Y-63769371D01*
X107725030Y-64388419D02*
X107725030Y-63721752D01*
X107725030Y-63388419D02*
X107677411Y-63436038D01*
X107677411Y-63436038D02*
X107725030Y-63483657D01*
X107725030Y-63483657D02*
X107772649Y-63436038D01*
X107772649Y-63436038D02*
X107725030Y-63388419D01*
X107725030Y-63388419D02*
X107725030Y-63483657D01*
X108201220Y-63721752D02*
X108201220Y-64388419D01*
X108201220Y-63816990D02*
X108248839Y-63769371D01*
X108248839Y-63769371D02*
X108344077Y-63721752D01*
X108344077Y-63721752D02*
X108486934Y-63721752D01*
X108486934Y-63721752D02*
X108582172Y-63769371D01*
X108582172Y-63769371D02*
X108629791Y-63864609D01*
X108629791Y-63864609D02*
X108629791Y-64388419D01*
X109820267Y-63340800D02*
X108963125Y-64626514D01*
X110582172Y-64340800D02*
X110486934Y-64388419D01*
X110486934Y-64388419D02*
X110296458Y-64388419D01*
X110296458Y-64388419D02*
X110201220Y-64340800D01*
X110201220Y-64340800D02*
X110153601Y-64293180D01*
X110153601Y-64293180D02*
X110105982Y-64197942D01*
X110105982Y-64197942D02*
X110105982Y-63912228D01*
X110105982Y-63912228D02*
X110153601Y-63816990D01*
X110153601Y-63816990D02*
X110201220Y-63769371D01*
X110201220Y-63769371D02*
X110296458Y-63721752D01*
X110296458Y-63721752D02*
X110486934Y-63721752D01*
X110486934Y-63721752D02*
X110582172Y-63769371D01*
X111153601Y-64388419D02*
X111058363Y-64340800D01*
X111058363Y-64340800D02*
X111010744Y-64245561D01*
X111010744Y-64245561D02*
X111010744Y-63388419D01*
X111963125Y-64388419D02*
X111963125Y-63864609D01*
X111963125Y-63864609D02*
X111915506Y-63769371D01*
X111915506Y-63769371D02*
X111820268Y-63721752D01*
X111820268Y-63721752D02*
X111629792Y-63721752D01*
X111629792Y-63721752D02*
X111534554Y-63769371D01*
X111963125Y-64340800D02*
X111867887Y-64388419D01*
X111867887Y-64388419D02*
X111629792Y-64388419D01*
X111629792Y-64388419D02*
X111534554Y-64340800D01*
X111534554Y-64340800D02*
X111486935Y-64245561D01*
X111486935Y-64245561D02*
X111486935Y-64150323D01*
X111486935Y-64150323D02*
X111534554Y-64055085D01*
X111534554Y-64055085D02*
X111629792Y-64007466D01*
X111629792Y-64007466D02*
X111867887Y-64007466D01*
X111867887Y-64007466D02*
X111963125Y-63959847D01*
X112391697Y-64340800D02*
X112486935Y-64388419D01*
X112486935Y-64388419D02*
X112677411Y-64388419D01*
X112677411Y-64388419D02*
X112772649Y-64340800D01*
X112772649Y-64340800D02*
X112820268Y-64245561D01*
X112820268Y-64245561D02*
X112820268Y-64197942D01*
X112820268Y-64197942D02*
X112772649Y-64102704D01*
X112772649Y-64102704D02*
X112677411Y-64055085D01*
X112677411Y-64055085D02*
X112534554Y-64055085D01*
X112534554Y-64055085D02*
X112439316Y-64007466D01*
X112439316Y-64007466D02*
X112391697Y-63912228D01*
X112391697Y-63912228D02*
X112391697Y-63864609D01*
X112391697Y-63864609D02*
X112439316Y-63769371D01*
X112439316Y-63769371D02*
X112534554Y-63721752D01*
X112534554Y-63721752D02*
X112677411Y-63721752D01*
X112677411Y-63721752D02*
X112772649Y-63769371D01*
X113201221Y-64340800D02*
X113296459Y-64388419D01*
X113296459Y-64388419D02*
X113486935Y-64388419D01*
X113486935Y-64388419D02*
X113582173Y-64340800D01*
X113582173Y-64340800D02*
X113629792Y-64245561D01*
X113629792Y-64245561D02*
X113629792Y-64197942D01*
X113629792Y-64197942D02*
X113582173Y-64102704D01*
X113582173Y-64102704D02*
X113486935Y-64055085D01*
X113486935Y-64055085D02*
X113344078Y-64055085D01*
X113344078Y-64055085D02*
X113248840Y-64007466D01*
X113248840Y-64007466D02*
X113201221Y-63912228D01*
X113201221Y-63912228D02*
X113201221Y-63864609D01*
X113201221Y-63864609D02*
X113248840Y-63769371D01*
X113248840Y-63769371D02*
X113344078Y-63721752D01*
X113344078Y-63721752D02*
X113486935Y-63721752D01*
X113486935Y-63721752D02*
X113582173Y-63769371D01*
X114486935Y-64388419D02*
X114486935Y-63864609D01*
X114486935Y-63864609D02*
X114439316Y-63769371D01*
X114439316Y-63769371D02*
X114344078Y-63721752D01*
X114344078Y-63721752D02*
X114153602Y-63721752D01*
X114153602Y-63721752D02*
X114058364Y-63769371D01*
X114486935Y-64340800D02*
X114391697Y-64388419D01*
X114391697Y-64388419D02*
X114153602Y-64388419D01*
X114153602Y-64388419D02*
X114058364Y-64340800D01*
X114058364Y-64340800D02*
X114010745Y-64245561D01*
X114010745Y-64245561D02*
X114010745Y-64150323D01*
X114010745Y-64150323D02*
X114058364Y-64055085D01*
X114058364Y-64055085D02*
X114153602Y-64007466D01*
X114153602Y-64007466D02*
X114391697Y-64007466D01*
X114391697Y-64007466D02*
X114486935Y-63959847D01*
X114963126Y-64388419D02*
X114963126Y-63388419D01*
X114963126Y-63769371D02*
X115058364Y-63721752D01*
X115058364Y-63721752D02*
X115248840Y-63721752D01*
X115248840Y-63721752D02*
X115344078Y-63769371D01*
X115344078Y-63769371D02*
X115391697Y-63816990D01*
X115391697Y-63816990D02*
X115439316Y-63912228D01*
X115439316Y-63912228D02*
X115439316Y-64197942D01*
X115439316Y-64197942D02*
X115391697Y-64293180D01*
X115391697Y-64293180D02*
X115344078Y-64340800D01*
X115344078Y-64340800D02*
X115248840Y-64388419D01*
X115248840Y-64388419D02*
X115058364Y-64388419D01*
X115058364Y-64388419D02*
X114963126Y-64340800D01*
X115867888Y-64007466D02*
X116629793Y-64007466D01*
X117534554Y-64388419D02*
X117534554Y-63864609D01*
X117534554Y-63864609D02*
X117486935Y-63769371D01*
X117486935Y-63769371D02*
X117391697Y-63721752D01*
X117391697Y-63721752D02*
X117201221Y-63721752D01*
X117201221Y-63721752D02*
X117105983Y-63769371D01*
X117534554Y-64340800D02*
X117439316Y-64388419D01*
X117439316Y-64388419D02*
X117201221Y-64388419D01*
X117201221Y-64388419D02*
X117105983Y-64340800D01*
X117105983Y-64340800D02*
X117058364Y-64245561D01*
X117058364Y-64245561D02*
X117058364Y-64150323D01*
X117058364Y-64150323D02*
X117105983Y-64055085D01*
X117105983Y-64055085D02*
X117201221Y-64007466D01*
X117201221Y-64007466D02*
X117439316Y-64007466D01*
X117439316Y-64007466D02*
X117534554Y-63959847D01*
X118010745Y-64388419D02*
X118010745Y-63721752D01*
X118010745Y-63816990D02*
X118058364Y-63769371D01*
X118058364Y-63769371D02*
X118153602Y-63721752D01*
X118153602Y-63721752D02*
X118296459Y-63721752D01*
X118296459Y-63721752D02*
X118391697Y-63769371D01*
X118391697Y-63769371D02*
X118439316Y-63864609D01*
X118439316Y-63864609D02*
X118439316Y-64388419D01*
X118439316Y-63864609D02*
X118486935Y-63769371D01*
X118486935Y-63769371D02*
X118582173Y-63721752D01*
X118582173Y-63721752D02*
X118725030Y-63721752D01*
X118725030Y-63721752D02*
X118820269Y-63769371D01*
X118820269Y-63769371D02*
X118867888Y-63864609D01*
X118867888Y-63864609D02*
X118867888Y-64388419D01*
X119344078Y-63721752D02*
X119344078Y-64721752D01*
X119344078Y-63769371D02*
X119439316Y-63721752D01*
X119439316Y-63721752D02*
X119629792Y-63721752D01*
X119629792Y-63721752D02*
X119725030Y-63769371D01*
X119725030Y-63769371D02*
X119772649Y-63816990D01*
X119772649Y-63816990D02*
X119820268Y-63912228D01*
X119820268Y-63912228D02*
X119820268Y-64197942D01*
X119820268Y-64197942D02*
X119772649Y-64293180D01*
X119772649Y-64293180D02*
X119725030Y-64340800D01*
X119725030Y-64340800D02*
X119629792Y-64388419D01*
X119629792Y-64388419D02*
X119439316Y-64388419D01*
X119439316Y-64388419D02*
X119344078Y-64340800D01*
D11*
X66837160Y-82388104D02*
X67313350Y-82388104D01*
X66741922Y-82673819D02*
X67075255Y-81673819D01*
X67075255Y-81673819D02*
X67408588Y-82673819D01*
X68313350Y-82578580D02*
X68265731Y-82626200D01*
X68265731Y-82626200D02*
X68122874Y-82673819D01*
X68122874Y-82673819D02*
X68027636Y-82673819D01*
X68027636Y-82673819D02*
X67884779Y-82626200D01*
X67884779Y-82626200D02*
X67789541Y-82530961D01*
X67789541Y-82530961D02*
X67741922Y-82435723D01*
X67741922Y-82435723D02*
X67694303Y-82245247D01*
X67694303Y-82245247D02*
X67694303Y-82102390D01*
X67694303Y-82102390D02*
X67741922Y-81911914D01*
X67741922Y-81911914D02*
X67789541Y-81816676D01*
X67789541Y-81816676D02*
X67884779Y-81721438D01*
X67884779Y-81721438D02*
X68027636Y-81673819D01*
X68027636Y-81673819D02*
X68122874Y-81673819D01*
X68122874Y-81673819D02*
X68265731Y-81721438D01*
X68265731Y-81721438D02*
X68313350Y-81769057D01*
X66837160Y-90008104D02*
X67313350Y-90008104D01*
X66741922Y-90293819D02*
X67075255Y-89293819D01*
X67075255Y-89293819D02*
X67408588Y-90293819D01*
X68313350Y-90198580D02*
X68265731Y-90246200D01*
X68265731Y-90246200D02*
X68122874Y-90293819D01*
X68122874Y-90293819D02*
X68027636Y-90293819D01*
X68027636Y-90293819D02*
X67884779Y-90246200D01*
X67884779Y-90246200D02*
X67789541Y-90150961D01*
X67789541Y-90150961D02*
X67741922Y-90055723D01*
X67741922Y-90055723D02*
X67694303Y-89865247D01*
X67694303Y-89865247D02*
X67694303Y-89722390D01*
X67694303Y-89722390D02*
X67741922Y-89531914D01*
X67741922Y-89531914D02*
X67789541Y-89436676D01*
X67789541Y-89436676D02*
X67884779Y-89341438D01*
X67884779Y-89341438D02*
X68027636Y-89293819D01*
X68027636Y-89293819D02*
X68122874Y-89293819D01*
X68122874Y-89293819D02*
X68265731Y-89341438D01*
X68265731Y-89341438D02*
X68313350Y-89389057D01*
X67408588Y-85785438D02*
X67313350Y-85737819D01*
X67313350Y-85737819D02*
X67170493Y-85737819D01*
X67170493Y-85737819D02*
X67027636Y-85785438D01*
X67027636Y-85785438D02*
X66932398Y-85880676D01*
X66932398Y-85880676D02*
X66884779Y-85975914D01*
X66884779Y-85975914D02*
X66837160Y-86166390D01*
X66837160Y-86166390D02*
X66837160Y-86309247D01*
X66837160Y-86309247D02*
X66884779Y-86499723D01*
X66884779Y-86499723D02*
X66932398Y-86594961D01*
X66932398Y-86594961D02*
X67027636Y-86690200D01*
X67027636Y-86690200D02*
X67170493Y-86737819D01*
X67170493Y-86737819D02*
X67265731Y-86737819D01*
X67265731Y-86737819D02*
X67408588Y-86690200D01*
X67408588Y-86690200D02*
X67456207Y-86642580D01*
X67456207Y-86642580D02*
X67456207Y-86309247D01*
X67456207Y-86309247D02*
X67265731Y-86309247D01*
X67884779Y-86737819D02*
X67884779Y-85737819D01*
X67884779Y-85737819D02*
X68456207Y-86737819D01*
X68456207Y-86737819D02*
X68456207Y-85737819D01*
X68932398Y-86737819D02*
X68932398Y-85737819D01*
X68932398Y-85737819D02*
X69170493Y-85737819D01*
X69170493Y-85737819D02*
X69313350Y-85785438D01*
X69313350Y-85785438D02*
X69408588Y-85880676D01*
X69408588Y-85880676D02*
X69456207Y-85975914D01*
X69456207Y-85975914D02*
X69503826Y-86166390D01*
X69503826Y-86166390D02*
X69503826Y-86309247D01*
X69503826Y-86309247D02*
X69456207Y-86499723D01*
X69456207Y-86499723D02*
X69408588Y-86594961D01*
X69408588Y-86594961D02*
X69313350Y-86690200D01*
X69313350Y-86690200D02*
X69170493Y-86737819D01*
X69170493Y-86737819D02*
X68932398Y-86737819D01*
X122828207Y-86134580D02*
X122780588Y-86182200D01*
X122780588Y-86182200D02*
X122637731Y-86229819D01*
X122637731Y-86229819D02*
X122542493Y-86229819D01*
X122542493Y-86229819D02*
X122399636Y-86182200D01*
X122399636Y-86182200D02*
X122304398Y-86086961D01*
X122304398Y-86086961D02*
X122256779Y-85991723D01*
X122256779Y-85991723D02*
X122209160Y-85801247D01*
X122209160Y-85801247D02*
X122209160Y-85658390D01*
X122209160Y-85658390D02*
X122256779Y-85467914D01*
X122256779Y-85467914D02*
X122304398Y-85372676D01*
X122304398Y-85372676D02*
X122399636Y-85277438D01*
X122399636Y-85277438D02*
X122542493Y-85229819D01*
X122542493Y-85229819D02*
X122637731Y-85229819D01*
X122637731Y-85229819D02*
X122780588Y-85277438D01*
X122780588Y-85277438D02*
X122828207Y-85325057D01*
X123113922Y-85229819D02*
X123685350Y-85229819D01*
X123399636Y-86229819D02*
X123399636Y-85229819D01*
X122590112Y-88754009D02*
X122732969Y-88801628D01*
X122732969Y-88801628D02*
X122780588Y-88849247D01*
X122780588Y-88849247D02*
X122828207Y-88944485D01*
X122828207Y-88944485D02*
X122828207Y-89087342D01*
X122828207Y-89087342D02*
X122780588Y-89182580D01*
X122780588Y-89182580D02*
X122732969Y-89230200D01*
X122732969Y-89230200D02*
X122637731Y-89277819D01*
X122637731Y-89277819D02*
X122256779Y-89277819D01*
X122256779Y-89277819D02*
X122256779Y-88277819D01*
X122256779Y-88277819D02*
X122590112Y-88277819D01*
X122590112Y-88277819D02*
X122685350Y-88325438D01*
X122685350Y-88325438D02*
X122732969Y-88373057D01*
X122732969Y-88373057D02*
X122780588Y-88468295D01*
X122780588Y-88468295D02*
X122780588Y-88563533D01*
X122780588Y-88563533D02*
X122732969Y-88658771D01*
X122732969Y-88658771D02*
X122685350Y-88706390D01*
X122685350Y-88706390D02*
X122590112Y-88754009D01*
X122590112Y-88754009D02*
X122256779Y-88754009D01*
X123256779Y-88896866D02*
X124018684Y-88896866D01*
X122590112Y-82150009D02*
X122732969Y-82197628D01*
X122732969Y-82197628D02*
X122780588Y-82245247D01*
X122780588Y-82245247D02*
X122828207Y-82340485D01*
X122828207Y-82340485D02*
X122828207Y-82483342D01*
X122828207Y-82483342D02*
X122780588Y-82578580D01*
X122780588Y-82578580D02*
X122732969Y-82626200D01*
X122732969Y-82626200D02*
X122637731Y-82673819D01*
X122637731Y-82673819D02*
X122256779Y-82673819D01*
X122256779Y-82673819D02*
X122256779Y-81673819D01*
X122256779Y-81673819D02*
X122590112Y-81673819D01*
X122590112Y-81673819D02*
X122685350Y-81721438D01*
X122685350Y-81721438D02*
X122732969Y-81769057D01*
X122732969Y-81769057D02*
X122780588Y-81864295D01*
X122780588Y-81864295D02*
X122780588Y-81959533D01*
X122780588Y-81959533D02*
X122732969Y-82054771D01*
X122732969Y-82054771D02*
X122685350Y-82102390D01*
X122685350Y-82102390D02*
X122590112Y-82150009D01*
X122590112Y-82150009D02*
X122256779Y-82150009D01*
X123256779Y-82292866D02*
X124018684Y-82292866D01*
X123637731Y-82673819D02*
X123637731Y-81911914D01*
X125150819Y-86185333D02*
X125865104Y-86185333D01*
X125865104Y-86185333D02*
X126007961Y-86232952D01*
X126007961Y-86232952D02*
X126103200Y-86328190D01*
X126103200Y-86328190D02*
X126150819Y-86471047D01*
X126150819Y-86471047D02*
X126150819Y-86566285D01*
X125246057Y-85756761D02*
X125198438Y-85709142D01*
X125198438Y-85709142D02*
X125150819Y-85613904D01*
X125150819Y-85613904D02*
X125150819Y-85375809D01*
X125150819Y-85375809D02*
X125198438Y-85280571D01*
X125198438Y-85280571D02*
X125246057Y-85232952D01*
X125246057Y-85232952D02*
X125341295Y-85185333D01*
X125341295Y-85185333D02*
X125436533Y-85185333D01*
X125436533Y-85185333D02*
X125579390Y-85232952D01*
X125579390Y-85232952D02*
X126150819Y-85804380D01*
X126150819Y-85804380D02*
X126150819Y-85185333D01*
X60626666Y-92418819D02*
X60626666Y-93133104D01*
X60626666Y-93133104D02*
X60579047Y-93275961D01*
X60579047Y-93275961D02*
X60483809Y-93371200D01*
X60483809Y-93371200D02*
X60340952Y-93418819D01*
X60340952Y-93418819D02*
X60245714Y-93418819D01*
X61626666Y-93418819D02*
X61055238Y-93418819D01*
X61340952Y-93418819D02*
X61340952Y-92418819D01*
X61340952Y-92418819D02*
X61245714Y-92561676D01*
X61245714Y-92561676D02*
X61150476Y-92656914D01*
X61150476Y-92656914D02*
X61055238Y-92704533D01*
X80292819Y-76938094D02*
X79292819Y-76938094D01*
X79292819Y-76938094D02*
X79292819Y-76699999D01*
X79292819Y-76699999D02*
X79340438Y-76557142D01*
X79340438Y-76557142D02*
X79435676Y-76461904D01*
X79435676Y-76461904D02*
X79530914Y-76414285D01*
X79530914Y-76414285D02*
X79721390Y-76366666D01*
X79721390Y-76366666D02*
X79864247Y-76366666D01*
X79864247Y-76366666D02*
X80054723Y-76414285D01*
X80054723Y-76414285D02*
X80149961Y-76461904D01*
X80149961Y-76461904D02*
X80245200Y-76557142D01*
X80245200Y-76557142D02*
X80292819Y-76699999D01*
X80292819Y-76699999D02*
X80292819Y-76938094D01*
X79292819Y-76033332D02*
X79292819Y-75414285D01*
X79292819Y-75414285D02*
X79673771Y-75747618D01*
X79673771Y-75747618D02*
X79673771Y-75604761D01*
X79673771Y-75604761D02*
X79721390Y-75509523D01*
X79721390Y-75509523D02*
X79769009Y-75461904D01*
X79769009Y-75461904D02*
X79864247Y-75414285D01*
X79864247Y-75414285D02*
X80102342Y-75414285D01*
X80102342Y-75414285D02*
X80197580Y-75461904D01*
X80197580Y-75461904D02*
X80245200Y-75509523D01*
X80245200Y-75509523D02*
X80292819Y-75604761D01*
X80292819Y-75604761D02*
X80292819Y-75890475D01*
X80292819Y-75890475D02*
X80245200Y-75985713D01*
X80245200Y-75985713D02*
X80197580Y-76033332D01*
X77222819Y-70111904D02*
X76222819Y-70111904D01*
X77222819Y-69540476D02*
X76651390Y-69969047D01*
X76222819Y-69540476D02*
X76794247Y-70111904D01*
X80292819Y-97258094D02*
X79292819Y-97258094D01*
X79292819Y-97258094D02*
X79292819Y-97019999D01*
X79292819Y-97019999D02*
X79340438Y-96877142D01*
X79340438Y-96877142D02*
X79435676Y-96781904D01*
X79435676Y-96781904D02*
X79530914Y-96734285D01*
X79530914Y-96734285D02*
X79721390Y-96686666D01*
X79721390Y-96686666D02*
X79864247Y-96686666D01*
X79864247Y-96686666D02*
X80054723Y-96734285D01*
X80054723Y-96734285D02*
X80149961Y-96781904D01*
X80149961Y-96781904D02*
X80245200Y-96877142D01*
X80245200Y-96877142D02*
X80292819Y-97019999D01*
X80292819Y-97019999D02*
X80292819Y-97258094D01*
X79388057Y-96305713D02*
X79340438Y-96258094D01*
X79340438Y-96258094D02*
X79292819Y-96162856D01*
X79292819Y-96162856D02*
X79292819Y-95924761D01*
X79292819Y-95924761D02*
X79340438Y-95829523D01*
X79340438Y-95829523D02*
X79388057Y-95781904D01*
X79388057Y-95781904D02*
X79483295Y-95734285D01*
X79483295Y-95734285D02*
X79578533Y-95734285D01*
X79578533Y-95734285D02*
X79721390Y-95781904D01*
X79721390Y-95781904D02*
X80292819Y-96353332D01*
X80292819Y-96353332D02*
X80292819Y-95734285D01*
X77222819Y-90431904D02*
X76222819Y-90431904D01*
X77222819Y-89860476D02*
X76651390Y-90289047D01*
X76222819Y-89860476D02*
X76794247Y-90431904D01*
X95024819Y-76938094D02*
X94024819Y-76938094D01*
X94024819Y-76938094D02*
X94024819Y-76699999D01*
X94024819Y-76699999D02*
X94072438Y-76557142D01*
X94072438Y-76557142D02*
X94167676Y-76461904D01*
X94167676Y-76461904D02*
X94262914Y-76414285D01*
X94262914Y-76414285D02*
X94453390Y-76366666D01*
X94453390Y-76366666D02*
X94596247Y-76366666D01*
X94596247Y-76366666D02*
X94786723Y-76414285D01*
X94786723Y-76414285D02*
X94881961Y-76461904D01*
X94881961Y-76461904D02*
X94977200Y-76557142D01*
X94977200Y-76557142D02*
X95024819Y-76699999D01*
X95024819Y-76699999D02*
X95024819Y-76938094D01*
X95024819Y-75414285D02*
X95024819Y-75985713D01*
X95024819Y-75699999D02*
X94024819Y-75699999D01*
X94024819Y-75699999D02*
X94167676Y-75795237D01*
X94167676Y-75795237D02*
X94262914Y-75890475D01*
X94262914Y-75890475D02*
X94310533Y-75985713D01*
X91954819Y-70111904D02*
X90954819Y-70111904D01*
X91954819Y-69540476D02*
X91383390Y-69969047D01*
X90954819Y-69540476D02*
X91526247Y-70111904D01*
X123785333Y-106467580D02*
X123737714Y-106515200D01*
X123737714Y-106515200D02*
X123594857Y-106562819D01*
X123594857Y-106562819D02*
X123499619Y-106562819D01*
X123499619Y-106562819D02*
X123356762Y-106515200D01*
X123356762Y-106515200D02*
X123261524Y-106419961D01*
X123261524Y-106419961D02*
X123213905Y-106324723D01*
X123213905Y-106324723D02*
X123166286Y-106134247D01*
X123166286Y-106134247D02*
X123166286Y-105991390D01*
X123166286Y-105991390D02*
X123213905Y-105800914D01*
X123213905Y-105800914D02*
X123261524Y-105705676D01*
X123261524Y-105705676D02*
X123356762Y-105610438D01*
X123356762Y-105610438D02*
X123499619Y-105562819D01*
X123499619Y-105562819D02*
X123594857Y-105562819D01*
X123594857Y-105562819D02*
X123737714Y-105610438D01*
X123737714Y-105610438D02*
X123785333Y-105658057D01*
X124642476Y-105896152D02*
X124642476Y-106562819D01*
X124404381Y-105515200D02*
X124166286Y-106229485D01*
X124166286Y-106229485D02*
X124785333Y-106229485D01*
X123785333Y-65955580D02*
X123737714Y-66003200D01*
X123737714Y-66003200D02*
X123594857Y-66050819D01*
X123594857Y-66050819D02*
X123499619Y-66050819D01*
X123499619Y-66050819D02*
X123356762Y-66003200D01*
X123356762Y-66003200D02*
X123261524Y-65907961D01*
X123261524Y-65907961D02*
X123213905Y-65812723D01*
X123213905Y-65812723D02*
X123166286Y-65622247D01*
X123166286Y-65622247D02*
X123166286Y-65479390D01*
X123166286Y-65479390D02*
X123213905Y-65288914D01*
X123213905Y-65288914D02*
X123261524Y-65193676D01*
X123261524Y-65193676D02*
X123356762Y-65098438D01*
X123356762Y-65098438D02*
X123499619Y-65050819D01*
X123499619Y-65050819D02*
X123594857Y-65050819D01*
X123594857Y-65050819D02*
X123737714Y-65098438D01*
X123737714Y-65098438D02*
X123785333Y-65146057D01*
X124118667Y-65050819D02*
X124737714Y-65050819D01*
X124737714Y-65050819D02*
X124404381Y-65431771D01*
X124404381Y-65431771D02*
X124547238Y-65431771D01*
X124547238Y-65431771D02*
X124642476Y-65479390D01*
X124642476Y-65479390D02*
X124690095Y-65527009D01*
X124690095Y-65527009D02*
X124737714Y-65622247D01*
X124737714Y-65622247D02*
X124737714Y-65860342D01*
X124737714Y-65860342D02*
X124690095Y-65955580D01*
X124690095Y-65955580D02*
X124642476Y-66003200D01*
X124642476Y-66003200D02*
X124547238Y-66050819D01*
X124547238Y-66050819D02*
X124261524Y-66050819D01*
X124261524Y-66050819D02*
X124166286Y-66003200D01*
X124166286Y-66003200D02*
X124118667Y-65955580D01*
X119321580Y-96492666D02*
X119369200Y-96540285D01*
X119369200Y-96540285D02*
X119416819Y-96683142D01*
X119416819Y-96683142D02*
X119416819Y-96778380D01*
X119416819Y-96778380D02*
X119369200Y-96921237D01*
X119369200Y-96921237D02*
X119273961Y-97016475D01*
X119273961Y-97016475D02*
X119178723Y-97064094D01*
X119178723Y-97064094D02*
X118988247Y-97111713D01*
X118988247Y-97111713D02*
X118845390Y-97111713D01*
X118845390Y-97111713D02*
X118654914Y-97064094D01*
X118654914Y-97064094D02*
X118559676Y-97016475D01*
X118559676Y-97016475D02*
X118464438Y-96921237D01*
X118464438Y-96921237D02*
X118416819Y-96778380D01*
X118416819Y-96778380D02*
X118416819Y-96683142D01*
X118416819Y-96683142D02*
X118464438Y-96540285D01*
X118464438Y-96540285D02*
X118512057Y-96492666D01*
X118512057Y-96111713D02*
X118464438Y-96064094D01*
X118464438Y-96064094D02*
X118416819Y-95968856D01*
X118416819Y-95968856D02*
X118416819Y-95730761D01*
X118416819Y-95730761D02*
X118464438Y-95635523D01*
X118464438Y-95635523D02*
X118512057Y-95587904D01*
X118512057Y-95587904D02*
X118607295Y-95540285D01*
X118607295Y-95540285D02*
X118702533Y-95540285D01*
X118702533Y-95540285D02*
X118845390Y-95587904D01*
X118845390Y-95587904D02*
X119416819Y-96159332D01*
X119416819Y-96159332D02*
X119416819Y-95540285D01*
X119321580Y-76172666D02*
X119369200Y-76220285D01*
X119369200Y-76220285D02*
X119416819Y-76363142D01*
X119416819Y-76363142D02*
X119416819Y-76458380D01*
X119416819Y-76458380D02*
X119369200Y-76601237D01*
X119369200Y-76601237D02*
X119273961Y-76696475D01*
X119273961Y-76696475D02*
X119178723Y-76744094D01*
X119178723Y-76744094D02*
X118988247Y-76791713D01*
X118988247Y-76791713D02*
X118845390Y-76791713D01*
X118845390Y-76791713D02*
X118654914Y-76744094D01*
X118654914Y-76744094D02*
X118559676Y-76696475D01*
X118559676Y-76696475D02*
X118464438Y-76601237D01*
X118464438Y-76601237D02*
X118416819Y-76458380D01*
X118416819Y-76458380D02*
X118416819Y-76363142D01*
X118416819Y-76363142D02*
X118464438Y-76220285D01*
X118464438Y-76220285D02*
X118512057Y-76172666D01*
X119416819Y-75220285D02*
X119416819Y-75791713D01*
X119416819Y-75505999D02*
X118416819Y-75505999D01*
X118416819Y-75505999D02*
X118559676Y-75601237D01*
X118559676Y-75601237D02*
X118654914Y-75696475D01*
X118654914Y-75696475D02*
X118702533Y-75791713D01*
X95024819Y-97258094D02*
X94024819Y-97258094D01*
X94024819Y-97258094D02*
X94024819Y-97019999D01*
X94024819Y-97019999D02*
X94072438Y-96877142D01*
X94072438Y-96877142D02*
X94167676Y-96781904D01*
X94167676Y-96781904D02*
X94262914Y-96734285D01*
X94262914Y-96734285D02*
X94453390Y-96686666D01*
X94453390Y-96686666D02*
X94596247Y-96686666D01*
X94596247Y-96686666D02*
X94786723Y-96734285D01*
X94786723Y-96734285D02*
X94881961Y-96781904D01*
X94881961Y-96781904D02*
X94977200Y-96877142D01*
X94977200Y-96877142D02*
X95024819Y-97019999D01*
X95024819Y-97019999D02*
X95024819Y-97258094D01*
X94358152Y-95829523D02*
X95024819Y-95829523D01*
X93977200Y-96067618D02*
X94691485Y-96305713D01*
X94691485Y-96305713D02*
X94691485Y-95686666D01*
X91954819Y-90431904D02*
X90954819Y-90431904D01*
X91954819Y-89860476D02*
X91383390Y-90289047D01*
X90954819Y-89860476D02*
X91526247Y-90431904D01*
D12*
%TO.C,J2*%
X131536000Y-82352000D02*
G75*
G02*
X128176000Y-82352000I-1680000J0D01*
G01*
X128176000Y-82352000D02*
G75*
G02*
X131536000Y-82352000I1680000J0D01*
G01*
X131536000Y-85852000D02*
G75*
G02*
X128176000Y-85852000I-1680000J0D01*
G01*
X128176000Y-85852000D02*
G75*
G02*
X131536000Y-85852000I1680000J0D01*
G01*
X128965807Y-87926496D02*
G75*
G02*
X130747000Y-87927000I890193J-1425507D01*
G01*
X131280721Y-88461736D02*
G75*
G02*
X131536000Y-89352000I-1424711J-890261D01*
G01*
X131536099Y-89323326D02*
G75*
G02*
X131296000Y-90218000I-1680113J-28671D01*
G01*
X128430642Y-90241894D02*
G75*
G02*
X128416000Y-88486000I1425356J889894D01*
G01*
X130745894Y-90777358D02*
G75*
G02*
X128990000Y-90792000I-889894J1425356D01*
G01*
X126696000Y-80542000D02*
X134416000Y-80542000D01*
X128787000Y-81077000D02*
X128915000Y-81206000D01*
X128581000Y-81282000D02*
X128675000Y-81376000D01*
X131037000Y-83327000D02*
X131130000Y-83421000D01*
X130797000Y-83497000D02*
X130925000Y-83626000D01*
X128787000Y-84577000D02*
X128915000Y-84706000D01*
X128581000Y-84782000D02*
X128675000Y-84876000D01*
X131037000Y-86827000D02*
X131130000Y-86921000D01*
X130797000Y-86997000D02*
X130925000Y-87126000D01*
X134416000Y-91162000D02*
X134416000Y-80542000D01*
X133956000Y-91162000D02*
X133956000Y-80542000D01*
X132856000Y-91162000D02*
X132856000Y-80542000D01*
X126696000Y-91162000D02*
X126696000Y-80542000D01*
X126696000Y-91162000D02*
X134416000Y-91162000D01*
X134656000Y-91402000D02*
X134656000Y-91002000D01*
X134016000Y-91402000D02*
X134656000Y-91402000D01*
%TO.C,J1*%
X58640000Y-80302000D02*
X58000000Y-80302000D01*
X58000000Y-80302000D02*
X58000000Y-80702000D01*
X65960000Y-80542000D02*
X58240000Y-80542000D01*
X65960000Y-80542000D02*
X65960000Y-91162000D01*
X59800000Y-80542000D02*
X59800000Y-91162000D01*
X58700000Y-80542000D02*
X58700000Y-91162000D01*
X58240000Y-80542000D02*
X58240000Y-91162000D01*
X61859000Y-84707000D02*
X61731000Y-84578000D01*
X61619000Y-84877000D02*
X61526000Y-84783000D01*
X64075000Y-86922000D02*
X63981000Y-86828000D01*
X63869000Y-87127000D02*
X63741000Y-86998000D01*
X61859000Y-88207000D02*
X61731000Y-88078000D01*
X61619000Y-88377000D02*
X61526000Y-88283000D01*
X64075000Y-90422000D02*
X63981000Y-90328000D01*
X63869000Y-90627000D02*
X63741000Y-90498000D01*
X65960000Y-91162000D02*
X58240000Y-91162000D01*
X61910106Y-80926642D02*
G75*
G02*
X63666000Y-80912000I889894J-1425356D01*
G01*
X64225358Y-81462106D02*
G75*
G02*
X64240000Y-83218000I-1425356J-889894D01*
G01*
X61119901Y-82380674D02*
G75*
G02*
X61360000Y-81486000I1680113J28671D01*
G01*
X61375279Y-83242264D02*
G75*
G02*
X61120000Y-82352000I1424711J890261D01*
G01*
X63690193Y-83777504D02*
G75*
G02*
X61909000Y-83777000I-890193J1425507D01*
G01*
X64480000Y-85852000D02*
G75*
G02*
X61120000Y-85852000I-1680000J0D01*
G01*
X61120000Y-85852000D02*
G75*
G02*
X64480000Y-85852000I1680000J0D01*
G01*
X64480000Y-89352000D02*
G75*
G02*
X61120000Y-89352000I-1680000J0D01*
G01*
X61120000Y-89352000D02*
G75*
G02*
X64480000Y-89352000I1680000J0D01*
G01*
%TO.C,D3*%
X78838000Y-71530000D02*
X78838000Y-80870000D01*
X76008000Y-71530000D02*
X78838000Y-71530000D01*
X72328000Y-71530000D02*
X69498000Y-71530000D01*
X69498000Y-71530000D02*
X69498000Y-80870000D01*
X78838000Y-72895000D02*
X69498000Y-72895000D01*
X78838000Y-73015000D02*
X69498000Y-73015000D01*
X78838000Y-73135000D02*
X69498000Y-73135000D01*
X78838000Y-80870000D02*
X76008000Y-80870000D01*
X69498000Y-80870000D02*
X72328000Y-80870000D01*
%TO.C,D2*%
X78838000Y-91850000D02*
X78838000Y-101190000D01*
X76008000Y-91850000D02*
X78838000Y-91850000D01*
X72328000Y-91850000D02*
X69498000Y-91850000D01*
X69498000Y-91850000D02*
X69498000Y-101190000D01*
X78838000Y-93215000D02*
X69498000Y-93215000D01*
X78838000Y-93335000D02*
X69498000Y-93335000D01*
X78838000Y-93455000D02*
X69498000Y-93455000D01*
X78838000Y-101190000D02*
X76008000Y-101190000D01*
X69498000Y-101190000D02*
X72328000Y-101190000D01*
%TO.C,D1*%
X93570000Y-71530000D02*
X93570000Y-80870000D01*
X90740000Y-71530000D02*
X93570000Y-71530000D01*
X87060000Y-71530000D02*
X84230000Y-71530000D01*
X84230000Y-71530000D02*
X84230000Y-80870000D01*
X93570000Y-72895000D02*
X84230000Y-72895000D01*
X93570000Y-73015000D02*
X84230000Y-73015000D01*
X93570000Y-73135000D02*
X84230000Y-73135000D01*
X93570000Y-80870000D02*
X90740000Y-80870000D01*
X84230000Y-80870000D02*
X87060000Y-80870000D01*
%TO.C,C4*%
X127672000Y-104978000D02*
X127672000Y-99238000D01*
X127672000Y-104978000D02*
X120232000Y-104978000D01*
X127672000Y-99238000D02*
X120232000Y-99238000D01*
X120232000Y-104978000D02*
X120232000Y-99238000D01*
%TO.C,C3*%
X120232000Y-66726000D02*
X120232000Y-72466000D01*
X120232000Y-66726000D02*
X127672000Y-66726000D01*
X120232000Y-72466000D02*
X127672000Y-72466000D01*
X127672000Y-66726000D02*
X127672000Y-72466000D01*
%TO.C,C2*%
X113827000Y-86566560D02*
X113827000Y-88366560D01*
X114727000Y-87466560D02*
X112927000Y-87466560D01*
X117793000Y-96326000D02*
X99631000Y-96326000D01*
X117792000Y-96366000D02*
X99632000Y-96366000D01*
X117792000Y-96406000D02*
X99632000Y-96406000D01*
X117792000Y-96446000D02*
X99632000Y-96446000D01*
X117791000Y-96486000D02*
X99633000Y-96486000D01*
X117790000Y-96526000D02*
X99634000Y-96526000D01*
X117789000Y-96566000D02*
X99635000Y-96566000D01*
X117788000Y-96606000D02*
X99636000Y-96606000D01*
X117787000Y-96646000D02*
X99637000Y-96646000D01*
X117785000Y-96686000D02*
X99639000Y-96686000D01*
X117784000Y-96726000D02*
X99640000Y-96726000D01*
X117782000Y-96766000D02*
X99642000Y-96766000D01*
X117780000Y-96806000D02*
X99644000Y-96806000D01*
X117778000Y-96846000D02*
X99646000Y-96846000D01*
X117775000Y-96886000D02*
X99649000Y-96886000D01*
X117773000Y-96926000D02*
X99651000Y-96926000D01*
X117770000Y-96966000D02*
X99654000Y-96966000D01*
X117767000Y-97006000D02*
X99657000Y-97006000D01*
X117764000Y-97047000D02*
X99660000Y-97047000D01*
X117761000Y-97087000D02*
X99663000Y-97087000D01*
X117757000Y-97127000D02*
X99667000Y-97127000D01*
X117754000Y-97167000D02*
X99670000Y-97167000D01*
X117750000Y-97207000D02*
X99674000Y-97207000D01*
X117746000Y-97247000D02*
X99678000Y-97247000D01*
X117742000Y-97287000D02*
X99682000Y-97287000D01*
X117738000Y-97327000D02*
X99686000Y-97327000D01*
X117733000Y-97367000D02*
X99691000Y-97367000D01*
X117728000Y-97407000D02*
X99696000Y-97407000D01*
X117723000Y-97447000D02*
X99701000Y-97447000D01*
X117718000Y-97487000D02*
X99706000Y-97487000D01*
X117713000Y-97527000D02*
X99711000Y-97527000D01*
X117708000Y-97567000D02*
X99716000Y-97567000D01*
X117702000Y-97607000D02*
X99722000Y-97607000D01*
X117696000Y-97647000D02*
X99728000Y-97647000D01*
X117691000Y-97687000D02*
X99733000Y-97687000D01*
X117684000Y-97727000D02*
X99740000Y-97727000D01*
X117678000Y-97767000D02*
X99746000Y-97767000D01*
X117672000Y-97807000D02*
X99752000Y-97807000D01*
X117665000Y-97847000D02*
X99759000Y-97847000D01*
X117658000Y-97887000D02*
X99766000Y-97887000D01*
X117651000Y-97927000D02*
X99773000Y-97927000D01*
X117644000Y-97967000D02*
X99780000Y-97967000D01*
X117636000Y-98007000D02*
X99788000Y-98007000D01*
X117629000Y-98047000D02*
X99795000Y-98047000D01*
X117621000Y-98087000D02*
X99803000Y-98087000D01*
X117613000Y-98127000D02*
X99811000Y-98127000D01*
X117605000Y-98167000D02*
X99819000Y-98167000D01*
X117597000Y-98207000D02*
X99827000Y-98207000D01*
X117588000Y-98247000D02*
X99836000Y-98247000D01*
X117579000Y-98287000D02*
X99845000Y-98287000D01*
X117570000Y-98327000D02*
X99854000Y-98327000D01*
X117561000Y-98367000D02*
X99863000Y-98367000D01*
X117552000Y-98407000D02*
X99872000Y-98407000D01*
X117543000Y-98447000D02*
X99881000Y-98447000D01*
X117533000Y-98487000D02*
X99891000Y-98487000D01*
X117523000Y-98527000D02*
X99901000Y-98527000D01*
X117513000Y-98567000D02*
X99911000Y-98567000D01*
X117503000Y-98607000D02*
X99921000Y-98607000D01*
X117492000Y-98647000D02*
X110152000Y-98647000D01*
X107272000Y-98647000D02*
X99932000Y-98647000D01*
X117482000Y-98687000D02*
X110152000Y-98687000D01*
X107272000Y-98687000D02*
X99942000Y-98687000D01*
X117471000Y-98727000D02*
X110152000Y-98727000D01*
X107272000Y-98727000D02*
X99953000Y-98727000D01*
X117460000Y-98767000D02*
X110152000Y-98767000D01*
X107272000Y-98767000D02*
X99964000Y-98767000D01*
X117449000Y-98807000D02*
X110152000Y-98807000D01*
X107272000Y-98807000D02*
X99975000Y-98807000D01*
X117437000Y-98847000D02*
X110152000Y-98847000D01*
X107272000Y-98847000D02*
X99987000Y-98847000D01*
X117426000Y-98887000D02*
X110152000Y-98887000D01*
X107272000Y-98887000D02*
X99998000Y-98887000D01*
X117414000Y-98927000D02*
X110152000Y-98927000D01*
X107272000Y-98927000D02*
X100010000Y-98927000D01*
X117402000Y-98967000D02*
X110152000Y-98967000D01*
X107272000Y-98967000D02*
X100022000Y-98967000D01*
X117390000Y-99007000D02*
X110152000Y-99007000D01*
X107272000Y-99007000D02*
X100034000Y-99007000D01*
X117377000Y-99047000D02*
X110152000Y-99047000D01*
X107272000Y-99047000D02*
X100047000Y-99047000D01*
X117365000Y-99087000D02*
X110152000Y-99087000D01*
X107272000Y-99087000D02*
X100059000Y-99087000D01*
X117352000Y-99127000D02*
X110152000Y-99127000D01*
X107272000Y-99127000D02*
X100072000Y-99127000D01*
X117339000Y-99167000D02*
X110152000Y-99167000D01*
X107272000Y-99167000D02*
X100085000Y-99167000D01*
X117326000Y-99207000D02*
X110152000Y-99207000D01*
X107272000Y-99207000D02*
X100098000Y-99207000D01*
X117312000Y-99247000D02*
X110152000Y-99247000D01*
X107272000Y-99247000D02*
X100112000Y-99247000D01*
X117299000Y-99287000D02*
X110152000Y-99287000D01*
X107272000Y-99287000D02*
X100125000Y-99287000D01*
X117285000Y-99327000D02*
X110152000Y-99327000D01*
X107272000Y-99327000D02*
X100139000Y-99327000D01*
X117271000Y-99367000D02*
X110152000Y-99367000D01*
X107272000Y-99367000D02*
X100153000Y-99367000D01*
X117257000Y-99407000D02*
X110152000Y-99407000D01*
X107272000Y-99407000D02*
X100167000Y-99407000D01*
X117242000Y-99447000D02*
X110152000Y-99447000D01*
X107272000Y-99447000D02*
X100182000Y-99447000D01*
X117228000Y-99487000D02*
X110152000Y-99487000D01*
X107272000Y-99487000D02*
X100196000Y-99487000D01*
X117213000Y-99527000D02*
X110152000Y-99527000D01*
X107272000Y-99527000D02*
X100211000Y-99527000D01*
X117198000Y-99567000D02*
X110152000Y-99567000D01*
X107272000Y-99567000D02*
X100226000Y-99567000D01*
X117182000Y-99607000D02*
X110152000Y-99607000D01*
X107272000Y-99607000D02*
X100242000Y-99607000D01*
X117167000Y-99647000D02*
X110152000Y-99647000D01*
X107272000Y-99647000D02*
X100257000Y-99647000D01*
X117151000Y-99687000D02*
X110152000Y-99687000D01*
X107272000Y-99687000D02*
X100273000Y-99687000D01*
X117135000Y-99727000D02*
X110152000Y-99727000D01*
X107272000Y-99727000D02*
X100289000Y-99727000D01*
X117119000Y-99767000D02*
X110152000Y-99767000D01*
X107272000Y-99767000D02*
X100305000Y-99767000D01*
X117102000Y-99807000D02*
X110152000Y-99807000D01*
X107272000Y-99807000D02*
X100322000Y-99807000D01*
X117086000Y-99847000D02*
X110152000Y-99847000D01*
X107272000Y-99847000D02*
X100338000Y-99847000D01*
X117069000Y-99887000D02*
X110152000Y-99887000D01*
X107272000Y-99887000D02*
X100355000Y-99887000D01*
X117052000Y-99927000D02*
X110152000Y-99927000D01*
X107272000Y-99927000D02*
X100372000Y-99927000D01*
X117035000Y-99967000D02*
X110152000Y-99967000D01*
X107272000Y-99967000D02*
X100389000Y-99967000D01*
X117017000Y-100007000D02*
X110152000Y-100007000D01*
X107272000Y-100007000D02*
X100407000Y-100007000D01*
X116999000Y-100047000D02*
X110152000Y-100047000D01*
X107272000Y-100047000D02*
X100425000Y-100047000D01*
X116981000Y-100087000D02*
X110152000Y-100087000D01*
X107272000Y-100087000D02*
X100443000Y-100087000D01*
X116963000Y-100127000D02*
X110152000Y-100127000D01*
X107272000Y-100127000D02*
X100461000Y-100127000D01*
X116945000Y-100167000D02*
X110152000Y-100167000D01*
X107272000Y-100167000D02*
X100479000Y-100167000D01*
X116926000Y-100207000D02*
X110152000Y-100207000D01*
X107272000Y-100207000D02*
X100498000Y-100207000D01*
X116907000Y-100247000D02*
X110152000Y-100247000D01*
X107272000Y-100247000D02*
X100517000Y-100247000D01*
X116888000Y-100287000D02*
X110152000Y-100287000D01*
X107272000Y-100287000D02*
X100536000Y-100287000D01*
X116868000Y-100327000D02*
X110152000Y-100327000D01*
X107272000Y-100327000D02*
X100556000Y-100327000D01*
X116849000Y-100367000D02*
X110152000Y-100367000D01*
X107272000Y-100367000D02*
X100575000Y-100367000D01*
X116829000Y-100407000D02*
X110152000Y-100407000D01*
X107272000Y-100407000D02*
X100595000Y-100407000D01*
X116809000Y-100447000D02*
X110152000Y-100447000D01*
X107272000Y-100447000D02*
X100615000Y-100447000D01*
X116788000Y-100487000D02*
X110152000Y-100487000D01*
X107272000Y-100487000D02*
X100636000Y-100487000D01*
X116768000Y-100527000D02*
X110152000Y-100527000D01*
X107272000Y-100527000D02*
X100656000Y-100527000D01*
X116747000Y-100567000D02*
X110152000Y-100567000D01*
X107272000Y-100567000D02*
X100677000Y-100567000D01*
X116726000Y-100607000D02*
X110152000Y-100607000D01*
X107272000Y-100607000D02*
X100698000Y-100607000D01*
X116704000Y-100647000D02*
X110152000Y-100647000D01*
X107272000Y-100647000D02*
X100720000Y-100647000D01*
X116683000Y-100687000D02*
X110152000Y-100687000D01*
X107272000Y-100687000D02*
X100741000Y-100687000D01*
X116661000Y-100727000D02*
X110152000Y-100727000D01*
X107272000Y-100727000D02*
X100763000Y-100727000D01*
X116639000Y-100767000D02*
X110152000Y-100767000D01*
X107272000Y-100767000D02*
X100785000Y-100767000D01*
X116616000Y-100807000D02*
X110152000Y-100807000D01*
X107272000Y-100807000D02*
X100808000Y-100807000D01*
X116594000Y-100847000D02*
X110152000Y-100847000D01*
X107272000Y-100847000D02*
X100830000Y-100847000D01*
X116571000Y-100887000D02*
X110152000Y-100887000D01*
X107272000Y-100887000D02*
X100853000Y-100887000D01*
X116547000Y-100927000D02*
X110152000Y-100927000D01*
X107272000Y-100927000D02*
X100877000Y-100927000D01*
X116524000Y-100967000D02*
X110152000Y-100967000D01*
X107272000Y-100967000D02*
X100900000Y-100967000D01*
X116500000Y-101007000D02*
X110152000Y-101007000D01*
X107272000Y-101007000D02*
X100924000Y-101007000D01*
X116476000Y-101047000D02*
X110152000Y-101047000D01*
X107272000Y-101047000D02*
X100948000Y-101047000D01*
X116452000Y-101087000D02*
X110152000Y-101087000D01*
X107272000Y-101087000D02*
X100972000Y-101087000D01*
X116427000Y-101127000D02*
X110152000Y-101127000D01*
X107272000Y-101127000D02*
X100997000Y-101127000D01*
X116402000Y-101167000D02*
X110152000Y-101167000D01*
X107272000Y-101167000D02*
X101022000Y-101167000D01*
X116377000Y-101207000D02*
X110152000Y-101207000D01*
X107272000Y-101207000D02*
X101047000Y-101207000D01*
X116352000Y-101247000D02*
X110152000Y-101247000D01*
X107272000Y-101247000D02*
X101072000Y-101247000D01*
X116326000Y-101287000D02*
X110152000Y-101287000D01*
X107272000Y-101287000D02*
X101098000Y-101287000D01*
X116300000Y-101327000D02*
X110152000Y-101327000D01*
X107272000Y-101327000D02*
X101124000Y-101327000D01*
X116273000Y-101367000D02*
X110152000Y-101367000D01*
X107272000Y-101367000D02*
X101151000Y-101367000D01*
X116247000Y-101407000D02*
X110152000Y-101407000D01*
X107272000Y-101407000D02*
X101177000Y-101407000D01*
X116220000Y-101447000D02*
X110152000Y-101447000D01*
X107272000Y-101447000D02*
X101204000Y-101447000D01*
X116192000Y-101487000D02*
X110152000Y-101487000D01*
X107272000Y-101487000D02*
X101232000Y-101487000D01*
X116165000Y-101527000D02*
X101259000Y-101527000D01*
X116137000Y-101567000D02*
X101287000Y-101567000D01*
X116109000Y-101607000D02*
X101315000Y-101607000D01*
X116080000Y-101647000D02*
X101344000Y-101647000D01*
X116051000Y-101687000D02*
X101373000Y-101687000D01*
X116022000Y-101727000D02*
X101402000Y-101727000D01*
X115992000Y-101767000D02*
X101432000Y-101767000D01*
X115962000Y-101807000D02*
X101462000Y-101807000D01*
X115932000Y-101847000D02*
X101492000Y-101847000D01*
X115902000Y-101887000D02*
X101522000Y-101887000D01*
X115871000Y-101927000D02*
X101553000Y-101927000D01*
X115839000Y-101967000D02*
X101585000Y-101967000D01*
X115808000Y-102007000D02*
X101616000Y-102007000D01*
X115776000Y-102047000D02*
X101648000Y-102047000D01*
X115743000Y-102087000D02*
X101681000Y-102087000D01*
X115711000Y-102127000D02*
X101713000Y-102127000D01*
X115677000Y-102167000D02*
X101747000Y-102167000D01*
X115644000Y-102207000D02*
X101780000Y-102207000D01*
X115610000Y-102247000D02*
X101814000Y-102247000D01*
X115576000Y-102287000D02*
X101848000Y-102287000D01*
X115541000Y-102327000D02*
X101883000Y-102327000D01*
X115506000Y-102367000D02*
X101918000Y-102367000D01*
X115470000Y-102407000D02*
X101954000Y-102407000D01*
X115434000Y-102447000D02*
X101990000Y-102447000D01*
X115398000Y-102487000D02*
X102026000Y-102487000D01*
X115361000Y-102527000D02*
X102063000Y-102527000D01*
X115324000Y-102567000D02*
X102100000Y-102567000D01*
X115286000Y-102607000D02*
X102138000Y-102607000D01*
X115248000Y-102647000D02*
X102176000Y-102647000D01*
X115209000Y-102687000D02*
X102215000Y-102687000D01*
X115170000Y-102727000D02*
X102254000Y-102727000D01*
X115130000Y-102767000D02*
X102294000Y-102767000D01*
X115090000Y-102807000D02*
X102334000Y-102807000D01*
X115049000Y-102847000D02*
X102375000Y-102847000D01*
X115008000Y-102887000D02*
X102416000Y-102887000D01*
X114966000Y-102927000D02*
X102458000Y-102927000D01*
X114924000Y-102967000D02*
X102500000Y-102967000D01*
X114882000Y-103007000D02*
X102542000Y-103007000D01*
X114838000Y-103047000D02*
X102586000Y-103047000D01*
X114794000Y-103087000D02*
X102630000Y-103087000D01*
X114750000Y-103127000D02*
X102674000Y-103127000D01*
X114705000Y-103167000D02*
X102719000Y-103167000D01*
X114659000Y-103207000D02*
X102765000Y-103207000D01*
X114613000Y-103247000D02*
X102811000Y-103247000D01*
X114566000Y-103287000D02*
X102858000Y-103287000D01*
X114518000Y-103327000D02*
X102906000Y-103327000D01*
X114470000Y-103367000D02*
X102954000Y-103367000D01*
X114421000Y-103407000D02*
X103003000Y-103407000D01*
X114372000Y-103447000D02*
X103052000Y-103447000D01*
X114321000Y-103487000D02*
X103103000Y-103487000D01*
X114270000Y-103527000D02*
X103154000Y-103527000D01*
X114218000Y-103567000D02*
X103206000Y-103567000D01*
X114166000Y-103607000D02*
X103258000Y-103607000D01*
X114112000Y-103647000D02*
X103312000Y-103647000D01*
X114058000Y-103687000D02*
X103366000Y-103687000D01*
X114003000Y-103727000D02*
X103421000Y-103727000D01*
X113947000Y-103767000D02*
X103477000Y-103767000D01*
X113890000Y-103807000D02*
X103534000Y-103807000D01*
X113832000Y-103847000D02*
X103592000Y-103847000D01*
X113774000Y-103887000D02*
X103650000Y-103887000D01*
X113714000Y-103927000D02*
X103710000Y-103927000D01*
X113653000Y-103967000D02*
X103771000Y-103967000D01*
X113591000Y-104007000D02*
X103833000Y-104007000D01*
X113528000Y-104047000D02*
X103896000Y-104047000D01*
X113464000Y-104087000D02*
X103960000Y-104087000D01*
X113398000Y-104127000D02*
X104026000Y-104127000D01*
X113332000Y-104167000D02*
X104092000Y-104167000D01*
X113264000Y-104207000D02*
X104160000Y-104207000D01*
X113194000Y-104247000D02*
X104230000Y-104247000D01*
X113124000Y-104287000D02*
X104300000Y-104287000D01*
X113051000Y-104327000D02*
X104373000Y-104327000D01*
X112977000Y-104367000D02*
X104447000Y-104367000D01*
X112902000Y-104407000D02*
X104522000Y-104407000D01*
X112825000Y-104447000D02*
X104599000Y-104447000D01*
X112745000Y-104487000D02*
X104679000Y-104487000D01*
X112664000Y-104526000D02*
X104760000Y-104526000D01*
X112581000Y-104566000D02*
X104843000Y-104566000D01*
X112496000Y-104606000D02*
X104928000Y-104606000D01*
X112408000Y-104646000D02*
X105016000Y-104646000D01*
X112317000Y-104686000D02*
X105107000Y-104686000D01*
X112224000Y-104726000D02*
X105200000Y-104726000D01*
X112128000Y-104766000D02*
X105296000Y-104766000D01*
X112029000Y-104806000D02*
X105395000Y-104806000D01*
X111926000Y-104846000D02*
X105498000Y-104846000D01*
X111819000Y-104886000D02*
X105605000Y-104886000D01*
X111708000Y-104926000D02*
X105716000Y-104926000D01*
X111592000Y-104966000D02*
X105832000Y-104966000D01*
X111471000Y-105006000D02*
X105953000Y-105006000D01*
X111344000Y-105046000D02*
X106080000Y-105046000D01*
X111210000Y-105086000D02*
X106214000Y-105086000D01*
X111067000Y-105126000D02*
X106357000Y-105126000D01*
X110915000Y-105166000D02*
X106509000Y-105166000D01*
X110751000Y-105206000D02*
X106673000Y-105206000D01*
X110572000Y-105246000D02*
X106852000Y-105246000D01*
X110373000Y-105286000D02*
X107051000Y-105286000D01*
X110147000Y-105326000D02*
X107277000Y-105326000D01*
X109878000Y-105366000D02*
X107546000Y-105366000D01*
X109526000Y-105406000D02*
X107898000Y-105406000D01*
X108752000Y-105446000D02*
X108672000Y-105446000D01*
X117832000Y-96326000D02*
G75*
G02*
X99592000Y-96326000I-9120000J0D01*
G01*
X99592000Y-96326000D02*
G75*
G02*
X117832000Y-96326000I9120000J0D01*
G01*
%TO.C,C1*%
X113827000Y-66246560D02*
X113827000Y-68046560D01*
X114727000Y-67146560D02*
X112927000Y-67146560D01*
X117793000Y-76006000D02*
X99631000Y-76006000D01*
X117792000Y-76046000D02*
X99632000Y-76046000D01*
X117792000Y-76086000D02*
X99632000Y-76086000D01*
X117792000Y-76126000D02*
X99632000Y-76126000D01*
X117791000Y-76166000D02*
X99633000Y-76166000D01*
X117790000Y-76206000D02*
X99634000Y-76206000D01*
X117789000Y-76246000D02*
X99635000Y-76246000D01*
X117788000Y-76286000D02*
X99636000Y-76286000D01*
X117787000Y-76326000D02*
X99637000Y-76326000D01*
X117785000Y-76366000D02*
X99639000Y-76366000D01*
X117784000Y-76406000D02*
X99640000Y-76406000D01*
X117782000Y-76446000D02*
X99642000Y-76446000D01*
X117780000Y-76486000D02*
X99644000Y-76486000D01*
X117778000Y-76526000D02*
X99646000Y-76526000D01*
X117775000Y-76566000D02*
X99649000Y-76566000D01*
X117773000Y-76606000D02*
X99651000Y-76606000D01*
X117770000Y-76646000D02*
X99654000Y-76646000D01*
X117767000Y-76686000D02*
X99657000Y-76686000D01*
X117764000Y-76727000D02*
X99660000Y-76727000D01*
X117761000Y-76767000D02*
X99663000Y-76767000D01*
X117757000Y-76807000D02*
X99667000Y-76807000D01*
X117754000Y-76847000D02*
X99670000Y-76847000D01*
X117750000Y-76887000D02*
X99674000Y-76887000D01*
X117746000Y-76927000D02*
X99678000Y-76927000D01*
X117742000Y-76967000D02*
X99682000Y-76967000D01*
X117738000Y-77007000D02*
X99686000Y-77007000D01*
X117733000Y-77047000D02*
X99691000Y-77047000D01*
X117728000Y-77087000D02*
X99696000Y-77087000D01*
X117723000Y-77127000D02*
X99701000Y-77127000D01*
X117718000Y-77167000D02*
X99706000Y-77167000D01*
X117713000Y-77207000D02*
X99711000Y-77207000D01*
X117708000Y-77247000D02*
X99716000Y-77247000D01*
X117702000Y-77287000D02*
X99722000Y-77287000D01*
X117696000Y-77327000D02*
X99728000Y-77327000D01*
X117691000Y-77367000D02*
X99733000Y-77367000D01*
X117684000Y-77407000D02*
X99740000Y-77407000D01*
X117678000Y-77447000D02*
X99746000Y-77447000D01*
X117672000Y-77487000D02*
X99752000Y-77487000D01*
X117665000Y-77527000D02*
X99759000Y-77527000D01*
X117658000Y-77567000D02*
X99766000Y-77567000D01*
X117651000Y-77607000D02*
X99773000Y-77607000D01*
X117644000Y-77647000D02*
X99780000Y-77647000D01*
X117636000Y-77687000D02*
X99788000Y-77687000D01*
X117629000Y-77727000D02*
X99795000Y-77727000D01*
X117621000Y-77767000D02*
X99803000Y-77767000D01*
X117613000Y-77807000D02*
X99811000Y-77807000D01*
X117605000Y-77847000D02*
X99819000Y-77847000D01*
X117597000Y-77887000D02*
X99827000Y-77887000D01*
X117588000Y-77927000D02*
X99836000Y-77927000D01*
X117579000Y-77967000D02*
X99845000Y-77967000D01*
X117570000Y-78007000D02*
X99854000Y-78007000D01*
X117561000Y-78047000D02*
X99863000Y-78047000D01*
X117552000Y-78087000D02*
X99872000Y-78087000D01*
X117543000Y-78127000D02*
X99881000Y-78127000D01*
X117533000Y-78167000D02*
X99891000Y-78167000D01*
X117523000Y-78207000D02*
X99901000Y-78207000D01*
X117513000Y-78247000D02*
X99911000Y-78247000D01*
X117503000Y-78287000D02*
X99921000Y-78287000D01*
X117492000Y-78327000D02*
X110152000Y-78327000D01*
X107272000Y-78327000D02*
X99932000Y-78327000D01*
X117482000Y-78367000D02*
X110152000Y-78367000D01*
X107272000Y-78367000D02*
X99942000Y-78367000D01*
X117471000Y-78407000D02*
X110152000Y-78407000D01*
X107272000Y-78407000D02*
X99953000Y-78407000D01*
X117460000Y-78447000D02*
X110152000Y-78447000D01*
X107272000Y-78447000D02*
X99964000Y-78447000D01*
X117449000Y-78487000D02*
X110152000Y-78487000D01*
X107272000Y-78487000D02*
X99975000Y-78487000D01*
X117437000Y-78527000D02*
X110152000Y-78527000D01*
X107272000Y-78527000D02*
X99987000Y-78527000D01*
X117426000Y-78567000D02*
X110152000Y-78567000D01*
X107272000Y-78567000D02*
X99998000Y-78567000D01*
X117414000Y-78607000D02*
X110152000Y-78607000D01*
X107272000Y-78607000D02*
X100010000Y-78607000D01*
X117402000Y-78647000D02*
X110152000Y-78647000D01*
X107272000Y-78647000D02*
X100022000Y-78647000D01*
X117390000Y-78687000D02*
X110152000Y-78687000D01*
X107272000Y-78687000D02*
X100034000Y-78687000D01*
X117377000Y-78727000D02*
X110152000Y-78727000D01*
X107272000Y-78727000D02*
X100047000Y-78727000D01*
X117365000Y-78767000D02*
X110152000Y-78767000D01*
X107272000Y-78767000D02*
X100059000Y-78767000D01*
X117352000Y-78807000D02*
X110152000Y-78807000D01*
X107272000Y-78807000D02*
X100072000Y-78807000D01*
X117339000Y-78847000D02*
X110152000Y-78847000D01*
X107272000Y-78847000D02*
X100085000Y-78847000D01*
X117326000Y-78887000D02*
X110152000Y-78887000D01*
X107272000Y-78887000D02*
X100098000Y-78887000D01*
X117312000Y-78927000D02*
X110152000Y-78927000D01*
X107272000Y-78927000D02*
X100112000Y-78927000D01*
X117299000Y-78967000D02*
X110152000Y-78967000D01*
X107272000Y-78967000D02*
X100125000Y-78967000D01*
X117285000Y-79007000D02*
X110152000Y-79007000D01*
X107272000Y-79007000D02*
X100139000Y-79007000D01*
X117271000Y-79047000D02*
X110152000Y-79047000D01*
X107272000Y-79047000D02*
X100153000Y-79047000D01*
X117257000Y-79087000D02*
X110152000Y-79087000D01*
X107272000Y-79087000D02*
X100167000Y-79087000D01*
X117242000Y-79127000D02*
X110152000Y-79127000D01*
X107272000Y-79127000D02*
X100182000Y-79127000D01*
X117228000Y-79167000D02*
X110152000Y-79167000D01*
X107272000Y-79167000D02*
X100196000Y-79167000D01*
X117213000Y-79207000D02*
X110152000Y-79207000D01*
X107272000Y-79207000D02*
X100211000Y-79207000D01*
X117198000Y-79247000D02*
X110152000Y-79247000D01*
X107272000Y-79247000D02*
X100226000Y-79247000D01*
X117182000Y-79287000D02*
X110152000Y-79287000D01*
X107272000Y-79287000D02*
X100242000Y-79287000D01*
X117167000Y-79327000D02*
X110152000Y-79327000D01*
X107272000Y-79327000D02*
X100257000Y-79327000D01*
X117151000Y-79367000D02*
X110152000Y-79367000D01*
X107272000Y-79367000D02*
X100273000Y-79367000D01*
X117135000Y-79407000D02*
X110152000Y-79407000D01*
X107272000Y-79407000D02*
X100289000Y-79407000D01*
X117119000Y-79447000D02*
X110152000Y-79447000D01*
X107272000Y-79447000D02*
X100305000Y-79447000D01*
X117102000Y-79487000D02*
X110152000Y-79487000D01*
X107272000Y-79487000D02*
X100322000Y-79487000D01*
X117086000Y-79527000D02*
X110152000Y-79527000D01*
X107272000Y-79527000D02*
X100338000Y-79527000D01*
X117069000Y-79567000D02*
X110152000Y-79567000D01*
X107272000Y-79567000D02*
X100355000Y-79567000D01*
X117052000Y-79607000D02*
X110152000Y-79607000D01*
X107272000Y-79607000D02*
X100372000Y-79607000D01*
X117035000Y-79647000D02*
X110152000Y-79647000D01*
X107272000Y-79647000D02*
X100389000Y-79647000D01*
X117017000Y-79687000D02*
X110152000Y-79687000D01*
X107272000Y-79687000D02*
X100407000Y-79687000D01*
X116999000Y-79727000D02*
X110152000Y-79727000D01*
X107272000Y-79727000D02*
X100425000Y-79727000D01*
X116981000Y-79767000D02*
X110152000Y-79767000D01*
X107272000Y-79767000D02*
X100443000Y-79767000D01*
X116963000Y-79807000D02*
X110152000Y-79807000D01*
X107272000Y-79807000D02*
X100461000Y-79807000D01*
X116945000Y-79847000D02*
X110152000Y-79847000D01*
X107272000Y-79847000D02*
X100479000Y-79847000D01*
X116926000Y-79887000D02*
X110152000Y-79887000D01*
X107272000Y-79887000D02*
X100498000Y-79887000D01*
X116907000Y-79927000D02*
X110152000Y-79927000D01*
X107272000Y-79927000D02*
X100517000Y-79927000D01*
X116888000Y-79967000D02*
X110152000Y-79967000D01*
X107272000Y-79967000D02*
X100536000Y-79967000D01*
X116868000Y-80007000D02*
X110152000Y-80007000D01*
X107272000Y-80007000D02*
X100556000Y-80007000D01*
X116849000Y-80047000D02*
X110152000Y-80047000D01*
X107272000Y-80047000D02*
X100575000Y-80047000D01*
X116829000Y-80087000D02*
X110152000Y-80087000D01*
X107272000Y-80087000D02*
X100595000Y-80087000D01*
X116809000Y-80127000D02*
X110152000Y-80127000D01*
X107272000Y-80127000D02*
X100615000Y-80127000D01*
X116788000Y-80167000D02*
X110152000Y-80167000D01*
X107272000Y-80167000D02*
X100636000Y-80167000D01*
X116768000Y-80207000D02*
X110152000Y-80207000D01*
X107272000Y-80207000D02*
X100656000Y-80207000D01*
X116747000Y-80247000D02*
X110152000Y-80247000D01*
X107272000Y-80247000D02*
X100677000Y-80247000D01*
X116726000Y-80287000D02*
X110152000Y-80287000D01*
X107272000Y-80287000D02*
X100698000Y-80287000D01*
X116704000Y-80327000D02*
X110152000Y-80327000D01*
X107272000Y-80327000D02*
X100720000Y-80327000D01*
X116683000Y-80367000D02*
X110152000Y-80367000D01*
X107272000Y-80367000D02*
X100741000Y-80367000D01*
X116661000Y-80407000D02*
X110152000Y-80407000D01*
X107272000Y-80407000D02*
X100763000Y-80407000D01*
X116639000Y-80447000D02*
X110152000Y-80447000D01*
X107272000Y-80447000D02*
X100785000Y-80447000D01*
X116616000Y-80487000D02*
X110152000Y-80487000D01*
X107272000Y-80487000D02*
X100808000Y-80487000D01*
X116594000Y-80527000D02*
X110152000Y-80527000D01*
X107272000Y-80527000D02*
X100830000Y-80527000D01*
X116571000Y-80567000D02*
X110152000Y-80567000D01*
X107272000Y-80567000D02*
X100853000Y-80567000D01*
X116547000Y-80607000D02*
X110152000Y-80607000D01*
X107272000Y-80607000D02*
X100877000Y-80607000D01*
X116524000Y-80647000D02*
X110152000Y-80647000D01*
X107272000Y-80647000D02*
X100900000Y-80647000D01*
X116500000Y-80687000D02*
X110152000Y-80687000D01*
X107272000Y-80687000D02*
X100924000Y-80687000D01*
X116476000Y-80727000D02*
X110152000Y-80727000D01*
X107272000Y-80727000D02*
X100948000Y-80727000D01*
X116452000Y-80767000D02*
X110152000Y-80767000D01*
X107272000Y-80767000D02*
X100972000Y-80767000D01*
X116427000Y-80807000D02*
X110152000Y-80807000D01*
X107272000Y-80807000D02*
X100997000Y-80807000D01*
X116402000Y-80847000D02*
X110152000Y-80847000D01*
X107272000Y-80847000D02*
X101022000Y-80847000D01*
X116377000Y-80887000D02*
X110152000Y-80887000D01*
X107272000Y-80887000D02*
X101047000Y-80887000D01*
X116352000Y-80927000D02*
X110152000Y-80927000D01*
X107272000Y-80927000D02*
X101072000Y-80927000D01*
X116326000Y-80967000D02*
X110152000Y-80967000D01*
X107272000Y-80967000D02*
X101098000Y-80967000D01*
X116300000Y-81007000D02*
X110152000Y-81007000D01*
X107272000Y-81007000D02*
X101124000Y-81007000D01*
X116273000Y-81047000D02*
X110152000Y-81047000D01*
X107272000Y-81047000D02*
X101151000Y-81047000D01*
X116247000Y-81087000D02*
X110152000Y-81087000D01*
X107272000Y-81087000D02*
X101177000Y-81087000D01*
X116220000Y-81127000D02*
X110152000Y-81127000D01*
X107272000Y-81127000D02*
X101204000Y-81127000D01*
X116192000Y-81167000D02*
X110152000Y-81167000D01*
X107272000Y-81167000D02*
X101232000Y-81167000D01*
X116165000Y-81207000D02*
X101259000Y-81207000D01*
X116137000Y-81247000D02*
X101287000Y-81247000D01*
X116109000Y-81287000D02*
X101315000Y-81287000D01*
X116080000Y-81327000D02*
X101344000Y-81327000D01*
X116051000Y-81367000D02*
X101373000Y-81367000D01*
X116022000Y-81407000D02*
X101402000Y-81407000D01*
X115992000Y-81447000D02*
X101432000Y-81447000D01*
X115962000Y-81487000D02*
X101462000Y-81487000D01*
X115932000Y-81527000D02*
X101492000Y-81527000D01*
X115902000Y-81567000D02*
X101522000Y-81567000D01*
X115871000Y-81607000D02*
X101553000Y-81607000D01*
X115839000Y-81647000D02*
X101585000Y-81647000D01*
X115808000Y-81687000D02*
X101616000Y-81687000D01*
X115776000Y-81727000D02*
X101648000Y-81727000D01*
X115743000Y-81767000D02*
X101681000Y-81767000D01*
X115711000Y-81807000D02*
X101713000Y-81807000D01*
X115677000Y-81847000D02*
X101747000Y-81847000D01*
X115644000Y-81887000D02*
X101780000Y-81887000D01*
X115610000Y-81927000D02*
X101814000Y-81927000D01*
X115576000Y-81967000D02*
X101848000Y-81967000D01*
X115541000Y-82007000D02*
X101883000Y-82007000D01*
X115506000Y-82047000D02*
X101918000Y-82047000D01*
X115470000Y-82087000D02*
X101954000Y-82087000D01*
X115434000Y-82127000D02*
X101990000Y-82127000D01*
X115398000Y-82167000D02*
X102026000Y-82167000D01*
X115361000Y-82207000D02*
X102063000Y-82207000D01*
X115324000Y-82247000D02*
X102100000Y-82247000D01*
X115286000Y-82287000D02*
X102138000Y-82287000D01*
X115248000Y-82327000D02*
X102176000Y-82327000D01*
X115209000Y-82367000D02*
X102215000Y-82367000D01*
X115170000Y-82407000D02*
X102254000Y-82407000D01*
X115130000Y-82447000D02*
X102294000Y-82447000D01*
X115090000Y-82487000D02*
X102334000Y-82487000D01*
X115049000Y-82527000D02*
X102375000Y-82527000D01*
X115008000Y-82567000D02*
X102416000Y-82567000D01*
X114966000Y-82607000D02*
X102458000Y-82607000D01*
X114924000Y-82647000D02*
X102500000Y-82647000D01*
X114882000Y-82687000D02*
X102542000Y-82687000D01*
X114838000Y-82727000D02*
X102586000Y-82727000D01*
X114794000Y-82767000D02*
X102630000Y-82767000D01*
X114750000Y-82807000D02*
X102674000Y-82807000D01*
X114705000Y-82847000D02*
X102719000Y-82847000D01*
X114659000Y-82887000D02*
X102765000Y-82887000D01*
X114613000Y-82927000D02*
X102811000Y-82927000D01*
X114566000Y-82967000D02*
X102858000Y-82967000D01*
X114518000Y-83007000D02*
X102906000Y-83007000D01*
X114470000Y-83047000D02*
X102954000Y-83047000D01*
X114421000Y-83087000D02*
X103003000Y-83087000D01*
X114372000Y-83127000D02*
X103052000Y-83127000D01*
X114321000Y-83167000D02*
X103103000Y-83167000D01*
X114270000Y-83207000D02*
X103154000Y-83207000D01*
X114218000Y-83247000D02*
X103206000Y-83247000D01*
X114166000Y-83287000D02*
X103258000Y-83287000D01*
X114112000Y-83327000D02*
X103312000Y-83327000D01*
X114058000Y-83367000D02*
X103366000Y-83367000D01*
X114003000Y-83407000D02*
X103421000Y-83407000D01*
X113947000Y-83447000D02*
X103477000Y-83447000D01*
X113890000Y-83487000D02*
X103534000Y-83487000D01*
X113832000Y-83527000D02*
X103592000Y-83527000D01*
X113774000Y-83567000D02*
X103650000Y-83567000D01*
X113714000Y-83607000D02*
X103710000Y-83607000D01*
X113653000Y-83647000D02*
X103771000Y-83647000D01*
X113591000Y-83687000D02*
X103833000Y-83687000D01*
X113528000Y-83727000D02*
X103896000Y-83727000D01*
X113464000Y-83767000D02*
X103960000Y-83767000D01*
X113398000Y-83807000D02*
X104026000Y-83807000D01*
X113332000Y-83847000D02*
X104092000Y-83847000D01*
X113264000Y-83887000D02*
X104160000Y-83887000D01*
X113194000Y-83927000D02*
X104230000Y-83927000D01*
X113124000Y-83967000D02*
X104300000Y-83967000D01*
X113051000Y-84007000D02*
X104373000Y-84007000D01*
X112977000Y-84047000D02*
X104447000Y-84047000D01*
X112902000Y-84087000D02*
X104522000Y-84087000D01*
X112825000Y-84127000D02*
X104599000Y-84127000D01*
X112745000Y-84167000D02*
X104679000Y-84167000D01*
X112664000Y-84206000D02*
X104760000Y-84206000D01*
X112581000Y-84246000D02*
X104843000Y-84246000D01*
X112496000Y-84286000D02*
X104928000Y-84286000D01*
X112408000Y-84326000D02*
X105016000Y-84326000D01*
X112317000Y-84366000D02*
X105107000Y-84366000D01*
X112224000Y-84406000D02*
X105200000Y-84406000D01*
X112128000Y-84446000D02*
X105296000Y-84446000D01*
X112029000Y-84486000D02*
X105395000Y-84486000D01*
X111926000Y-84526000D02*
X105498000Y-84526000D01*
X111819000Y-84566000D02*
X105605000Y-84566000D01*
X111708000Y-84606000D02*
X105716000Y-84606000D01*
X111592000Y-84646000D02*
X105832000Y-84646000D01*
X111471000Y-84686000D02*
X105953000Y-84686000D01*
X111344000Y-84726000D02*
X106080000Y-84726000D01*
X111210000Y-84766000D02*
X106214000Y-84766000D01*
X111067000Y-84806000D02*
X106357000Y-84806000D01*
X110915000Y-84846000D02*
X106509000Y-84846000D01*
X110751000Y-84886000D02*
X106673000Y-84886000D01*
X110572000Y-84926000D02*
X106852000Y-84926000D01*
X110373000Y-84966000D02*
X107051000Y-84966000D01*
X110147000Y-85006000D02*
X107277000Y-85006000D01*
X109878000Y-85046000D02*
X107546000Y-85046000D01*
X109526000Y-85086000D02*
X107898000Y-85086000D01*
X108752000Y-85126000D02*
X108672000Y-85126000D01*
X117832000Y-76006000D02*
G75*
G02*
X99592000Y-76006000I-9120000J0D01*
G01*
X99592000Y-76006000D02*
G75*
G02*
X117832000Y-76006000I9120000J0D01*
G01*
%TO.C,D4*%
X93570000Y-91850000D02*
X93570000Y-101190000D01*
X90740000Y-91850000D02*
X93570000Y-91850000D01*
X87060000Y-91850000D02*
X84230000Y-91850000D01*
X84230000Y-91850000D02*
X84230000Y-101190000D01*
X93570000Y-93215000D02*
X84230000Y-93215000D01*
X93570000Y-93335000D02*
X84230000Y-93335000D01*
X93570000Y-93455000D02*
X84230000Y-93455000D01*
X93570000Y-101190000D02*
X90740000Y-101190000D01*
X84230000Y-101190000D02*
X87060000Y-101190000D01*
%TD*%
M02*
