M48
; DRILL file {KiCad 8.0.4} date 2024-09-25T20:52:36-0400
; FORMAT={-:-/ absolute / inch / decimal}
; #@! TF.CreationDate,2024-09-25T20:52:36-04:00
; #@! TF.GenerationSoftware,Kicad,Pcbnew,8.0.4
; #@! TF.FileFunction,Plated,1,2,PTH
FMAT,2
INCH
; #@! TA.AperFunction,Plated,PTH,ComponentDrill
T1C0.0315
; #@! TA.AperFunction,Plated,PTH,ComponentDrill
T2C0.0472
; #@! TA.AperFunction,Plated,PTH,ComponentDrill
T3C0.0630
; #@! TA.AperFunction,Plated,PTH,ComponentDrill
T4C0.1260
%
G90
G05
T1
X5.6891Y-2.7422
X5.6891Y-4.0222
X5.886Y-2.7422
X5.886Y-4.0222
T2
X2.4724Y-3.2422
X2.4724Y-3.38
X2.4724Y-3.5178
X4.28Y-2.8447
X4.28Y-3.14
X4.28Y-3.6447
X4.28Y-3.94
X5.12Y-2.8447
X5.12Y-3.14
X5.12Y-3.66
X5.12Y-3.9553
X6.0924Y-3.2444
X6.0924Y-3.3822
X6.0924Y-3.52
T3
X2.92Y-2.75
X2.92Y-3.25
X2.92Y-3.55
X2.92Y-4.05
X3.5Y-2.75
X3.5Y-3.25
X3.5Y-3.55
X3.5Y-4.05
T4
X2.4Y-2.6108
X2.4Y-4.12
X6.1076Y-2.6022
X6.1076Y-4.1222
M30
