%TF.GenerationSoftware,KiCad,Pcbnew,8.0.4*%
%TF.CreationDate,2024-09-25T20:52:30-04:00*%
%TF.ProjectId,power_supply,706f7765-725f-4737-9570-706c792e6b69,rev?*%
%TF.SameCoordinates,Original*%
%TF.FileFunction,Copper,L1,Top*%
%TF.FilePolarity,Positive*%
%FSLAX46Y46*%
G04 Gerber Fmt 4.6, Leading zero omitted, Abs format (unit mm)*
G04 Created by KiCad (PCBNEW 8.0.4) date 2024-09-25 20:52:30*
%MOMM*%
%LPD*%
G01*
G04 APERTURE LIST*
%TA.AperFunction,ComponentPad*%
%ADD10C,1.600000*%
%TD*%
%TA.AperFunction,ComponentPad*%
%ADD11C,5.600000*%
%TD*%
%TA.AperFunction,ComponentPad*%
%ADD12R,2.400000X2.400000*%
%TD*%
%TA.AperFunction,ComponentPad*%
%ADD13C,2.400000*%
%TD*%
%TA.AperFunction,ComponentPad*%
%ADD14R,3.200000X3.200000*%
%TD*%
%TA.AperFunction,ComponentPad*%
%ADD15O,3.200000X3.200000*%
%TD*%
%TA.AperFunction,Conductor*%
%ADD16C,6.000000*%
%TD*%
%TA.AperFunction,Conductor*%
%ADD17C,4.000000*%
%TD*%
%TA.AperFunction,Conductor*%
%ADD18C,3.000000*%
%TD*%
G04 APERTURE END LIST*
D10*
%TO.P,C4,1*%
%TO.N,GND*%
X149504000Y-102164000D03*
%TO.P,C4,2*%
%TO.N,/V-*%
X144504000Y-102164000D03*
%TD*%
D11*
%TO.P,REF\u002A\u002A,1*%
%TO.N,GND*%
X155132000Y-104704000D03*
%TD*%
D12*
%TO.P,C2,1*%
%TO.N,GND*%
X108712000Y-92576000D03*
D13*
%TO.P,C2,2*%
%TO.N,/V-*%
X108712000Y-100076000D03*
%TD*%
D14*
%TO.P,D4,1,K*%
%TO.N,/AC1*%
X88900000Y-90170000D03*
D15*
%TO.P,D4,2,A*%
%TO.N,/V-*%
X88900000Y-102870000D03*
%TD*%
D11*
%TO.P,REF\u002A\u002A,1*%
%TO.N,GND*%
X60960000Y-66315000D03*
%TD*%
D12*
%TO.P,C5,1*%
%TO.N,/V+*%
X130048000Y-72256000D03*
D13*
%TO.P,C5,2*%
%TO.N,GND*%
X130048000Y-79756000D03*
%TD*%
D14*
%TO.P,D3,1,K*%
%TO.N,/V+*%
X74168000Y-69850000D03*
D15*
%TO.P,D3,2,A*%
%TO.N,/AC2*%
X74168000Y-82550000D03*
%TD*%
D11*
%TO.P,REF\u002A\u002A,1*%
%TO.N,GND*%
X60960000Y-104648000D03*
%TD*%
D12*
%TO.P,J2,1,Pin_1*%
%TO.N,/V-*%
X154748000Y-89408000D03*
D13*
%TO.P,J2,2,Pin_2*%
%TO.N,GND*%
X154748000Y-85908000D03*
%TO.P,J2,3,Pin_3*%
%TO.N,/V+*%
X154748000Y-82408000D03*
%TD*%
D12*
%TO.P,J1,1,Pin_1*%
%TO.N,/AC2*%
X62800000Y-82352000D03*
D13*
%TO.P,J1,2,Pin_2*%
%TO.N,GND*%
X62800000Y-85852000D03*
%TO.P,J1,3,Pin_3*%
%TO.N,/AC1*%
X62800000Y-89352000D03*
%TD*%
D12*
%TO.P,C1,1*%
%TO.N,/V+*%
X108712000Y-72256000D03*
D13*
%TO.P,C1,2*%
%TO.N,GND*%
X108712000Y-79756000D03*
%TD*%
D11*
%TO.P,REF\u002A\u002A,1*%
%TO.N,GND*%
X155132000Y-66096000D03*
%TD*%
D10*
%TO.P,C3,1*%
%TO.N,/V+*%
X144504000Y-69652000D03*
%TO.P,C3,2*%
%TO.N,GND*%
X149504000Y-69652000D03*
%TD*%
D12*
%TO.P,C6,1*%
%TO.N,GND*%
X130048000Y-92964000D03*
D13*
%TO.P,C6,2*%
%TO.N,/V-*%
X130048000Y-100464000D03*
%TD*%
D14*
%TO.P,D1,1,K*%
%TO.N,/V+*%
X88900000Y-69850000D03*
D15*
%TO.P,D1,2,A*%
%TO.N,/AC1*%
X88900000Y-82550000D03*
%TD*%
D14*
%TO.P,D2,1,K*%
%TO.N,/AC2*%
X74168000Y-90170000D03*
D15*
%TO.P,D2,2,A*%
%TO.N,/V-*%
X74168000Y-102870000D03*
%TD*%
D16*
%TO.N,/V+*%
X145160000Y-70308000D02*
X145160000Y-72256000D01*
X144504000Y-69652000D02*
X145160000Y-70308000D01*
D17*
%TO.N,/V-*%
X152400000Y-92208000D02*
X152400000Y-92202000D01*
X146852000Y-98044000D02*
X146852000Y-97756000D01*
X146852000Y-97756000D02*
X152400000Y-92208000D01*
X144820000Y-100076000D02*
X146852000Y-98044000D01*
D16*
X108712000Y-100076000D02*
X144820000Y-100076000D01*
%TO.N,/V+*%
X108712000Y-72256000D02*
X145160000Y-72256000D01*
X88900000Y-69850000D02*
X106306000Y-69850000D01*
D18*
X155256000Y-82352000D02*
X152406000Y-79502000D01*
D17*
X152400000Y-79496000D02*
X152400000Y-79502000D01*
D16*
X74168000Y-69850000D02*
X88900000Y-69850000D01*
D17*
X152400000Y-79496000D02*
X145160000Y-72256000D01*
D16*
X106306000Y-69850000D02*
X108712000Y-72256000D01*
%TO.N,/V-*%
X88900000Y-102870000D02*
X105918000Y-102870000D01*
D18*
X155256000Y-89352000D02*
X155250000Y-89352000D01*
D16*
X105918000Y-102870000D02*
X108712000Y-100076000D01*
X74168000Y-102870000D02*
X88900000Y-102870000D01*
D18*
X155250000Y-89352000D02*
X152400000Y-92202000D01*
D17*
%TO.N,/AC1*%
X70118000Y-96534000D02*
X65786000Y-92202000D01*
X82400000Y-96670000D02*
X88900000Y-90170000D01*
D18*
X62800000Y-89352000D02*
X65650000Y-92202000D01*
D17*
X70118000Y-96670000D02*
X70118000Y-96534000D01*
X70118000Y-96670000D02*
X82400000Y-96670000D01*
D16*
X88900000Y-90170000D02*
X88900000Y-82550000D01*
D18*
X65650000Y-92202000D02*
X65786000Y-92202000D01*
D16*
%TO.N,/AC2*%
X74168000Y-82550000D02*
X73070000Y-81452000D01*
X74168000Y-82550000D02*
X74168000Y-90170000D01*
X73070000Y-81452000D02*
X68154000Y-81452000D01*
D17*
X67254000Y-82352000D02*
X68072000Y-81534000D01*
D18*
X62800000Y-82352000D02*
X67254000Y-82352000D01*
%TD*%
M02*
