%TF.GenerationSoftware,KiCad,Pcbnew,8.0.4*%
%TF.CreationDate,2024-08-31T16:48:19-04:00*%
%TF.ProjectId,classab-amp,636c6173-7361-4622-9d61-6d702e6b6963,rev?*%
%TF.SameCoordinates,Original*%
%TF.FileFunction,Copper,L1,Top*%
%TF.FilePolarity,Positive*%
%FSLAX46Y46*%
G04 Gerber Fmt 4.6, Leading zero omitted, Abs format (unit mm)*
G04 Created by KiCad (PCBNEW 8.0.4) date 2024-08-31 16:48:19*
%MOMM*%
%LPD*%
G01*
G04 APERTURE LIST*
%TA.AperFunction,ComponentPad*%
%ADD10R,2.600000X2.600000*%
%TD*%
%TA.AperFunction,ComponentPad*%
%ADD11C,2.600000*%
%TD*%
%TA.AperFunction,ComponentPad*%
%ADD12C,2.700000*%
%TD*%
%TA.AperFunction,ComponentPad*%
%ADD13R,1.600000X1.600000*%
%TD*%
%TA.AperFunction,ComponentPad*%
%ADD14O,1.600000X1.600000*%
%TD*%
%TA.AperFunction,ComponentPad*%
%ADD15C,2.400000*%
%TD*%
%TA.AperFunction,ComponentPad*%
%ADD16O,2.400000X2.400000*%
%TD*%
%TA.AperFunction,ComponentPad*%
%ADD17R,1.050000X1.500000*%
%TD*%
%TA.AperFunction,ComponentPad*%
%ADD18O,1.050000X1.500000*%
%TD*%
%TA.AperFunction,ComponentPad*%
%ADD19C,1.400000*%
%TD*%
%TA.AperFunction,ComponentPad*%
%ADD20O,1.400000X1.400000*%
%TD*%
%TA.AperFunction,ComponentPad*%
%ADD21R,1.200000X1.200000*%
%TD*%
%TA.AperFunction,ComponentPad*%
%ADD22C,1.200000*%
%TD*%
%TA.AperFunction,ComponentPad*%
%ADD23C,1.600000*%
%TD*%
%TA.AperFunction,ComponentPad*%
%ADD24R,2.200000X2.200000*%
%TD*%
%TA.AperFunction,ComponentPad*%
%ADD25O,2.200000X2.200000*%
%TD*%
%TA.AperFunction,ComponentPad*%
%ADD26R,4.500000X2.500000*%
%TD*%
%TA.AperFunction,ComponentPad*%
%ADD27O,4.500000X2.500000*%
%TD*%
%TA.AperFunction,ComponentPad*%
%ADD28C,5.700000*%
%TD*%
%TA.AperFunction,ComponentPad*%
%ADD29R,2.400000X2.400000*%
%TD*%
%TA.AperFunction,ComponentPad*%
%ADD30R,1.500000X1.050000*%
%TD*%
%TA.AperFunction,ComponentPad*%
%ADD31O,1.500000X1.050000*%
%TD*%
%TA.AperFunction,ComponentPad*%
%ADD32C,1.308000*%
%TD*%
%TA.AperFunction,ComponentPad*%
%ADD33R,1.800000X1.710000*%
%TD*%
%TA.AperFunction,ComponentPad*%
%ADD34O,1.800000X1.710000*%
%TD*%
%TA.AperFunction,Conductor*%
%ADD35C,0.500000*%
%TD*%
%TA.AperFunction,Conductor*%
%ADD36C,0.200000*%
%TD*%
%TA.AperFunction,Conductor*%
%ADD37C,2.000000*%
%TD*%
G04 APERTURE END LIST*
D10*
%TO.P,J1,1,Pin_1*%
%TO.N,/SPEAKER*%
X229536000Y-76708000D03*
D11*
%TO.P,J1,2,Pin_2*%
%TO.N,GND*%
X224536000Y-76708000D03*
%TD*%
D12*
%TO.P,,1*%
%TO.N,B+*%
X244840000Y-43180000D03*
%TD*%
%TO.P,,1*%
%TO.N,B-*%
X244840000Y-119380000D03*
%TD*%
D13*
%TO.P,D4,1,K*%
%TO.N,Net-(D4-K)*%
X262763000Y-103886000D03*
D14*
%TO.P,D4,2,A*%
%TO.N,Net-(D4-A)*%
X262763000Y-96266000D03*
%TD*%
D15*
%TO.P,R16,1*%
%TO.N,Net-(Q10-E)*%
X243963000Y-63732000D03*
D16*
%TO.P,R16,2*%
%TO.N,Net-(Q13-E)*%
X243963000Y-78972000D03*
%TD*%
D17*
%TO.P,Q5,1,C*%
%TO.N,Net-(Q1-E)*%
X209042000Y-108866000D03*
D18*
%TO.P,Q5,2,B*%
%TO.N,Net-(D1-A)*%
X210312000Y-108866000D03*
%TO.P,Q5,3,E*%
%TO.N,Net-(Q5-E)*%
X211582000Y-108866000D03*
%TD*%
D15*
%TO.P,R15,1*%
%TO.N,CHASSIS*%
X200914000Y-124206000D03*
D16*
%TO.P,R15,2*%
%TO.N,GND*%
X200914000Y-108966000D03*
%TD*%
D19*
%TO.P,R7,1*%
%TO.N,GND*%
X206121000Y-84201000D03*
D20*
%TO.P,R7,2*%
%TO.N,Net-(C4-Pad2)*%
X206121000Y-76581000D03*
%TD*%
%TO.P,R27,2*%
%TO.N,Net-(Q12-E)*%
X223135000Y-91672000D03*
D19*
%TO.P,R27,1*%
%TO.N,Net-(Q14-B)*%
X223135000Y-99292000D03*
%TD*%
%TO.P,R24,1*%
%TO.N,Net-(Q13-B)*%
X223135000Y-66802000D03*
D20*
%TO.P,R24,2*%
%TO.N,Net-(Q10-E)*%
X223135000Y-59182000D03*
%TD*%
D17*
%TO.P,Q3,1,C*%
%TO.N,Net-(Q1-C)*%
X189992000Y-86868000D03*
D18*
%TO.P,Q3,2,B*%
%TO.N,/LTP COM*%
X191262000Y-86868000D03*
%TO.P,Q3,3,E*%
%TO.N,Net-(Q3-E)*%
X192532000Y-86868000D03*
%TD*%
D21*
%TO.P,C1,1*%
%TO.N,/INPUT*%
X189777401Y-111760000D03*
D22*
%TO.P,C1,2*%
%TO.N,Net-(C1-Pad2)*%
X191277401Y-111760000D03*
%TD*%
D19*
%TO.P,R10,1*%
%TO.N,B+*%
X216916000Y-46228000D03*
D20*
%TO.P,R10,2*%
%TO.N,Net-(Q6-E)*%
X216916000Y-53848000D03*
%TD*%
D21*
%TO.P,C4,1*%
%TO.N,Net-(Q2-B)*%
X212598000Y-79756000D03*
D22*
%TO.P,C4,2*%
%TO.N,Net-(C4-Pad2)*%
X211098000Y-79756000D03*
%TD*%
D19*
%TO.P,R8,1*%
%TO.N,Net-(Q6-B)*%
X206248000Y-59944000D03*
D20*
%TO.P,R8,2*%
%TO.N,Net-(Q1-C)*%
X206248000Y-52324000D03*
%TD*%
D23*
%TO.P,C16,1*%
%TO.N,GND*%
X219670000Y-39878000D03*
%TO.P,C16,2*%
%TO.N,B+*%
X214670000Y-39878000D03*
%TD*%
D19*
%TO.P,R19,1*%
%TO.N,Net-(Q12-E)*%
X258699000Y-116967000D03*
D20*
%TO.P,R19,2*%
%TO.N,Net-(Q11-E)*%
X258699000Y-109347000D03*
%TD*%
D17*
%TO.P,Q2,1,C*%
%TO.N,/LTP COM*%
X195834000Y-91948000D03*
D18*
%TO.P,Q2,2,B*%
%TO.N,Net-(Q2-B)*%
X197104000Y-91948000D03*
%TO.P,Q2,3,E*%
%TO.N,Net-(Q1-E)*%
X198374000Y-91948000D03*
%TD*%
D24*
%TO.P,D6,1,K*%
%TO.N,Net-(D6-K)*%
X239264000Y-56874000D03*
D25*
%TO.P,D6,2,A*%
%TO.N,Net-(D6-A)*%
X249424000Y-56874000D03*
%TD*%
D19*
%TO.P,R9,1*%
%TO.N,Net-(Q2-B)*%
X217424000Y-76581000D03*
D20*
%TO.P,R9,2*%
%TO.N,Net-(Q13-E)*%
X217424000Y-84201000D03*
%TD*%
D26*
%TO.P,Q10,1,B*%
%TO.N,Net-(Q10-B)*%
X267340000Y-42649500D03*
D27*
%TO.P,Q10,2,C*%
%TO.N,B+*%
X267340000Y-48099500D03*
%TO.P,Q10,3,E*%
%TO.N,Net-(Q10-E)*%
X267340000Y-53549500D03*
%TD*%
D13*
%TO.P,D1,1,K*%
%TO.N,Net-(D1-K)*%
X211328000Y-124206000D03*
D14*
%TO.P,D1,2,A*%
%TO.N,Net-(D1-A)*%
X211328000Y-116586000D03*
%TD*%
D23*
%TO.P,C11,1*%
%TO.N,Net-(D6-K)*%
X209927000Y-73217000D03*
%TO.P,C11,2*%
%TO.N,Net-(Q13-B)*%
X209927000Y-68217000D03*
%TD*%
D19*
%TO.P,R6,1*%
%TO.N,Net-(D1-A)*%
X205994000Y-112676000D03*
D20*
%TO.P,R6,2*%
%TO.N,GND*%
X205994000Y-105056000D03*
%TD*%
D28*
%TO.P,,1*%
%TO.N,CHASSIS*%
X188500000Y-129500000D03*
%TD*%
D19*
%TO.P,R12,1*%
%TO.N,Net-(R12-Pad1)*%
X255905000Y-85471000D03*
D20*
%TO.P,R12,2*%
%TO.N,Net-(D3-K)*%
X255905000Y-93091000D03*
%TD*%
D19*
%TO.P,R13,1*%
%TO.N,Net-(D4-A)*%
X249555000Y-93091000D03*
D20*
%TO.P,R13,2*%
%TO.N,GND*%
X249555000Y-85471000D03*
%TD*%
D19*
%TO.P,R25,1*%
%TO.N,Net-(Q13-B)*%
X229108000Y-66802000D03*
D20*
%TO.P,R25,2*%
%TO.N,Net-(Q13-E)*%
X229108000Y-59182000D03*
%TD*%
D29*
%TO.P,J3,1,Pin_1*%
%TO.N,GND*%
X190500000Y-100132000D03*
D15*
%TO.P,J3,2,Pin_2*%
%TO.N,/INPUT*%
X190500000Y-103632000D03*
%TD*%
D19*
%TO.P,R14,1*%
%TO.N,Net-(Q8-E)*%
X261366000Y-85471000D03*
D20*
%TO.P,R14,2*%
%TO.N,B-*%
X261366000Y-93091000D03*
%TD*%
D19*
%TO.P,R4,1*%
%TO.N,B+*%
X198374000Y-70358000D03*
D20*
%TO.P,R4,2*%
%TO.N,Net-(Q4-E)*%
X198374000Y-77978000D03*
%TD*%
D23*
%TO.P,C12,1*%
%TO.N,Net-(D3-A)*%
X209927000Y-93537000D03*
%TO.P,C12,2*%
%TO.N,Net-(Q14-B)*%
X209927000Y-88537000D03*
%TD*%
%TO.P,C5,1*%
%TO.N,Net-(Q6-B)*%
X209800000Y-63184000D03*
%TO.P,C5,2*%
%TO.N,Net-(D6-A)*%
X209800000Y-58184000D03*
%TD*%
D15*
%TO.P,R20,1*%
%TO.N,Net-(C3-Pad2)*%
X235962000Y-83798000D03*
D16*
%TO.P,R20,2*%
%TO.N,GND*%
X235962000Y-99038000D03*
%TD*%
D26*
%TO.P,Q12,1,B*%
%TO.N,Net-(Q11-E)*%
X267340000Y-109959500D03*
D27*
%TO.P,Q12,2,C*%
%TO.N,B-*%
X267340000Y-115409500D03*
%TO.P,Q12,3,E*%
%TO.N,Net-(Q12-E)*%
X267340000Y-120859500D03*
%TD*%
D29*
%TO.P,C13,1*%
%TO.N,GND*%
X228088000Y-111357000D03*
D15*
%TO.P,C13,2*%
%TO.N,B-*%
X228088000Y-118857000D03*
%TD*%
D17*
%TO.P,Q1,1,C*%
%TO.N,Net-(Q1-C)*%
X189987000Y-91948000D03*
D18*
%TO.P,Q1,2,B*%
%TO.N,Net-(Q1-B)*%
X191257000Y-91948000D03*
%TO.P,Q1,3,E*%
%TO.N,Net-(Q1-E)*%
X192527000Y-91948000D03*
%TD*%
D23*
%TO.P,C15,1*%
%TO.N,B-*%
X215940000Y-103378000D03*
%TO.P,C15,2*%
%TO.N,GND*%
X220940000Y-103378000D03*
%TD*%
D30*
%TO.P,Q14,1,C*%
%TO.N,Net-(D3-A)*%
X217039000Y-91926000D03*
D31*
%TO.P,Q14,2,B*%
%TO.N,Net-(Q14-B)*%
X217039000Y-90656000D03*
%TO.P,Q14,3,E*%
%TO.N,Net-(Q13-E)*%
X217039000Y-89386000D03*
%TD*%
D13*
%TO.P,D2,1,K*%
%TO.N,B-*%
X206248000Y-124206000D03*
D14*
%TO.P,D2,2,A*%
%TO.N,Net-(D1-K)*%
X206248000Y-116586000D03*
%TD*%
D23*
%TO.P,C2,1*%
%TO.N,Net-(Q1-B)*%
X206288000Y-100838000D03*
%TO.P,C2,2*%
%TO.N,GND*%
X211288000Y-100838000D03*
%TD*%
D29*
%TO.P,C14,1*%
%TO.N,B+*%
X228723000Y-44167000D03*
D15*
%TO.P,C14,2*%
%TO.N,GND*%
X228723000Y-51667000D03*
%TD*%
D32*
%TO.P,RV1,1,1*%
%TO.N,Net-(Q7-B)*%
X252476000Y-72592000D03*
%TO.P,RV1,2,2*%
X252476000Y-75132000D03*
%TO.P,RV1,3,3*%
%TO.N,Net-(R12-Pad1)*%
X252476000Y-77672000D03*
%TD*%
D19*
%TO.P,R2,1*%
%TO.N,Net-(Q1-B)*%
X203200000Y-104802000D03*
D20*
%TO.P,R2,2*%
%TO.N,GND*%
X195580000Y-104802000D03*
%TD*%
D33*
%TO.P,Q11,1,E*%
%TO.N,Net-(Q11-E)*%
X267590000Y-96075500D03*
D34*
%TO.P,Q11,2,C*%
%TO.N,B-*%
X267590000Y-98355500D03*
%TO.P,Q11,3,B*%
%TO.N,Net-(D3-K)*%
X267590000Y-100635500D03*
%TD*%
D20*
%TO.P,R26,2*%
%TO.N,Net-(Q14-B)*%
X229104000Y-99419000D03*
D19*
%TO.P,R26,1*%
%TO.N,Net-(Q13-E)*%
X229104000Y-91799000D03*
%TD*%
D15*
%TO.P,R17,1*%
%TO.N,Net-(Q13-E)*%
X243963000Y-83798000D03*
D16*
%TO.P,R17,2*%
%TO.N,Net-(Q12-E)*%
X243963000Y-99038000D03*
%TD*%
D13*
%TO.P,D5,1,K*%
%TO.N,B-*%
X258064000Y-96266000D03*
D14*
%TO.P,D5,2,A*%
%TO.N,Net-(D4-K)*%
X258064000Y-103886000D03*
%TD*%
D33*
%TO.P,Q7,1,E*%
%TO.N,Net-(D3-K)*%
X267590000Y-73947500D03*
D34*
%TO.P,Q7,2,C*%
%TO.N,Net-(D6-A)*%
X267590000Y-76227500D03*
%TO.P,Q7,3,B*%
%TO.N,Net-(Q7-B)*%
X267590000Y-78507500D03*
%TD*%
D19*
%TO.P,R11,1*%
%TO.N,Net-(D6-A)*%
X259080000Y-71120000D03*
D20*
%TO.P,R11,2*%
%TO.N,Net-(Q7-B)*%
X259080000Y-78740000D03*
%TD*%
D33*
%TO.P,Q8,1,E*%
%TO.N,Net-(Q8-E)*%
X267590000Y-85011500D03*
D34*
%TO.P,Q8,2,C*%
%TO.N,Net-(D3-K)*%
X267590000Y-87291500D03*
%TO.P,Q8,3,B*%
%TO.N,Net-(D4-A)*%
X267590000Y-89571500D03*
%TD*%
D19*
%TO.P,R3,1*%
%TO.N,B+*%
X192532000Y-70358000D03*
D20*
%TO.P,R3,2*%
%TO.N,Net-(Q3-E)*%
X192532000Y-77978000D03*
%TD*%
D19*
%TO.P,R18,1*%
%TO.N,Net-(Q10-B)*%
X258064000Y-42926000D03*
D20*
%TO.P,R18,2*%
%TO.N,Net-(Q10-E)*%
X258064000Y-50546000D03*
%TD*%
D33*
%TO.P,Q6,1,E*%
%TO.N,Net-(Q6-E)*%
X216404000Y-58017000D03*
D34*
%TO.P,Q6,2,C*%
%TO.N,Net-(D6-A)*%
X216404000Y-60297000D03*
%TO.P,Q6,3,B*%
%TO.N,Net-(Q6-B)*%
X216404000Y-62577000D03*
%TD*%
D23*
%TO.P,C3,2*%
%TO.N,Net-(C3-Pad2)*%
X230338000Y-86360000D03*
%TO.P,C3,1*%
%TO.N,Net-(Q13-E)*%
X225338000Y-86360000D03*
%TD*%
D19*
%TO.P,R5,1*%
%TO.N,Net-(Q5-E)*%
X216154000Y-116486000D03*
D20*
%TO.P,R5,2*%
%TO.N,B-*%
X216154000Y-124106000D03*
%TD*%
D15*
%TO.P,R21,1*%
%TO.N,Net-(Q13-E)*%
X236089000Y-63732000D03*
D16*
%TO.P,R21,2*%
%TO.N,/SPEAKER*%
X236089000Y-78972000D03*
%TD*%
D19*
%TO.P,R1,1*%
%TO.N,Net-(C1-Pad2)*%
X195580000Y-100076000D03*
D20*
%TO.P,R1,2*%
%TO.N,Net-(Q1-B)*%
X203200000Y-100076000D03*
%TD*%
D33*
%TO.P,Q9,1,E*%
%TO.N,Net-(Q10-B)*%
X267590000Y-62883500D03*
D34*
%TO.P,Q9,2,C*%
%TO.N,B+*%
X267590000Y-65163500D03*
%TO.P,Q9,3,B*%
%TO.N,Net-(D6-A)*%
X267590000Y-67443500D03*
%TD*%
D24*
%TO.P,D3,1,K*%
%TO.N,Net-(D3-K)*%
X249424000Y-106658000D03*
D25*
%TO.P,D3,2,A*%
%TO.N,Net-(D3-A)*%
X239264000Y-106658000D03*
%TD*%
D30*
%TO.P,Q13,1,C*%
%TO.N,Net-(D6-K)*%
X217039000Y-72241000D03*
D31*
%TO.P,Q13,2,B*%
%TO.N,Net-(Q13-B)*%
X217039000Y-70971000D03*
%TO.P,Q13,3,E*%
%TO.N,Net-(Q13-E)*%
X217039000Y-69701000D03*
%TD*%
D17*
%TO.P,Q4,1,C*%
%TO.N,/LTP COM*%
X195834000Y-86868000D03*
D18*
%TO.P,Q4,2,B*%
X197104000Y-86868000D03*
%TO.P,Q4,3,E*%
%TO.N,Net-(Q4-E)*%
X198374000Y-86868000D03*
%TD*%
D35*
%TO.N,Net-(Q2-B)*%
X197104000Y-89916000D02*
X197104000Y-90448000D01*
X202847189Y-89916000D02*
X197104000Y-89916000D01*
X212598000Y-80165189D02*
X202847189Y-89916000D01*
X212598000Y-79756000D02*
X212598000Y-80165189D01*
%TO.N,Net-(Q1-E)*%
X205740000Y-94234000D02*
X198115000Y-94234000D01*
X209037000Y-97531000D02*
X205740000Y-94234000D01*
X209037000Y-108866000D02*
X209037000Y-97531000D01*
D36*
%TO.N,Net-(Q2-B)*%
X197104000Y-90448000D02*
X197104000Y-91948000D01*
D35*
%TO.N,Net-(Q1-B)*%
X191333200Y-94406800D02*
X191333200Y-93141800D01*
X195224400Y-98298000D02*
X191333200Y-94406800D01*
X201930000Y-98298000D02*
X195224400Y-98298000D01*
%TO.N,Net-(Q1-E)*%
X198115000Y-94234000D02*
X194813000Y-94234000D01*
%TO.N,Net-(Q4-E)*%
X198379000Y-77983000D02*
X198379000Y-86868000D01*
X198374000Y-77978000D02*
X198379000Y-77983000D01*
%TO.N,Net-(Q3-E)*%
X192537000Y-77983000D02*
X192537000Y-86868000D01*
X192532000Y-77978000D02*
X192537000Y-77983000D01*
%TO.N,Net-(Q1-C)*%
X189987000Y-66553000D02*
X189987000Y-93218000D01*
X189728000Y-91694000D02*
X189982000Y-91948000D01*
X204216000Y-52324000D02*
X189987000Y-66553000D01*
X206248000Y-52324000D02*
X204216000Y-52324000D01*
X189982000Y-91948000D02*
X189982000Y-90175000D01*
X189982000Y-90175000D02*
X189987000Y-90170000D01*
D36*
%TO.N,Net-(Q1-E)*%
X198115000Y-91948000D02*
X198115000Y-94234000D01*
D35*
%TO.N,Net-(Q13-B)*%
X223135000Y-67161000D02*
X223135000Y-67040000D01*
X217928000Y-70844000D02*
X219452000Y-70844000D01*
X219452000Y-70844000D02*
X223135000Y-67161000D01*
%TO.N,Net-(Q13-E)*%
X229910000Y-81788000D02*
X225338000Y-86360000D01*
X241147000Y-81788000D02*
X229910000Y-81788000D01*
X241147000Y-81788000D02*
X243963000Y-78972000D01*
D37*
%TO.N,/SPEAKER*%
X234028000Y-76911000D02*
X236089000Y-78972000D01*
X229576000Y-76911000D02*
X234028000Y-76911000D01*
D36*
%TO.N,Net-(Q14-B)*%
X218539000Y-90656000D02*
X217039000Y-90656000D01*
D35*
X219180000Y-90656000D02*
X218539000Y-90656000D01*
X223135000Y-94611000D02*
X219180000Y-90656000D01*
X223135000Y-99292000D02*
X223135000Y-94611000D01*
%TO.N,Net-(D6-A)*%
X223520000Y-60960000D02*
X218377000Y-60960000D01*
X226748000Y-57732000D02*
X223520000Y-60960000D01*
X233500000Y-57732000D02*
X226748000Y-57732000D01*
X237550000Y-61782000D02*
X233500000Y-57732000D01*
X218377000Y-60960000D02*
X217714000Y-60297000D01*
X239255284Y-61782000D02*
X237550000Y-61782000D01*
X239358642Y-61885358D02*
X239255284Y-61782000D01*
X217714000Y-60297000D02*
X216404000Y-60297000D01*
%TO.N,Net-(Q13-E)*%
X231539000Y-59182000D02*
X236089000Y-63732000D01*
X229108000Y-59182000D02*
X231539000Y-59182000D01*
%TO.N,Net-(Q10-E)*%
X234188000Y-55880000D02*
X238103000Y-59795000D01*
X226437000Y-55880000D02*
X234188000Y-55880000D01*
X238103000Y-59795000D02*
X240026000Y-59795000D01*
X240026000Y-59795000D02*
X243963000Y-63732000D01*
X223135000Y-59182000D02*
X226437000Y-55880000D01*
%TO.N,Net-(D6-A)*%
X239358642Y-61885358D02*
X244939283Y-67466000D01*
X239255283Y-61782000D02*
X239358642Y-61885358D01*
%TO.N,Net-(Q13-B)*%
X223135000Y-66802000D02*
X229108000Y-66802000D01*
%TO.N,Net-(D6-K)*%
X211582000Y-50546000D02*
X202692000Y-59436000D01*
X221742000Y-50546000D02*
X211582000Y-50546000D01*
X202692000Y-59436000D02*
X202692000Y-65982000D01*
X202692000Y-65982000D02*
X209927000Y-73217000D01*
X225552000Y-54356000D02*
X221742000Y-50546000D01*
X239264000Y-56874000D02*
X236746000Y-54356000D01*
X236746000Y-54356000D02*
X225552000Y-54356000D01*
%TO.N,Net-(Q14-B)*%
X223262000Y-99419000D02*
X223135000Y-99292000D01*
X229104000Y-99419000D02*
X223262000Y-99419000D01*
%TO.N,Net-(Q12-E)*%
X232040000Y-97088000D02*
X242013000Y-97088000D01*
X226624000Y-91672000D02*
X232040000Y-97088000D01*
X223135000Y-91672000D02*
X226624000Y-91672000D01*
X242013000Y-97088000D02*
X243963000Y-99038000D01*
%TO.N,Net-(C3-Pad2)*%
X232900000Y-83798000D02*
X230338000Y-86360000D01*
X235962000Y-83798000D02*
X232900000Y-83798000D01*
%TO.N,Net-(Q13-E)*%
X225338000Y-88033000D02*
X229104000Y-91799000D01*
X225338000Y-86360000D02*
X225338000Y-88033000D01*
X221480000Y-86360000D02*
X225338000Y-86360000D01*
X220770000Y-85650000D02*
X221480000Y-86360000D01*
%TO.N,Net-(D3-A)*%
X223770000Y-101600000D02*
X218204000Y-101600000D01*
X226310000Y-104140000D02*
X223770000Y-101600000D01*
X218204000Y-101600000D02*
X214372000Y-97768000D01*
X232682000Y-104140000D02*
X226310000Y-104140000D01*
X235200000Y-106658000D02*
X232682000Y-104140000D01*
X239264000Y-106658000D02*
X235200000Y-106658000D01*
D36*
%TO.N,Net-(D1-A)*%
X210312000Y-108866000D02*
X210312000Y-110366000D01*
D35*
X211328000Y-116586000D02*
X208534000Y-113792000D01*
X208534000Y-112676000D02*
X205994000Y-112676000D01*
X208534000Y-113792000D02*
X208534000Y-112676000D01*
X210312000Y-110898000D02*
X208534000Y-112676000D01*
X210312000Y-110366000D02*
X210312000Y-110898000D01*
%TO.N,Net-(D1-K)*%
X206248000Y-116586000D02*
X206248000Y-119126000D01*
X206248000Y-119126000D02*
X211328000Y-124206000D01*
%TO.N,Net-(D3-A)*%
X214372000Y-97768000D02*
X214372000Y-94593000D01*
X217034000Y-91931000D02*
X217039000Y-91931000D01*
X214158000Y-97768000D02*
X209927000Y-93537000D01*
X214372000Y-97768000D02*
X214158000Y-97768000D01*
X214372000Y-94593000D02*
X217034000Y-91931000D01*
%TO.N,Net-(D3-K)*%
X265685000Y-100040500D02*
X266280000Y-100635500D01*
X255424000Y-100658000D02*
X264722000Y-100658000D01*
X266280000Y-100635500D02*
X267590000Y-100635500D01*
X269241000Y-75553500D02*
X267635000Y-73947500D01*
X255905000Y-100177000D02*
X255257000Y-100825000D01*
X267590000Y-87291500D02*
X268900000Y-87291500D01*
X269240000Y-86442500D02*
X269240000Y-84030500D01*
X264722000Y-100658000D02*
X265685000Y-99695000D01*
X269241000Y-84029500D02*
X269241000Y-75553500D01*
X267635000Y-73947500D02*
X267590000Y-73947500D01*
X269240000Y-87631500D02*
X269240000Y-91170500D01*
X255905000Y-93091000D02*
X255905000Y-100177000D01*
X249424000Y-106658000D02*
X255257000Y-100825000D01*
X267590000Y-87291500D02*
X268391000Y-87291500D01*
X269240000Y-84030500D02*
X269241000Y-84029500D01*
X265685000Y-99695000D02*
X265685000Y-100040500D01*
X268900000Y-87291500D02*
X269240000Y-87631500D01*
X269240000Y-91170500D02*
X265685000Y-94725500D01*
X265685000Y-94725500D02*
X265685000Y-99695000D01*
X268391000Y-87291500D02*
X269240000Y-86442500D01*
X255257000Y-100825000D02*
X255424000Y-100658000D01*
%TO.N,Net-(D4-K)*%
X262763000Y-103886000D02*
X258064000Y-103886000D01*
%TO.N,Net-(D4-A)*%
X262763000Y-94398500D02*
X267590000Y-89571500D01*
X249555000Y-93091000D02*
X253238000Y-89408000D01*
X267426500Y-89408000D02*
X267590000Y-89571500D01*
X253238000Y-89408000D02*
X267426500Y-89408000D01*
X262763000Y-96901000D02*
X262763000Y-94398500D01*
%TO.N,Net-(Q1-B)*%
X206288000Y-100838000D02*
X203748000Y-98298000D01*
D36*
X191257000Y-91948000D02*
X191257000Y-93065600D01*
X191257000Y-93065600D02*
X191333200Y-93141800D01*
D35*
X203748000Y-98298000D02*
X201930000Y-98298000D01*
X201930000Y-98806000D02*
X201930000Y-98298000D01*
X203200000Y-104548000D02*
X203200000Y-100076000D01*
X203200000Y-100076000D02*
X201930000Y-98806000D01*
D36*
%TO.N,Net-(Q1-C)*%
X189987000Y-90170000D02*
X189987000Y-91948000D01*
%TO.N,Net-(Q1-E)*%
X192527000Y-91948000D02*
X193289000Y-92710000D01*
D35*
X192532000Y-91953000D02*
X192532000Y-91948000D01*
X193289000Y-92710000D02*
X192532000Y-91953000D01*
%TO.N,Net-(Q2-B)*%
X217424000Y-76581000D02*
X215773000Y-76581000D01*
X215773000Y-76581000D02*
X212598000Y-79756000D01*
%TO.N,Net-(Q5-E)*%
X216154000Y-116486000D02*
X211587000Y-111919000D01*
X211587000Y-111919000D02*
X211587000Y-108866000D01*
%TO.N,Net-(Q6-E)*%
X216404000Y-54360000D02*
X216916000Y-53848000D01*
X216404000Y-58017000D02*
X216404000Y-54360000D01*
%TO.N,Net-(Q6-B)*%
X215797000Y-63184000D02*
X216404000Y-62577000D01*
X206248000Y-59944000D02*
X206560000Y-59944000D01*
X209800000Y-63184000D02*
X215797000Y-63184000D01*
X206560000Y-59944000D02*
X209800000Y-63184000D01*
%TO.N,Net-(Q7-B)*%
X252476000Y-72592000D02*
X252476000Y-75132000D01*
X259080000Y-78740000D02*
X255472000Y-75132000D01*
X267357500Y-78740000D02*
X267590000Y-78507500D01*
X259080000Y-78740000D02*
X267357500Y-78740000D01*
X255472000Y-75132000D02*
X252476000Y-75132000D01*
%TO.N,Net-(Q10-E)*%
X261747000Y-54184500D02*
X261112000Y-53549500D01*
D37*
X261112000Y-53549500D02*
X267340000Y-53549500D01*
X255524000Y-53572000D02*
X255546500Y-53549500D01*
X243963000Y-63732000D02*
X243963000Y-58398000D01*
X255546500Y-53549500D02*
X261112000Y-53549500D01*
X267317500Y-53572000D02*
X267340000Y-53549500D01*
X243963000Y-58398000D02*
X248789000Y-53572000D01*
X248789000Y-53572000D02*
X267317500Y-53572000D01*
D35*
X258064000Y-50546000D02*
X261067500Y-53549500D01*
X261067500Y-53549500D02*
X267340000Y-53549500D01*
%TO.N,Net-(Q10-B)*%
X258340500Y-42649500D02*
X258064000Y-42926000D01*
X270340000Y-45649500D02*
X267340000Y-42649500D01*
X267340000Y-42649500D02*
X258340500Y-42649500D01*
X267590000Y-62883500D02*
X270340000Y-60133500D01*
X270340000Y-60133500D02*
X270340000Y-45649500D01*
%TO.N,Net-(Q8-E)*%
X261620000Y-85471000D02*
X262079500Y-85011500D01*
X261366000Y-85471000D02*
X261620000Y-85471000D01*
X262079500Y-85011500D02*
X267590000Y-85011500D01*
%TO.N,Net-(Q11-E)*%
X269240000Y-97680500D02*
X269240000Y-108059500D01*
X259969000Y-108204000D02*
X265584500Y-108204000D01*
X269240000Y-108059500D02*
X267340000Y-109959500D01*
X267635000Y-96075500D02*
X269240000Y-97680500D01*
X259842000Y-108204000D02*
X258699000Y-109347000D01*
X265584500Y-108204000D02*
X267340000Y-109959500D01*
X267590000Y-96075500D02*
X267635000Y-96075500D01*
X259969000Y-108204000D02*
X259842000Y-108204000D01*
D37*
%TO.N,Net-(Q12-E)*%
X243963000Y-99038000D02*
X243963000Y-108432000D01*
D35*
X258699000Y-118596000D02*
X258699000Y-116967000D01*
D37*
X256435500Y-120859500D02*
X267340000Y-120859500D01*
D35*
X256435500Y-120859500D02*
X258699000Y-118596000D01*
D37*
X243963000Y-108432000D02*
X256413000Y-120882000D01*
X256413000Y-120882000D02*
X256435500Y-120859500D01*
D35*
%TO.N,Net-(C1-Pad2)*%
X191277401Y-111760000D02*
X191312800Y-111724601D01*
X191312800Y-111724601D02*
X191312800Y-107137200D01*
X193548000Y-100738000D02*
X194210000Y-100076000D01*
X191312800Y-107137200D02*
X193548000Y-104902000D01*
X194210000Y-100076000D02*
X195580000Y-100076000D01*
X193548000Y-104902000D02*
X193548000Y-100738000D01*
%TO.N,Net-(C4-Pad2)*%
X211098000Y-79756000D02*
X211098000Y-77945000D01*
X206121000Y-76581000D02*
X209734000Y-76581000D01*
X211098000Y-77945000D02*
X209734000Y-76581000D01*
%TO.N,/INPUT*%
X189812800Y-111724601D02*
X189777401Y-111760000D01*
X189812800Y-104319200D02*
X189812800Y-111724601D01*
X190500000Y-103632000D02*
X189812800Y-104319200D01*
%TO.N,GND*%
X219670000Y-42614000D02*
X228723000Y-51667000D01*
X219670000Y-39878000D02*
X219670000Y-42614000D01*
%TO.N,B-*%
X215940000Y-103378000D02*
X215940000Y-106709000D01*
X215940000Y-106709000D02*
X228088000Y-118857000D01*
%TO.N,Net-(D6-A)*%
X249424000Y-63914000D02*
X249424000Y-56874000D01*
X244939283Y-67466000D02*
X245872000Y-67466000D01*
X260096000Y-70104000D02*
X264414000Y-70104000D01*
X264414000Y-70104000D02*
X265682250Y-68835750D01*
X211913000Y-60297000D02*
X216404000Y-60297000D01*
X259080000Y-71120000D02*
X260096000Y-70104000D01*
X244939283Y-67466000D02*
X264312500Y-67466000D01*
X265940000Y-69093500D02*
X265940000Y-75775500D01*
X265940000Y-75775500D02*
X266392000Y-76227500D01*
X245872000Y-67466000D02*
X249424000Y-63914000D01*
X267590000Y-67443500D02*
X265940000Y-69093500D01*
X209800000Y-58184000D02*
X211913000Y-60297000D01*
X264312500Y-67466000D02*
X265940000Y-69093500D01*
X266392000Y-76227500D02*
X267590000Y-76227500D01*
%TO.N,Net-(D6-K)*%
X209673000Y-73217000D02*
X216068000Y-73217000D01*
%TO.N,Net-(Q13-E)*%
X217424000Y-84201000D02*
X219321000Y-84201000D01*
D37*
X243963000Y-78972000D02*
X243963000Y-84052000D01*
X243963000Y-78972000D02*
X243963000Y-71606000D01*
X243836000Y-83925000D02*
X243963000Y-83798000D01*
X243963000Y-71606000D02*
X236089000Y-63732000D01*
D35*
X220770000Y-85650000D02*
X217039000Y-89381000D01*
X219321000Y-84201000D02*
X220770000Y-85650000D01*
%TO.N,Net-(Q13-B)*%
X215539000Y-70966000D02*
X216275878Y-70966000D01*
X215539000Y-70971000D02*
X215539000Y-70966000D01*
X214880000Y-70971000D02*
X215539000Y-70971000D01*
X209673000Y-68217000D02*
X212126000Y-68217000D01*
X212126000Y-68217000D02*
X214880000Y-70971000D01*
%TO.N,Net-(Q14-B)*%
X213650000Y-88537000D02*
X215539000Y-90426000D01*
X215539000Y-90553000D02*
X215637000Y-90651000D01*
X209927000Y-88537000D02*
X213650000Y-88537000D01*
X215539000Y-90426000D02*
X215539000Y-90553000D01*
X215637000Y-90651000D02*
X216275878Y-90651000D01*
%TO.N,Net-(R12-Pad1)*%
X252476000Y-82042000D02*
X255905000Y-85471000D01*
X252476000Y-77672000D02*
X252476000Y-82042000D01*
D37*
%TO.N,CHASSIS*%
X200914000Y-124206000D02*
X200814000Y-124106000D01*
X200814000Y-124106000D02*
X193894000Y-124106000D01*
X193894000Y-124106000D02*
X188500000Y-129500000D01*
D35*
%TO.N,Net-(Q13-E)*%
X222219000Y-64516000D02*
X217039000Y-69696000D01*
X235305000Y-64516000D02*
X222219000Y-64516000D01*
X236089000Y-63732000D02*
X235305000Y-64516000D01*
%TO.N,Net-(D6-K)*%
X216068000Y-73217000D02*
X217039000Y-72246000D01*
%TO.N,Net-(Q1-E)*%
X193289000Y-92710000D02*
X194813000Y-94234000D01*
%TD*%
%TA.AperFunction,Conductor*%
%TO.N,/LTP COM*%
G36*
X197571539Y-83331685D02*
G01*
X197617294Y-83384489D01*
X197628500Y-83436000D01*
X197628500Y-85886861D01*
X197608815Y-85953900D01*
X197592181Y-85974542D01*
X197577444Y-85989278D01*
X197577441Y-85989282D01*
X197487264Y-86124242D01*
X197433652Y-86169047D01*
X197364327Y-86177754D01*
X197322162Y-86162738D01*
X197306645Y-86153779D01*
X197306646Y-86153779D01*
X197173115Y-86118000D01*
X197034885Y-86118000D01*
X196901356Y-86153779D01*
X196781643Y-86222896D01*
X196781640Y-86222898D01*
X196683898Y-86320640D01*
X196683896Y-86320643D01*
X196614779Y-86440356D01*
X196602775Y-86485155D01*
X196566409Y-86544815D01*
X196503562Y-86575344D01*
X196434187Y-86567049D01*
X196380309Y-86522563D01*
X196359035Y-86456011D01*
X196359000Y-86453061D01*
X196359000Y-86118000D01*
X195309000Y-86118000D01*
X195309000Y-87618000D01*
X196359000Y-87618000D01*
X196359000Y-87282938D01*
X196378685Y-87215899D01*
X196431489Y-87170144D01*
X196500647Y-87160200D01*
X196564203Y-87189225D01*
X196601977Y-87248003D01*
X196602775Y-87250844D01*
X196614779Y-87295643D01*
X196683896Y-87415356D01*
X196683898Y-87415359D01*
X196781640Y-87513101D01*
X196781643Y-87513103D01*
X196901356Y-87582220D01*
X197034885Y-87618000D01*
X197173115Y-87618000D01*
X197306643Y-87582220D01*
X197322158Y-87573263D01*
X197390057Y-87556788D01*
X197456085Y-87579638D01*
X197487264Y-87611757D01*
X197577441Y-87746718D01*
X197720281Y-87889558D01*
X197888237Y-88001782D01*
X197888241Y-88001784D01*
X197888244Y-88001786D01*
X198074873Y-88079091D01*
X198272992Y-88118499D01*
X198272996Y-88118500D01*
X198272997Y-88118500D01*
X198475004Y-88118500D01*
X198475005Y-88118499D01*
X198673127Y-88079091D01*
X198859756Y-88001786D01*
X199027718Y-87889558D01*
X199170558Y-87746718D01*
X199282786Y-87578756D01*
X199360091Y-87392127D01*
X199399500Y-87194003D01*
X199399500Y-86541997D01*
X199360091Y-86343873D01*
X199282786Y-86157244D01*
X199282784Y-86157241D01*
X199282782Y-86157237D01*
X199170558Y-85989281D01*
X199165819Y-85984542D01*
X199132334Y-85923219D01*
X199129500Y-85896861D01*
X199129500Y-83436000D01*
X199149185Y-83368961D01*
X199201989Y-83323206D01*
X199253500Y-83312000D01*
X200536000Y-83312000D01*
X200603039Y-83331685D01*
X200648794Y-83384489D01*
X200660000Y-83436000D01*
X200660000Y-89041500D01*
X200640315Y-89108539D01*
X200587511Y-89154294D01*
X200536000Y-89165500D01*
X197030080Y-89165500D01*
X196885092Y-89194340D01*
X196885082Y-89194343D01*
X196748511Y-89250912D01*
X196748498Y-89250919D01*
X196625584Y-89333048D01*
X196625580Y-89333051D01*
X196521051Y-89437580D01*
X196521048Y-89437584D01*
X196438919Y-89560498D01*
X196438912Y-89560511D01*
X196382343Y-89697082D01*
X196382340Y-89697092D01*
X196353500Y-89842079D01*
X196353500Y-89842082D01*
X196353500Y-90521918D01*
X196353500Y-90521920D01*
X196353499Y-90521920D01*
X196382340Y-90666907D01*
X196382343Y-90666917D01*
X196438912Y-90803488D01*
X196441789Y-90808870D01*
X196439529Y-90810077D01*
X196457055Y-90866115D01*
X196438548Y-90933489D01*
X196420755Y-90955968D01*
X196307444Y-91069278D01*
X196307443Y-91069279D01*
X196293253Y-91090517D01*
X196258257Y-91142891D01*
X196204648Y-91187695D01*
X196155157Y-91198000D01*
X195309000Y-91198000D01*
X195309000Y-92698000D01*
X196155157Y-92698000D01*
X196222196Y-92717685D01*
X196258257Y-92753107D01*
X196293253Y-92805483D01*
X196307443Y-92826720D01*
X196450281Y-92969558D01*
X196618237Y-93081782D01*
X196618241Y-93081784D01*
X196618244Y-93081786D01*
X196804873Y-93159091D01*
X196929487Y-93183878D01*
X197002992Y-93198499D01*
X197002996Y-93198500D01*
X197002997Y-93198500D01*
X197205004Y-93198500D01*
X197205004Y-93198499D01*
X197366310Y-93166414D01*
X197435900Y-93172641D01*
X197491077Y-93215504D01*
X197514322Y-93281393D01*
X197514500Y-93288031D01*
X197514500Y-93359500D01*
X197494815Y-93426539D01*
X197442011Y-93472294D01*
X197390500Y-93483500D01*
X195175229Y-93483500D01*
X195108190Y-93463815D01*
X195087548Y-93447181D01*
X193763096Y-92122727D01*
X193763075Y-92122707D01*
X193588819Y-91948451D01*
X193555334Y-91887128D01*
X193552500Y-91860770D01*
X193552500Y-91621996D01*
X193552499Y-91621992D01*
X193513092Y-91423880D01*
X193513091Y-91423873D01*
X193435786Y-91237244D01*
X193435784Y-91237241D01*
X193435782Y-91237237D01*
X193323558Y-91069281D01*
X193180718Y-90926441D01*
X193012762Y-90814217D01*
X193012752Y-90814212D01*
X192826127Y-90736909D01*
X192826119Y-90736907D01*
X192628007Y-90697500D01*
X192628003Y-90697500D01*
X192425997Y-90697500D01*
X192425992Y-90697500D01*
X192227880Y-90736907D01*
X192227872Y-90736909D01*
X192041244Y-90814213D01*
X191960891Y-90867904D01*
X191894213Y-90888782D01*
X191826833Y-90870297D01*
X191823109Y-90867904D01*
X191742755Y-90814213D01*
X191556127Y-90736909D01*
X191556119Y-90736907D01*
X191358007Y-90697500D01*
X191358003Y-90697500D01*
X191155997Y-90697500D01*
X191155992Y-90697500D01*
X190957880Y-90736907D01*
X190957868Y-90736910D01*
X190908952Y-90757172D01*
X190839482Y-90764641D01*
X190777003Y-90733365D01*
X190741352Y-90673276D01*
X190737500Y-90642611D01*
X190737500Y-88140208D01*
X190757185Y-88073169D01*
X190787187Y-88040942D01*
X190874546Y-87975546D01*
X190960796Y-87860331D01*
X191011091Y-87725483D01*
X191011931Y-87717668D01*
X191038666Y-87653120D01*
X191096058Y-87613270D01*
X191165883Y-87610774D01*
X191167315Y-87611149D01*
X191192880Y-87617999D01*
X191192884Y-87618000D01*
X191331115Y-87618000D01*
X191464643Y-87582220D01*
X191480158Y-87573263D01*
X191548057Y-87556788D01*
X191614085Y-87579638D01*
X191645264Y-87611757D01*
X191735441Y-87746718D01*
X191878281Y-87889558D01*
X192046237Y-88001782D01*
X192046241Y-88001784D01*
X192046244Y-88001786D01*
X192232873Y-88079091D01*
X192430992Y-88118499D01*
X192430996Y-88118500D01*
X192430997Y-88118500D01*
X192633004Y-88118500D01*
X192633005Y-88118499D01*
X192831127Y-88079091D01*
X193017756Y-88001786D01*
X193185718Y-87889558D01*
X193328558Y-87746718D01*
X193440786Y-87578756D01*
X193518091Y-87392127D01*
X193557500Y-87194003D01*
X193557500Y-86541997D01*
X193518091Y-86343873D01*
X193440786Y-86157244D01*
X193440784Y-86157241D01*
X193440782Y-86157237D01*
X193328558Y-85989281D01*
X193323819Y-85984542D01*
X193290334Y-85923219D01*
X193287500Y-85896861D01*
X193287500Y-83436000D01*
X193307185Y-83368961D01*
X193359989Y-83323206D01*
X193411500Y-83312000D01*
X197504500Y-83312000D01*
X197571539Y-83331685D01*
G37*
%TD.AperFunction*%
%TA.AperFunction,Conductor*%
G36*
X191729539Y-83331685D02*
G01*
X191775294Y-83384489D01*
X191786500Y-83436000D01*
X191786500Y-85886861D01*
X191766815Y-85953900D01*
X191750181Y-85974542D01*
X191735444Y-85989278D01*
X191735441Y-85989282D01*
X191645264Y-86124242D01*
X191591652Y-86169047D01*
X191522327Y-86177754D01*
X191480162Y-86162738D01*
X191464645Y-86153779D01*
X191464646Y-86153779D01*
X191331115Y-86118000D01*
X191192880Y-86118000D01*
X191167312Y-86124851D01*
X191097462Y-86123187D01*
X191039600Y-86084024D01*
X191012097Y-86019795D01*
X191011930Y-86018322D01*
X191011091Y-86010517D01*
X190960797Y-85875671D01*
X190960793Y-85875664D01*
X190874547Y-85760455D01*
X190787188Y-85695057D01*
X190745318Y-85639123D01*
X190737500Y-85595791D01*
X190737500Y-83436000D01*
X190757185Y-83368961D01*
X190809989Y-83323206D01*
X190861500Y-83312000D01*
X191662500Y-83312000D01*
X191729539Y-83331685D01*
G37*
%TD.AperFunction*%
%TD*%
%TA.AperFunction,NonConductor*%
G36*
X200603039Y-90686185D02*
G01*
X200648794Y-90738989D01*
X200660000Y-90790500D01*
X200660000Y-93359500D01*
X200640315Y-93426539D01*
X200587511Y-93472294D01*
X200536000Y-93483500D01*
X198839500Y-93483500D01*
X198772461Y-93463815D01*
X198726706Y-93411011D01*
X198715500Y-93359500D01*
X198715500Y-93224393D01*
X198735185Y-93157354D01*
X198787989Y-93111599D01*
X198792047Y-93109832D01*
X198817300Y-93099372D01*
X198859756Y-93081786D01*
X198859756Y-93081785D01*
X198859758Y-93081785D01*
X198943174Y-93026047D01*
X199027718Y-92969558D01*
X199170558Y-92826718D01*
X199282786Y-92658756D01*
X199360091Y-92472127D01*
X199399500Y-92274003D01*
X199399500Y-91621997D01*
X199360091Y-91423873D01*
X199282786Y-91237244D01*
X199282784Y-91237241D01*
X199282782Y-91237237D01*
X199170558Y-91069281D01*
X199027721Y-90926444D01*
X199027717Y-90926441D01*
X198978570Y-90893602D01*
X198933765Y-90839990D01*
X198925058Y-90770665D01*
X198955212Y-90707637D01*
X199014655Y-90670918D01*
X199047461Y-90666500D01*
X200536000Y-90666500D01*
X200603039Y-90686185D01*
G37*
%TD.AperFunction*%
%TA.AperFunction,NonConductor*%
G36*
X192231882Y-93159888D02*
G01*
X192425994Y-93198499D01*
X192425996Y-93198500D01*
X192425997Y-93198500D01*
X192628004Y-93198500D01*
X192632249Y-93197655D01*
X192636498Y-93196810D01*
X192706090Y-93203034D01*
X192748376Y-93230745D01*
X193970546Y-94452913D01*
X194230048Y-94712415D01*
X194230049Y-94712416D01*
X194311206Y-94793573D01*
X194334585Y-94816952D01*
X194457498Y-94899080D01*
X194457511Y-94899087D01*
X194594082Y-94955656D01*
X194594087Y-94955658D01*
X194594091Y-94955658D01*
X194594092Y-94955659D01*
X194739079Y-94984500D01*
X200536000Y-94984500D01*
X200603039Y-95004185D01*
X200648794Y-95056989D01*
X200660000Y-95108500D01*
X200660000Y-95888000D01*
X200640315Y-95955039D01*
X200587511Y-96000794D01*
X200536000Y-96012000D01*
X194051130Y-96012000D01*
X193984091Y-95992315D01*
X193963449Y-95975681D01*
X192120019Y-94132251D01*
X192086534Y-94070928D01*
X192083700Y-94044570D01*
X192083700Y-93281507D01*
X192103385Y-93214468D01*
X192156189Y-93168713D01*
X192225347Y-93158769D01*
X192231882Y-93159888D01*
G37*
%TD.AperFunction*%
%TA.AperFunction,NonConductor*%
G36*
X189179539Y-83331685D02*
G01*
X189225294Y-83384489D01*
X189236500Y-83436000D01*
X189236500Y-85603277D01*
X189216815Y-85670316D01*
X189186812Y-85702543D01*
X189109452Y-85760455D01*
X189023206Y-85875664D01*
X189023202Y-85875671D01*
X188972908Y-86010517D01*
X188966501Y-86070116D01*
X188966500Y-86070135D01*
X188966500Y-87665870D01*
X188966501Y-87665876D01*
X188972908Y-87725483D01*
X189023202Y-87860328D01*
X189023206Y-87860335D01*
X189045083Y-87889558D01*
X189109454Y-87975546D01*
X189186811Y-88033456D01*
X189228682Y-88089389D01*
X189236500Y-88132722D01*
X189236500Y-90063733D01*
X189234117Y-90087925D01*
X189231500Y-90101080D01*
X189231500Y-90683277D01*
X189211815Y-90750316D01*
X189181812Y-90782543D01*
X189104452Y-90840455D01*
X189018206Y-90955664D01*
X189018202Y-90955671D01*
X188967908Y-91090517D01*
X188961501Y-91150116D01*
X188961500Y-91150135D01*
X188961500Y-92745870D01*
X188961501Y-92745876D01*
X188967908Y-92805483D01*
X189018202Y-92940328D01*
X189018206Y-92940335D01*
X189104452Y-93055544D01*
X189104453Y-93055545D01*
X189104454Y-93055546D01*
X189186811Y-93117198D01*
X189228682Y-93173131D01*
X189236500Y-93216464D01*
X189236500Y-93291918D01*
X189236500Y-93291920D01*
X189236499Y-93291920D01*
X189265340Y-93436907D01*
X189265343Y-93436917D01*
X189321912Y-93573488D01*
X189321919Y-93573501D01*
X189404048Y-93696415D01*
X189404051Y-93696419D01*
X189508580Y-93800948D01*
X189508584Y-93800951D01*
X189631498Y-93883080D01*
X189631511Y-93883087D01*
X189768082Y-93939656D01*
X189768087Y-93939658D01*
X189768091Y-93939658D01*
X189768092Y-93939659D01*
X189913079Y-93968500D01*
X189913082Y-93968500D01*
X190060920Y-93968500D01*
X190158462Y-93949096D01*
X190205913Y-93939658D01*
X190342495Y-93883084D01*
X190389809Y-93851470D01*
X190456486Y-93830592D01*
X190523866Y-93849076D01*
X190570557Y-93901055D01*
X190582700Y-93954572D01*
X190582700Y-94480718D01*
X190582700Y-94480720D01*
X190582699Y-94480720D01*
X190611540Y-94625707D01*
X190611543Y-94625717D01*
X190668112Y-94762288D01*
X190668116Y-94762295D01*
X190689016Y-94793574D01*
X190689017Y-94793577D01*
X190689018Y-94793577D01*
X190750251Y-94885220D01*
X190750252Y-94885221D01*
X191665351Y-95800319D01*
X191698836Y-95861642D01*
X191693852Y-95931333D01*
X191651980Y-95987267D01*
X191586516Y-96011684D01*
X191577670Y-96012000D01*
X188084000Y-96012000D01*
X188016961Y-95992315D01*
X187971206Y-95939511D01*
X187960000Y-95888000D01*
X187960000Y-83436000D01*
X187979685Y-83368961D01*
X188032489Y-83323206D01*
X188084000Y-83312000D01*
X189112500Y-83312000D01*
X189179539Y-83331685D01*
G37*
%TD.AperFunction*%
M02*
