%TF.GenerationSoftware,KiCad,Pcbnew,8.0.4*%
%TF.CreationDate,2024-08-31T16:48:20-04:00*%
%TF.ProjectId,classab-amp,636c6173-7361-4622-9d61-6d702e6b6963,rev?*%
%TF.SameCoordinates,Original*%
%TF.FileFunction,Soldermask,Bot*%
%TF.FilePolarity,Negative*%
%FSLAX46Y46*%
G04 Gerber Fmt 4.6, Leading zero omitted, Abs format (unit mm)*
G04 Created by KiCad (PCBNEW 8.0.4) date 2024-08-31 16:48:20*
%MOMM*%
%LPD*%
G01*
G04 APERTURE LIST*
%ADD10R,2.600000X2.600000*%
%ADD11C,2.600000*%
%ADD12C,2.700000*%
%ADD13C,2.100000*%
%ADD14R,1.600000X1.600000*%
%ADD15O,1.600000X1.600000*%
%ADD16C,2.400000*%
%ADD17O,2.400000X2.400000*%
%ADD18R,1.050000X1.500000*%
%ADD19O,1.050000X1.500000*%
%ADD20C,1.400000*%
%ADD21O,1.400000X1.400000*%
%ADD22R,1.200000X1.200000*%
%ADD23C,1.200000*%
%ADD24C,1.600000*%
%ADD25R,2.200000X2.200000*%
%ADD26O,2.200000X2.200000*%
%ADD27R,4.500000X2.500000*%
%ADD28O,4.500000X2.500000*%
%ADD29C,5.700000*%
%ADD30R,2.400000X2.400000*%
%ADD31R,1.500000X1.050000*%
%ADD32O,1.500000X1.050000*%
%ADD33C,1.512000*%
%ADD34R,1.800000X1.710000*%
%ADD35O,1.800000X1.710000*%
G04 APERTURE END LIST*
D10*
%TO.C,J1*%
X229536000Y-76708000D03*
D11*
X224536000Y-76708000D03*
%TD*%
D12*
%TO.C,*%
X244840000Y-43180000D03*
%TD*%
%TO.C,*%
X244840000Y-119380000D03*
%TD*%
D13*
%TO.C,REF\u002A\u002A*%
X268000000Y-35000000D03*
%TD*%
D14*
%TO.C,D4*%
X262763000Y-103886000D03*
D15*
X262763000Y-96266000D03*
%TD*%
D16*
%TO.C,R16*%
X243963000Y-63732000D03*
D17*
X243963000Y-78972000D03*
%TD*%
D18*
%TO.C,Q5*%
X209042000Y-108866000D03*
D19*
X210312000Y-108866000D03*
X211582000Y-108866000D03*
%TD*%
D16*
%TO.C,R15*%
X200914000Y-124206000D03*
D17*
X200914000Y-108966000D03*
%TD*%
D20*
%TO.C,R7*%
X206121000Y-84201000D03*
D21*
X206121000Y-76581000D03*
%TD*%
%TO.C,R27*%
X223135000Y-91672000D03*
D20*
X223135000Y-99292000D03*
%TD*%
%TO.C,R24*%
X223135000Y-66802000D03*
D21*
X223135000Y-59182000D03*
%TD*%
D18*
%TO.C,Q3*%
X189992000Y-86868000D03*
D19*
X191262000Y-86868000D03*
X192532000Y-86868000D03*
%TD*%
D22*
%TO.C,C1*%
X189777401Y-111760000D03*
D23*
X191277401Y-111760000D03*
%TD*%
D13*
%TO.C,REF\u002A\u002A*%
X267000000Y-129500000D03*
%TD*%
D20*
%TO.C,R10*%
X216916000Y-46228000D03*
D21*
X216916000Y-53848000D03*
%TD*%
D22*
%TO.C,C4*%
X212598000Y-79756000D03*
D23*
X211098000Y-79756000D03*
%TD*%
D20*
%TO.C,R8*%
X206248000Y-59944000D03*
D21*
X206248000Y-52324000D03*
%TD*%
D24*
%TO.C,C16*%
X219670000Y-39878000D03*
X214670000Y-39878000D03*
%TD*%
D20*
%TO.C,R19*%
X258699000Y-116967000D03*
D21*
X258699000Y-109347000D03*
%TD*%
D18*
%TO.C,Q2*%
X195834000Y-91948000D03*
D19*
X197104000Y-91948000D03*
X198374000Y-91948000D03*
%TD*%
D25*
%TO.C,D6*%
X239264000Y-56874000D03*
D26*
X249424000Y-56874000D03*
%TD*%
D20*
%TO.C,R9*%
X217424000Y-76581000D03*
D21*
X217424000Y-84201000D03*
%TD*%
D27*
%TO.C,Q10*%
X267340000Y-42649500D03*
D28*
X267340000Y-48099500D03*
X267340000Y-53549500D03*
%TD*%
D14*
%TO.C,D1*%
X211328000Y-124206000D03*
D15*
X211328000Y-116586000D03*
%TD*%
D24*
%TO.C,C11*%
X209927000Y-73217000D03*
X209927000Y-68217000D03*
%TD*%
D20*
%TO.C,R6*%
X205994000Y-112676000D03*
D21*
X205994000Y-105056000D03*
%TD*%
D29*
%TO.C,*%
X188500000Y-129500000D03*
%TD*%
D20*
%TO.C,R12*%
X255905000Y-85471000D03*
D21*
X255905000Y-93091000D03*
%TD*%
D20*
%TO.C,R13*%
X249555000Y-93091000D03*
D21*
X249555000Y-85471000D03*
%TD*%
D20*
%TO.C,R25*%
X229108000Y-66802000D03*
D21*
X229108000Y-59182000D03*
%TD*%
D30*
%TO.C,J3*%
X190500000Y-100132000D03*
D16*
X190500000Y-103632000D03*
%TD*%
D20*
%TO.C,R14*%
X261366000Y-85471000D03*
D21*
X261366000Y-93091000D03*
%TD*%
D20*
%TO.C,R4*%
X198374000Y-70358000D03*
D21*
X198374000Y-77978000D03*
%TD*%
D24*
%TO.C,C12*%
X209927000Y-93537000D03*
X209927000Y-88537000D03*
%TD*%
%TO.C,C5*%
X209800000Y-63184000D03*
X209800000Y-58184000D03*
%TD*%
D16*
%TO.C,R20*%
X235962000Y-83798000D03*
D17*
X235962000Y-99038000D03*
%TD*%
D27*
%TO.C,Q12*%
X267340000Y-109959500D03*
D28*
X267340000Y-115409500D03*
X267340000Y-120859500D03*
%TD*%
D30*
%TO.C,C13*%
X228088000Y-111357000D03*
D16*
X228088000Y-118857000D03*
%TD*%
D18*
%TO.C,Q1*%
X189987000Y-91948000D03*
D19*
X191257000Y-91948000D03*
X192527000Y-91948000D03*
%TD*%
D24*
%TO.C,C15*%
X215940000Y-103378000D03*
X220940000Y-103378000D03*
%TD*%
D31*
%TO.C,Q14*%
X217039000Y-91926000D03*
D32*
X217039000Y-90656000D03*
X217039000Y-89386000D03*
%TD*%
D14*
%TO.C,D2*%
X206248000Y-124206000D03*
D15*
X206248000Y-116586000D03*
%TD*%
D24*
%TO.C,C2*%
X206288000Y-100838000D03*
X211288000Y-100838000D03*
%TD*%
D30*
%TO.C,C14*%
X228723000Y-44167000D03*
D16*
X228723000Y-51667000D03*
%TD*%
D13*
%TO.C,REF\u002A\u002A*%
X188500000Y-35000000D03*
%TD*%
D33*
%TO.C,RV1*%
X252476000Y-72592000D03*
X252476000Y-75132000D03*
X252476000Y-77672000D03*
%TD*%
D20*
%TO.C,R2*%
X203200000Y-104802000D03*
D21*
X195580000Y-104802000D03*
%TD*%
D34*
%TO.C,Q11*%
X267590000Y-96075500D03*
D35*
X267590000Y-98355500D03*
X267590000Y-100635500D03*
%TD*%
D21*
%TO.C,R26*%
X229104000Y-99419000D03*
D20*
X229104000Y-91799000D03*
%TD*%
D16*
%TO.C,R17*%
X243963000Y-83798000D03*
D17*
X243963000Y-99038000D03*
%TD*%
D14*
%TO.C,D5*%
X258064000Y-96266000D03*
D15*
X258064000Y-103886000D03*
%TD*%
D34*
%TO.C,Q7*%
X267590000Y-73947500D03*
D35*
X267590000Y-76227500D03*
X267590000Y-78507500D03*
%TD*%
D20*
%TO.C,R11*%
X259080000Y-71120000D03*
D21*
X259080000Y-78740000D03*
%TD*%
D34*
%TO.C,Q8*%
X267590000Y-85011500D03*
D35*
X267590000Y-87291500D03*
X267590000Y-89571500D03*
%TD*%
D20*
%TO.C,R3*%
X192532000Y-70358000D03*
D21*
X192532000Y-77978000D03*
%TD*%
D20*
%TO.C,R18*%
X258064000Y-42926000D03*
D21*
X258064000Y-50546000D03*
%TD*%
D34*
%TO.C,Q6*%
X216404000Y-58017000D03*
D35*
X216404000Y-60297000D03*
X216404000Y-62577000D03*
%TD*%
D24*
%TO.C,C3*%
X230338000Y-86360000D03*
X225338000Y-86360000D03*
%TD*%
D20*
%TO.C,R5*%
X216154000Y-116486000D03*
D21*
X216154000Y-124106000D03*
%TD*%
D16*
%TO.C,R21*%
X236089000Y-63732000D03*
D17*
X236089000Y-78972000D03*
%TD*%
D20*
%TO.C,R1*%
X195580000Y-100076000D03*
D21*
X203200000Y-100076000D03*
%TD*%
D34*
%TO.C,Q9*%
X267590000Y-62883500D03*
D35*
X267590000Y-65163500D03*
X267590000Y-67443500D03*
%TD*%
D25*
%TO.C,D3*%
X249424000Y-106658000D03*
D26*
X239264000Y-106658000D03*
%TD*%
D31*
%TO.C,Q13*%
X217039000Y-72241000D03*
D32*
X217039000Y-70971000D03*
X217039000Y-69701000D03*
%TD*%
D18*
%TO.C,Q4*%
X195834000Y-86868000D03*
D19*
X197104000Y-86868000D03*
X198374000Y-86868000D03*
%TD*%
M02*
