M48
; DRILL file {KiCad 8.0.4} date 2024-09-25T20:47:02-0400
; FORMAT={-:-/ absolute / inch / decimal}
; #@! TF.CreationDate,2024-09-25T20:47:02-04:00
; #@! TF.GenerationSoftware,Kicad,Pcbnew,8.0.4
; #@! TF.FileFunction,Plated,1,2,PTH
FMAT,2
INCH
; #@! TA.AperFunction,Plated,PTH,ComponentDrill
T1C0.0236
; #@! TA.AperFunction,Plated,PTH,ComponentDrill
T2C0.0276
; #@! TA.AperFunction,Plated,PTH,ComponentDrill
T3C0.0295
; #@! TA.AperFunction,Plated,PTH,ComponentDrill
T4C0.0315
; #@! TA.AperFunction,Plated,PTH,ComponentDrill
T5C0.0394
; #@! TA.AperFunction,Plated,PTH,ComponentDrill
T6C0.0433
; #@! TA.AperFunction,Plated,PTH,ComponentDrill
T7C0.0472
; #@! TA.AperFunction,Plated,PTH,ComponentDrill
T8C0.0512
; #@! TA.AperFunction,Plated,PTH,ComponentDrill
T9C0.0591
; #@! TA.AperFunction,Plated,PTH,ComponentDrill
T10C0.1260
%
G90
G05
T1
X7.4716Y-4.4
X7.5306Y-4.4
T2
X7.58Y-2.77
X7.58Y-3.07
X7.7Y-3.94
X7.7Y-4.1261
X7.81Y-2.77
X7.81Y-3.07
X8.0Y-3.94
X8.0Y-4.1261
X8.11Y-4.1361
X8.11Y-4.4361
X8.115Y-3.015
X8.115Y-3.315
X8.12Y-2.06
X8.12Y-2.36
X8.51Y-4.5861
X8.51Y-4.8861
X8.54Y-1.82
X8.54Y-2.12
X8.56Y-3.015
X8.56Y-3.315
X8.7848Y-2.33
X8.7848Y-2.63
X8.7848Y-3.6091
X8.7848Y-3.9091
X9.0198Y-3.6141
X9.0198Y-3.9141
X9.02Y-2.33
X9.02Y-2.63
X9.82Y-3.33
X9.82Y-3.63
X9.98Y-3.33
X9.98Y-3.63
X10.14Y-3.33
X10.14Y-3.63
X10.16Y-1.69
X10.16Y-1.99
X10.185Y-4.305
X10.185Y-4.605
X10.2Y-2.8
X10.2Y-3.1
T3
X7.4798Y-3.62
X7.48Y-3.42
X7.5298Y-3.62
X7.53Y-3.42
X7.5798Y-3.62
X7.58Y-3.42
X7.71Y-3.42
X7.71Y-3.62
X7.76Y-3.42
X7.76Y-3.62
X7.81Y-3.42
X7.81Y-3.62
X8.23Y-4.2861
X8.28Y-4.2861
X8.33Y-4.2861
X8.5448Y-2.7441
X8.5448Y-2.7941
X8.5448Y-2.8441
X8.5448Y-3.5191
X8.5448Y-3.5691
X8.5448Y-3.6191
T4
X7.6Y-4.7216
X7.6Y-4.9184
X8.12Y-4.59
X8.12Y-4.89
X8.1216Y-3.97
X8.2431Y-3.15
X8.2598Y-2.2907
X8.2598Y-2.4876
X8.2648Y-2.6857
X8.2648Y-2.8826
X8.2648Y-3.4857
X8.2648Y-3.6826
X8.3184Y-3.97
X8.32Y-4.59
X8.32Y-4.89
X8.44Y-3.15
X8.4516Y-1.57
X8.5016Y-4.07
X8.6484Y-1.57
X8.6984Y-4.07
X8.8716Y-3.4
X9.0684Y-3.4
X9.94Y-2.858
X9.94Y-2.958
X9.94Y-3.058
X10.16Y-3.79
X10.16Y-4.09
X10.34Y-2.9416
X10.34Y-3.1384
X10.34Y-3.4016
X10.34Y-3.5984
X10.345Y-3.79
X10.345Y-4.09
T5
X8.5198Y-2.2841
X8.5198Y-2.3739
X8.5198Y-2.4637
X10.535Y-2.4757
X10.535Y-2.5655
X10.535Y-2.6553
X10.535Y-2.9113
X10.535Y-3.0011
X10.535Y-3.0908
X10.535Y-3.3469
X10.535Y-3.4367
X10.535Y-3.5264
X10.535Y-3.7825
X10.535Y-3.8723
X10.535Y-3.962
T6
X9.42Y-2.24
X9.42Y-4.2
X9.48Y-1.65
X9.48Y-2.05
X9.48Y-4.38
X9.48Y-4.78
X9.82Y-2.24
X9.82Y-4.2
X9.96Y-1.69
X9.96Y-2.09
X9.99Y-4.25
X9.99Y-4.65
T7
X7.5Y-3.9422
X7.5Y-4.08
X7.91Y-4.29
X7.91Y-4.89
X8.9798Y-4.3841
X8.9798Y-4.6794
X9.0048Y-1.7389
X9.0048Y-2.0341
X9.2898Y-3.2991
X9.2898Y-3.8991
X9.2948Y-2.5091
X9.2948Y-3.1091
X9.6048Y-2.5091
X9.6048Y-3.1091
X9.6048Y-3.2991
X9.6048Y-3.8991
T8
X8.84Y-3.02
X9.0369Y-3.02
T9
X9.29Y-4.06
X9.78Y-1.7
X9.78Y-4.7
X10.5252Y-1.6791
X10.5252Y-1.8937
X10.5252Y-2.1082
X10.5252Y-4.3291
X10.5252Y-4.5437
X10.5252Y-4.7582
T10
X7.4213Y-5.0984
M30
